<svg id="img" fill="none" xmlns="http://www.w3.org/2000/svg" viewBox="0 0 20 20"><path d="M15.792 1.07a.607.607 0 01.888.538l-.002 2.204L3.32 3.5l-.002-.002.002-1.88a.607.607 0 01.879-.554l.943.937.944-.937a.61.61 0 01.544 0l.941.938.957-.938a.607.607 0 01.544.002L10 2l.935-.935a.607.607 0 01.545 0l.94.937.954-.937a.607.607 0 01.543 0l.941.936.934-.932zM4.201 18.742a.608.608 0 01-.889-.538L3.316 16l13.358.312.002.002-.002 1.88a.607.607 0 01-.879.554l-.943-.937-.944.936a.609.609 0 01-.544 0l-.94-.937-.957.938a.608.608 0 01-.545-.002l-.928-.934-.935.935a.607.607 0 01-.545 0l-.94-.937-.954.937a.607.607 0 01-.543 0l-.941-.936-.934.931z" fill="currentColor"/><path d="M14.248 2.45h-8.5c-.643.002-1.26.258-1.716.713-.455.455-.711-.927-.712-.284v13.355c0 .644.008-.238.463.217a2.431 2.431 0 001.717.712H14c.644 0 1.544.455 2 0 .455-.455.676-.285.677-.929V2.88c0-.643-.257.74-.712.284a2.431 2.431 0 00-1.717-.712zM10.143 13.5H7.107a.607.607 0 010-1.214h3.036a.607.607 0 010 1.214zm3.035-3.036H7.107a.607.607 0 010-1.214h6.071a.607.607 0 010 1.214zm0-3.035H7.107a.607.607 0 010-1.215h6.071a.607.607 0 010 1.215z" fill="currentColor"/></svg>