<svg fill="none" xmlns="http://www.w3.org/2000/svg" viewBox="0 0 34 26"><path d="M28.904 1H5.096C2.834 1 1 2.848 1 5.129v15.742C1 23.151 2.834 25 5.096 25h23.808C31.166 25 33 23.151 33 20.871V5.129C33 2.849 31.166 1 28.904 1z" fill="#fff" stroke="#EFF0F1"/><path fill-rule="evenodd" clip-rule="evenodd" d="M7.075 14.364c0-.523.42-.947.935-.947h2.846l-1.418 1.43h5.672l2.835-3.336h6.144l-4.098 4.545c-.347.384-1.037.696-1.551.696H7.999a.934.934 0 01-.924-.947v-1.441z" fill="#00549D"/><path fill-rule="evenodd" clip-rule="evenodd" d="M26.866 12.058a.94.94 0 01-.923.942h-3.33l1.417-1.43h-6.144l-2.363 3.336H9.379l4.128-4.993c.33-.4 1.023-.725 1.536-.725h10.884a.94.94 0 01.939.943v1.927z" fill="#FFD800"/></svg>