<svg fill="none" xmlns="http://www.w3.org/2000/svg" viewBox="0 0 34 26"><path d="M28.871 1H5.129C2.849 1 1 2.869 1 5.174v15.652C1 23.131 2.849 25 5.129 25h23.742C31.151 25 33 23.131 33 20.826V5.174C33 2.869 31.151 1 28.871 1z" fill="#fff" stroke="#EFF0F1"/><mask id="a" maskUnits="userSpaceOnUse" x="7" y="10" width="6" height="7"><path d="M7.71 10.745v5.348h4.455v-5.348H7.71z" fill="#fff"/></mask><g mask="url(#a)"><path fill-rule="evenodd" clip-rule="evenodd" d="M12.005 12.432h-1.323c0-.221-.025-.37-.076-.445-.079-.112-.296-.168-.652-.168-.345 0-.574.033-.686.097-.111.065-.167.205-.167.421 0 .196.05.325.149.386a.61.61 0 00.282.078l.266.019c.572.039.93.066 1.072.081.452.047.78.169.983.367.16.155.255.357.286.607.017.15.026.318.026.506 0 .433-.04.75-.121.95-.148.369-.479.602-.994.7-.215.04-.545.062-.989.062-.74 0-1.257-.045-1.548-.136-.358-.11-.594-.334-.708-.67-.064-.188-.095-.5-.095-.938h1.323v.111c0 .234.066.384.197.45.092.047.202.071.331.074h.486c.248 0 .407-.013.475-.039a.39.39 0 00.24-.235.916.916 0 00.03-.259c0-.237-.085-.38-.255-.432-.063-.02-.358-.05-.884-.085-.423-.03-.717-.06-.881-.09-.433-.082-.722-.251-.866-.508-.126-.22-.19-.55-.19-.992 0-.337.035-.608.103-.811a.887.887 0 01.331-.463c.223-.162.508-.258.856-.286.289-.026.61-.039.962-.039.555 0 .95.033 1.186.097.576.157.864.598.864 1.323 0 .059-.005.148-.013.267z" fill="#0054A5"/></g><mask id="b" maskUnits="userSpaceOnUse" x="17" y="10" width="6" height="7"><path d="M22.245 10.68h-4.474v5.376h4.474V10.68z" fill="#fff"/></mask><g mask="url(#b)"><path fill-rule="evenodd" clip-rule="evenodd" d="M19.193 13.42h.887c.28-.01.452-.031.513-.066.084-.047.14-.141.169-.282.017-.094.026-.234.026-.42 0-.227-.017-.395-.053-.505-.051-.155-.174-.249-.368-.283a2.842 2.842 0 00-.275-.008h-.899v1.565zm-1.422 2.636V10.68h2.649c.364 0 .64.03.831.09a1.3 1.3 0 01.878.854c.077.225.116.565.116 1.018 0 .546-.043.938-.128 1.176-.17.472-.52.744-1.047.814-.062.01-.327.02-.793.028l-.236.008h-.848v1.388h-1.422z" fill="#0054A5"/></g><mask id="c" maskUnits="userSpaceOnUse" x="21" y="10" width="7" height="7"><path d="M21.68 16.056h5.34V10.68h-5.34v5.376z" fill="#fff"/></mask><g mask="url(#c)"><path fill-rule="evenodd" clip-rule="evenodd" d="M25.026 14.08l-.667-2.33-.646 2.33h1.313zm.282 1.047h-1.901l-.255.929H21.68l1.587-5.376h2.145l1.606 5.376h-1.44l-.271-.93z" fill="#0054A5"/></g><path fill-rule="evenodd" clip-rule="evenodd" d="M15.868 11.36c.587 0 1.11.276 1.454.706l.307-.669a2.662 2.662 0 00-1.852-.745c-1.12 0-2.078.689-2.471 1.663h-.598l-.353.77h.769a2.655 2.655 0 00.003.477h-.386l-.353.77h.936a2.665 2.665 0 002.453 1.617c.556 0 1.072-.169 1.499-.458v-.944c-.344.398-.847.65-1.408.65a1.865 1.865 0 01-1.567-.864h1.959l.353-.77h-2.6a1.982 1.982 0 01-.012-.478h2.83l.353-.77h-2.938c.325-.57.93-.954 1.622-.954z" fill="#FEC10E"/></svg>