<svg fill="none" xmlns="http://www.w3.org/2000/svg" viewBox="0 0 20 20"><path fill-rule="evenodd" clip-rule="evenodd" d="M1.833 18.555a4.125 4.125 0 104.584-6.86 4.125 4.125 0 00-4.584 6.86zM2.98 16.84a2.063 2.063 0 102.292-3.43 2.063 2.063 0 00-2.292 3.43zM13.583 18.555a4.124 4.124 0 104.583-6.859 4.124 4.124 0 00-4.583 6.859zm1.146-1.715a2.063 2.063 0 102.292-3.43 2.063 2.063 0 00-2.292 3.43z" fill="#6C41D9"/><path d="M12.857 4.528a1.458 1.458 0 001.013-.407 1.351 1.351 0 00.415-.986 1.366 1.366 0 00-.41-.982 1.444 1.444 0 00-1.009-.403 1.465 1.465 0 00-1.011.404 1.386 1.386 0 00-.422.98 1.385 1.385 0 00.415.983 1.464 1.464 0 001.009.41zM14.98 7.306h-1.954a.183.183 0 01-.156-.09L11.453 4.69c-.1-.188-.244-.35-.42-.474a1.405 1.405 0 00-1.236-.188 1.391 1.391 0 00-.549.325L6.13 7.41c-.262.26-.411.608-.416.972 0 .755.563 1.024.826 1.176 1.273.713 2.169 1.234 2.66 1.524a.176.176 0 01.063.063.17.17 0 01.023.085v3a.717.717 0 001.37.293.68.68 0 00.058-.273v-3.733a.679.679 0 00-.297-.564L8.765 8.798a.176.176 0 01-.074-.124.169.169 0 01.048-.136l1.875-1.944a.179.179 0 01.153-.054.182.182 0 01.134.088l.974 1.71a.704.704 0 00.262.26.73.73 0 00.363.096H15a.731.731 0 00.518-.215.692.692 0 00.196-.512c-.018-.374-.35-.661-.734-.661z" fill="#6C41D9" stroke="#6C41D9" stroke-width=".25"/></svg>