<svg fill="none" xmlns="http://www.w3.org/2000/svg" viewBox="0 0 34 26"><path d="M28.871 1H5.129C2.849 1 1 2.869 1 5.174v15.652C1 23.131 2.848 25 5.129 25h23.742C31.151 25 33 23.131 33 20.826V5.174C33 2.869 31.152 1 28.871 1z" fill="#fff" stroke="#EFF0F1"/><path d="M9 7.08v12.403c0 .596.486 1.08 1.085 1.08h7.449c5.629 0 8.07-3.137 8.07-7.296 0-4.143-2.441-7.267-8.07-7.267h-7.45C9.487 6 9 6.483 9 7.08z" fill="#fff"/><path d="M17.532 19.57h-6.478a1.04 1.04 0 01-1.042-1.035V8.028a1.04 1.04 0 011.042-1.038h6.478c6.144 0 7.062 3.932 7.062 6.276 0 4.066-2.508 6.304-7.062 6.304zM11.054 7.338a.694.694 0 00-.695.69v10.508c0 .381.311.69.695.69h6.478c4.33 0 6.715-2.116 6.715-5.958 0-5.16-4.207-5.93-6.715-5.93h-6.478z" fill="#000"/><path d="M13.984 9.045v9.163h4.009c3.642 0 5.22-2.048 5.22-4.936 0-2.767-1.578-4.917-5.22-4.917h-3.315a.693.693 0 00-.694.69z" fill="#C06"/><path d="M21.626 12.035v1.784h1.072v.405h-1.555v-2.19l.483.001zm-1.61 0l.823 2.189h-.502l-.166-.486h-.824l-.172.486h-.49l.834-2.19h.497v.001zm.028 1.342l-.278-.803h-.006l-.286.803h.57zm-1.685-1.342v.404h-1.162v.47h1.066v.373h-1.066v.537h1.187v.405h-1.67v-2.19l1.645.001zm-2.964 0c.135-.001.27.021.396.067a.862.862 0 01.527.54c.096.297.1.616.014.916a.975.975 0 01-.186.35.875.875 0 01-.312.231c-.139.06-.288.088-.44.085h-.948v-2.19h.95l-.001.001zm-.034 1.784c.07 0 .138-.011.204-.034a.45.45 0 00.175-.112.565.565 0 00.124-.203.89.89 0 00.046-.307c0-.1-.01-.2-.032-.299a.592.592 0 00-.11-.228.473.473 0 00-.195-.146.78.78 0 00-.3-.05h-.345v1.379h.433z" fill="#fff"/><path d="M12.172 14.72c.425 0 .769.342.769.764v2.724c-.85 0-1.538-.685-1.538-1.53v-1.194a.764.764 0 01.77-.764h-.001zM12.172 14.139c.56 0 1.015-.452 1.015-1.01s-.454-1.01-1.015-1.01c-.56 0-1.015.452-1.015 1.01s.455 1.01 1.015 1.01z" fill="#000"/></svg>