<svg fill="none" xmlns="http://www.w3.org/2000/svg" viewBox="0 0 16 16"><path d="M12.82 16c-.697 0-1.676-.252-3.143-1.072-1.784-1-3.163-1.923-4.937-3.692-1.71-1.709-2.543-2.815-3.708-4.934C-.284 3.909-.059 2.654.192 2.118.49 1.478.93 1.094 1.5.714A6.298 6.298 0 012.524.171l.098-.043c.177-.08.445-.2.784-.072.227.085.43.26.746.572.649.64 1.536 2.065 1.863 2.765.22.472.365.784.365 1.133 0 .409-.205.724-.455 1.064l-.138.185c-.272.357-.332.46-.293.644.08.37.674 1.473 1.65 2.447.977.974 2.048 1.53 2.42 1.61.192.04.297-.021.666-.303l.164-.124c.38-.283.681-.483 1.08-.483h.003c.347 0 .645.15 1.138.4.643.323 2.111 1.199 2.755 1.849.314.315.488.517.574.743.128.34.007.607-.072.785l-.043.099c-.15.356-.333.698-.546 1.02-.38.568-.765 1.008-1.407 1.307-.33.156-.69.235-1.056.23z" fill="#6C41D9"/></svg>