<svg fill="none" xmlns="http://www.w3.org/2000/svg" viewBox="0 0 18 18"><path d="M12.646 1.708a3.657 3.657 0 013.646 3.646v7.292a3.657 3.657 0 01-3.646 3.646H5.354a3.657 3.657 0 01-3.646-3.646V5.354a3.657 3.657 0 013.646-3.646h7.292zm0-1.458H5.354C2.547.25.25 2.547.25 5.354v7.292c0 2.807 2.297 5.104 5.104 5.104h7.292c2.807 0 5.104-2.297 5.104-5.104V5.354c0-2.807-2.297-5.104-5.104-5.104z" fill="#929BA0"/><path d="M13.74 5.354a1.094 1.094 0 110-2.187 1.094 1.094 0 010 2.187zM9 6.084a2.917 2.917 0 110 5.833 2.917 2.917 0 010-5.834zm0-1.459a4.375 4.375 0 100 8.75 4.375 4.375 0 000-8.75z" fill="#929BA0"/></svg>