<?xml version="1.0" standalone="no"?>
<!DOCTYPE svg PUBLIC "-//W3C//DTD SVG 1.1//EN" "http://www.w3.org/Graphics/SVG/1.1/DTD/svg11.dtd" >
<svg xmlns="http://www.w3.org/2000/svg" xmlns:xlink="http://www.w3.org/1999/xlink" version="1.1">
<metadata>
Created by FontForge 20170731 at Mon Jun 21 15:45:24 2021
 By Aleksey,,,
Copyright (c) 2020 by MadeType. All rights reserved.
</metadata>
<defs>
<font id="MADEBonVoyage" horiz-adv-x="1091" >
  <font-face 
    font-family="MADE Bon Voyage"
    font-weight="400"
    font-stretch="normal"
    units-per-em="2048"
    panose-1="2 0 5 3 0 0 0 2 0 4"
    ascent="1638"
    descent="-410"
    x-height="991"
    cap-height="1434"
    bbox="-274.245 -898.529 2515 1950"
    underline-thickness="102"
    underline-position="-307"
    unicode-range="U+0020-F6C3"
  />
<missing-glyph horiz-adv-x="409" 
 />
    <glyph glyph-name=".notdef" horiz-adv-x="409" 
 />
    <glyph glyph-name=".null" horiz-adv-x="0" 
 />
    <glyph glyph-name="nonmarkingreturn" horiz-adv-x="682" 
 />
    <glyph glyph-name="space" unicode=" " horiz-adv-x="409" 
 />
    <glyph glyph-name="exclam" unicode="!" horiz-adv-x="493" 
d="M250 322h-14l-93 1056l195 86zM248 188q43 0 72.5 -29.5t29.5 -70.5t-29.5 -70.5t-72.5 -29.5t-74 29.5t-31 70.5t31 70.5t74 29.5z" />
    <glyph glyph-name="quotedbl" unicode="&#x22;" horiz-adv-x="565" 
d="M166 1464q25 0 35.5 -14.5t7.5 -54.5l-39 -461h-8q-33 404 -37 461q-4 40 6.5 54.5t34.5 14.5zM399 1464q24 0 34 -14.5t7 -54.5l-37 -461h-10q-33 404 -37 461q-3 40 7.5 54.5t35.5 14.5z" />
    <glyph glyph-name="numbersign" unicode="#" horiz-adv-x="1638" 
d="M1536 940h-436v-448h436v-23h-436v-469h-23v469h-514v-469h-24v469h-437v23h437v448h-437v25h437v469h24v-469h514v469h23v-469h436v-25zM1077 492v448h-514v-448h514z" />
    <glyph glyph-name="dollar" unicode="$" horiz-adv-x="1241" 
d="M686 823q117 -48 182.5 -79t137.5 -76.5t104 -89t48.5 -105t4.5 -137.5q-25 -151 -156 -248.5t-321 -101.5v-228h-24v228q-101 0 -197.5 25t-154 54.5t-104 51.5t-63.5 18q-17 -3 -20.5 -25.5t-3.5 -89.5v-26v-29h-17v258v226h17v-76q0 -95 70.5 -176.5t188.5 -131.5
t257 -59h27v668q-73 33 -84 37q-226 97 -311 198.5t-56 253.5q13 70 61.5 127t113.5 90t134 49.5t131 14.5h11v231h24v-233q75 -7 141.5 -29t102 -44t64 -36t42.5 -8q3 1 4.5 2.5t3 4.5t2.5 6.5t1.5 9.5t0.5 12v16.5t-0.5 20t-0.5 24.5v29v29h18v-258v-226h-18v76
q0 145 -91 239t-270 111v-598zM317 1174q-6 -102 74 -182t271 -161v592h-11q-139 6 -232 -55.5t-102 -193.5zM1061 297q3 43 -6 81.5t-25 67.5t-47 57.5t-58 47.5t-74 42.5t-78.5 37t-86.5 35.5v-660q165 1 264 78.5t111 212.5z" />
    <glyph glyph-name="percent" unicode="%" horiz-adv-x="1746" 
d="M1305 1434h24l-860 -1434h-23zM776 1075q0 -161 -102.5 -267t-245.5 -106t-244.5 106t-101.5 267q0 160 102 266.5t244 106.5t245 -106.5t103 -266.5zM428 723q105 0 165 95.5t60 256.5t-60 256.5t-165 95.5t-165 -95.5t-60 -256.5t60 -256.5t165 -95.5zM1317 729
q143 0 245.5 -105t102.5 -266t-102.5 -265.5t-245.5 -104.5t-244.5 104.5t-101.5 265.5t101.5 266t244.5 105zM1317 6q105 0 165 95.5t60 256.5t-60 257t-165 96q-104 0 -164.5 -96t-60.5 -257t60.5 -256.5t164.5 -95.5z" />
    <glyph glyph-name="ampersand" unicode="&#x26;" horiz-adv-x="1761" 
d="M1712 213l8 -8q-36 -46 -65 -77t-71 -67t-88 -54.5t-95 -18.5q-168 0 -330 125q-125 -87 -254 -115q-81 -15 -165.5 -15t-169 25t-154 64t-121.5 103t-72 142q-11 46 -11.5 88.5t10.5 77.5t28.5 66t44 57.5t56 48.5t66 41t72 34t76.5 28q-159 211 -170 336
q-16 158 86 256t250 98q107 0 188.5 -48.5t119 -119.5t32.5 -147q-10 -113 -99 -192t-259 -146q178 -223 393 -445q98 -103 145 -143q128 116 213 252l13 -8q-90 -144 -213 -254q131 -107 235 -134q86 -21 154.5 14t146.5 136zM672 1425q-101 16 -178.5 -29t-95 -135.5
t54.5 -220.5q44 -79 161 -231q120 67 179 145t73 176q13 114 -43.5 197.5t-150.5 97.5zM825 23q113 19 234 98q-65 52 -148 139q-302 322 -430 490q-51 -19 -91 -42.5t-74.5 -60.5t-51.5 -82t-15.5 -109t27.5 -139q39 -116 131.5 -190.5t200.5 -98t217 -5.5z" />
    <glyph glyph-name="quotesingle" unicode="'" horiz-adv-x="333" 
d="M166 1464q25 0 35.5 -14.5t7.5 -54.5l-37 -461h-10q-33 404 -37 461q-3 40 7 54.5t34 14.5z" />
    <glyph glyph-name="parenleft" unicode="(" horiz-adv-x="759" 
d="M279 686q0 -523 317 -803l-10 -16q-205 156 -313.5 364.5t-108.5 454.5t108.5 454.5t313.5 364.5l10 -16q-317 -280 -317 -803z" />
    <glyph glyph-name="parenright" unicode=")" horiz-adv-x="757" 
d="M172 1505q206 -156 314 -364t108 -455t-108 -455t-314 -364l-8 16q315 278 315 803t-315 803z" />
    <glyph glyph-name="asterisk" unicode="*" horiz-adv-x="790" 
d="M664 1280q8 -24 -5 -45t-51 -29q-28 -7 -202 -18q27 -19 79 -63t74 -70q51 -57 2 -92q-49 -31 -88 30q-17 29 -78 187q-42 -129 -78 -187q-38 -64 -86 -30q-49 35 2 92q35 42 152 133q-4 0 -35.5 2t-58 3.5t-58.5 5t-49 7.5q-73 15 -57 74q20 57 90 27q47 -20 172 -107
q-43 164 -47 201q-3 40 12.5 58t40.5 18q59 0 54 -76q-1 -18 -8.5 -51t-14.5 -60t-15.5 -57t-9.5 -33q4 3 30.5 20.5t49 32t50.5 31t44 23.5q40 15 61 6t28 -33z" />
    <glyph glyph-name="plus" unicode="+" horiz-adv-x="980" 
d="M858 668v-23h-356v-356h-23v356h-356v23h356v356h23v-356h356z" />
    <glyph glyph-name="comma" unicode="," horiz-adv-x="456" 
d="M227 188q45 0 73.5 -28.5t31.5 -71.5q14 -184 -170 -371l-12 13q66 63 101.5 146t-13.5 101q-115 24 -115 111q0 41 30.5 70.5t73.5 29.5z" />
    <glyph glyph-name="hyphen" unicode="-" horiz-adv-x="980" 
d="M123 668h735v-23h-735v23z" />
    <glyph glyph-name="period" unicode="." horiz-adv-x="454" 
d="M227 188q43 0 74 -29.5t31 -70.5t-31 -70.5t-74 -29.5t-73.5 29.5t-30.5 70.5t30.5 70.5t73.5 29.5z" />
    <glyph glyph-name="slash" unicode="/" horiz-adv-x="571" 
d="M508 1434h22l-464 -1434h-25z" />
    <glyph glyph-name="zero" unicode="0" horiz-adv-x="1269" 
d="M635 1448q155 0 280.5 -89.5t199 -257.5t73.5 -384t-73.5 -383.5t-199 -256.5t-280.5 -89q-236 0 -394.5 202t-158.5 527q0 216 74 384t199.5 257.5t279.5 89.5zM635 10q121 0 208.5 90t132 248.5t44.5 368.5q0 320 -102 513t-283 193q-180 0 -282.5 -193.5
t-102.5 -512.5q0 -209 45 -368t132.5 -249t207.5 -90z" />
    <glyph glyph-name="one" unicode="1" horiz-adv-x="557" 
d="M475 16h41v-16h-459v16h41q76 0 99.5 24t23.5 101v1133q0 29 -20.5 39.5t-50.5 5t-59.5 -15.5t-50.5 -21l-20 -10v18l314 144h18v-1293q0 -77 23 -101t100 -24z" />
    <glyph glyph-name="two" unicode="2" horiz-adv-x="1130" 
d="M1032 393h17v-393h-967v72l63 49h2q214 170 512 483q199 208 175 508q-7 82 -47.5 153t-116.5 117.5t-172 42.5q-78 -3 -139 -27t-99 -61t-62.5 -88.5t-34 -105t-9.5 -115.5v-78h-17v484h17v-29v-46q-1 -47 1 -61.5t11 -17.5t24.5 11.5t40 39t58.5 49.5t93.5 45t131.5 23
q98 4 193.5 -23t173 -95t96.5 -165q21 -100 -10.5 -195.5t-99.5 -181.5t-191 -202q-62 -59 -139 -135t-116 -113.5t-105 -95t-148 -121.5h739q78 0 101.5 23.5t23.5 101.5v147z" />
    <glyph glyph-name="three" unicode="3" horiz-adv-x="1146" 
d="M764 774q183 -17 265.5 -135.5t39.5 -294.5q-38 -155 -192 -255.5t-355 -100.5q-138 0 -277.5 58t-203.5 159l14 10q63 -90 194 -148t304 -42q140 12 231.5 91.5t126.5 221.5q36 148 -14 262t-172 141q-33 8 -61.5 10.5t-65.5 -3.5t-51.5 -8.5t-65 -17t-61.5 -17.5l-8 18
q86 23 153.5 51.5t131 71t105 103t56.5 136.5q29 160 -58 255.5t-239 84.5q-109 -8 -189 -66.5t-117.5 -144.5t-37.5 -186v-78h-16v484h16v-29q0 -70 2 -93t10 -32q9 -9 25 4t43.5 39t64 53.5t96.5 48.5t130 23q73 2 145 -17t134.5 -56.5t99 -102t30.5 -144.5
q-4 -65 -34.5 -119.5t-85 -97.5t-116.5 -75.5t-147 -65.5q72 10 150 4z" />
    <glyph glyph-name="four" unicode="4" horiz-adv-x="1218" 
d="M1157 358h-280v-217q0 -77 22.5 -101t99.5 -24h41v-16h-460v16h41q77 0 99.5 24t22.5 101v217h-702v23l817 1053h19v-1053h280v-23zM74 381h669v864z" />
    <glyph glyph-name="five" unicode="5" horiz-adv-x="1105" 
d="M655 870q193 -19 300.5 -131t84.5 -295q-10 -84 -54 -164.5t-114 -146t-171 -105.5t-216 -40q-134 0 -256.5 57t-187.5 160l14 10q62 -97 179 -153.5t284 -36.5q153 18 248.5 134t114.5 269q22 167 -48.5 274.5t-218.5 126.5q-196 25 -376 -92l-13 11l41 686h709v-394
h-17v148q0 75 -21.5 98t-90.5 25l-565 -2l-33 -543q78 55 184 85t223 19z" />
    <glyph glyph-name="six" unicode="6" horiz-adv-x="1183" 
d="M721 905q176 -22 287 -158.5t90 -328.5q-6 -63 -28.5 -124t-65.5 -119t-101.5 -101t-142.5 -67t-182 -19q-71 4 -141.5 27t-140 74t-120 123t-76 182.5t-12.5 244.5q10 107 46.5 205.5t91.5 177.5t126 146.5t151 116.5t165 84t169 52.5t162 18.5l-2 -19
q-53 0 -110.5 -8.5t-129 -31.5t-137 -58t-130.5 -94t-114 -134t-82.5 -183t-41.5 -236q47 116 176 182.5t293 46.5zM946 416q5 183 -63.5 299t-204.5 151q-94 24 -192.5 -8t-166 -111.5t-71.5 -181.5q-5 -142 22 -250t70 -167t101 -93.5t107 -43t95 -3.5q62 7 113 35t85 68
t58 91.5t35 105t12 108.5z" />
    <glyph glyph-name="seven" unicode="7" horiz-adv-x="1122" 
d="M82 1434h958v-52q-155 -153 -276.5 -394t-185.5 -499.5t-64 -488.5h-190q49 322 226 676t396 633l-733 2q-70 0 -92.5 -24t-22.5 -99v-168h-16v414z" />
    <glyph glyph-name="eight" unicode="8" horiz-adv-x="1212" 
d="M786 739q176 -72 260 -159.5t84 -210.5q0 -51 -15 -101.5t-52 -101.5t-92.5 -90t-144.5 -63.5t-199 -24.5q-141 0 -249 28.5t-171 77.5t-94 109t-31 129q0 76 30.5 143.5t83 117t103.5 83.5t109 61q-42 21 -74.5 40.5t-71 52.5t-63.5 69.5t-41.5 88t-14.5 110.5
q3 80 44.5 147.5t107 111t144.5 67.5t159 24q94 0 173.5 -22.5t132.5 -58t91 -81t56 -90.5t20 -88q2 -69 -20.5 -128.5t-88.5 -123t-176 -117.5zM260 1114q3 -38 21.5 -74.5t44 -64t66.5 -56t74 -47t83 -40.5t78.5 -32.5t75 -27t57.5 -20.5q177 126 172 350
q-3 104 -51 178.5t-121.5 108.5t-163.5 34q-61 0 -121.5 -20t-111.5 -56.5t-80 -97.5t-23 -135zM606 12q78 -4 146 11t123 49t87.5 94t34.5 139q2 52 -18.5 98t-60 82.5t-83.5 66t-104.5 56t-106 44.5t-105.5 39t-87 32q-206 -143 -211 -367q-2 -94 54 -172t144 -122
t187 -50z" />
    <glyph glyph-name="nine" unicode="9" horiz-adv-x="1183" 
d="M463 530q-176 21 -287 157t-90 329q6 63 29 124t66 119.5t101.5 102t142 67.5t181.5 19q58 -3 117 -20.5t119 -50t110 -86t87 -122t53 -164.5t6 -208q-14 -149 -79 -280.5t-160 -224.5t-211 -161.5t-235 -102t-229 -34.5l2 18q53 0 110.5 9t129 31.5t137.5 58t131 94.5
t114.5 133.5t83.5 183t42 236.5q-49 -117 -178 -183t-293 -45zM238 1018q-5 -183 63.5 -299.5t204.5 -151.5q94 -24 192.5 8t166 112t71.5 183q5 142 -22 249.5t-70 166t-100.5 93t-106 43t-94.5 3.5q-77 -8 -137 -47.5t-94.5 -98.5t-53 -125t-20.5 -136z" />
    <glyph glyph-name="colon" unicode=":" horiz-adv-x="452" 
d="M227 188q43 0 73 -29.5t30 -70.5t-30 -70.5t-73 -29.5q-44 0 -74 29t-30 71t30 71t74 29zM227 688q-44 0 -74 29t-30 71t30 71.5t74 29.5q43 0 73 -30t30 -71t-30 -70.5t-73 -29.5z" />
    <glyph glyph-name="semicolon" unicode=";" horiz-adv-x="454" 
d="M227 688q-43 0 -73.5 29.5t-30.5 70.5t30.5 71t73.5 30t74 -30t31 -71t-31 -70.5t-74 -29.5zM227 188q44 0 72 -28.5t31 -71.5q14 -182 -168 -371l-15 13q64 59 101 140q40 89 -3 105q-3 1 -7 2q-115 24 -115 111q0 41 30.5 70.5t73.5 29.5z" />
    <glyph glyph-name="less" unicode="&#x3c;" horiz-adv-x="1087" 
d="M965 965l-813 -312l813 -311l-11 -20l-831 319v25l831 319z" />
    <glyph glyph-name="equal" unicode="=" horiz-adv-x="980" 
d="M123 502v22h735v-22h-735zM123 811h735v-23h-735v23z" />
    <glyph glyph-name="greater" unicode="&#x3e;" horiz-adv-x="1089" 
d="M133 985l834 -319v-25l-834 -319l-10 20l813 311l-813 312z" />
    <glyph glyph-name="question" unicode="?" horiz-adv-x="1003" 
d="M913 1165q15 -73 -6.5 -141t-56.5 -115.5t-107 -140t-120 -166.5q-37 -57 -66.5 -100t-68.5 -97t-60 -83l-14 8q39 60 94.5 143.5t95.5 147.5q98 156 136 268t28 223q-6 63 -25.5 118t-54.5 101.5t-92 72t-129 21.5q-305 -17 -305 -397v-78h-19v484h19v-29q0 -106 2 -113
q3 -9 8 -12q10 -3 22.5 11.5t31.5 39t47.5 49.5t84 45t127.5 23t140 -12.5t127.5 -48.5t102 -90.5t58.5 -131.5zM489 188q43 0 74 -29.5t31 -70.5t-31 -70.5t-74 -29.5t-73.5 29.5t-30.5 70.5t30.5 70.5t73.5 29.5z" />
    <glyph glyph-name="at" unicode="@" horiz-adv-x="2277" 
d="M1327 1642q126 -9 234.5 -38.5t189.5 -74.5t146.5 -103t108.5 -125t72.5 -138t41.5 -145t12 -143.5t-12 -135.5q-19 -103 -55 -189t-78.5 -145t-94 -105.5t-100 -73.5t-98 -44.5t-86 -23.5t-66.5 -6q-266 0 -172 331q1 5 4 15.5t4 15.5q-158 -335 -397 -360
q-87 -9 -160.5 17t-123.5 82t-70 146t-2 201q27 161 115.5 295t208 209t241.5 78q141 4 242 -39t163 -105q-86 -436 -133 -626q-30 -126 4.5 -182.5t112.5 -51.5q52 3 108 22t120 61.5t118 104.5t100 160.5t68 218.5q12 65 12 133.5t-12.5 140t-41.5 140.5t-71 133
t-106 119.5t-142.5 98.5t-183 71.5t-225.5 36.5q-128 9 -255 -11.5t-251 -73t-230.5 -133.5t-194 -200t-140.5 -264q-61 -164 -71 -327t28.5 -304t123.5 -260t210 -199q142 -91 316.5 -133t337.5 -34t310 58.5t242 135.5l16 -25q-99 -94 -265.5 -146t-360.5 -52
q-353 0 -617 168q-47 30 -92.5 70.5t-94.5 101t-87.5 130.5t-66 161.5t-35.5 191t10 222t65 251.5q63 175 180.5 314.5t265 226t317.5 127t343 28.5zM1032 197q60 7 118.5 47.5t105.5 103.5t84 132t65 145q17 74 36 163.5t29 141.5l11 53q-8 24 -22 48t-40.5 53.5t-72.5 51
t-105 27.5q-48 5 -101.5 -4.5t-114 -39t-112.5 -76t-95 -124t-64 -174.5q-26 -114 -16 -218t44 -181.5t99.5 -118.5t150.5 -30z" />
    <glyph glyph-name="A" unicode="A" horiz-adv-x="1509" 
d="M1466 16h23v-16h-442v16h40q74 0 83 26t-27 99l-142 336h-632l-131 -336q-28 -77 -9.5 -101t97.5 -24h41v-16h-347v16h35q66 0 99 28t61 97l500 1293h24l547 -1293q34 -76 68.5 -100.5t111.5 -24.5zM379 502h612l-321 753z" />
    <glyph glyph-name="B" unicode="B" horiz-adv-x="1298" 
d="M764 805q229 -19 351 -119t122 -283q0 -205 -151.5 -304t-426.5 -99h-618v16h41q77 0 100 24t23 101v1149q0 78 -22.5 101.5t-100.5 23.5h-41v19h475q140 0 243.5 -17t180.5 -54.5t115.5 -101t38.5 -153.5q0 -247 -330 -303zM481 1409h-145v-604h145v2q113 0 196.5 15
t135.5 40.5t83.5 65t43.5 82t12 98.5t-12 98.5t-43.5 82t-83.5 65t-135.5 40.5t-196.5 15zM625 25q471 0 471 378q0 64 -12 117t-44.5 103t-84.5 84t-136.5 54.5t-195.5 20.5h-287v-757h289z" />
    <glyph glyph-name="C" unicode="C" horiz-adv-x="1533" 
d="M1458 371l15 -9q-47 -83 -111 -150.5t-147 -121.5t-190 -81.5t-226 -20.5q-113 7 -219.5 40.5t-197.5 93.5t-160.5 140t-111.5 186.5t-47 227.5q-7 155 50 299t158 249t244.5 166.5t301.5 57.5q85 -3 161.5 -21.5t126 -43t89 -48.5t67.5 -39.5t44 -13.5q22 4 22 114v27
v29h19v-483h-19v78q0 157 -152 270.5t-391 109.5q-257 -6 -419 -200t-156 -486q2 -133 40 -247t101 -195t146.5 -140t177 -90t192.5 -36q199 -10 351.5 84.5t240.5 253.5z" />
    <glyph glyph-name="D" unicode="D" horiz-adv-x="1515" 
d="M659 1434q186 0 338.5 -56.5t251 -154t152 -227.5t53.5 -279t-53.5 -279t-152 -227.5t-251 -154t-338.5 -56.5h-323h-295v16h39q77 0 100 24t23 101v1149q0 78 -22.5 101.5t-100.5 23.5h-39v19h618zM623 25q177 0 311.5 54.5t215 151t120 218.5t39.5 268t-39.5 268
t-120 218.5t-215 151t-311.5 54.5h-287v-1384h287z" />
    <glyph glyph-name="E" unicode="E" horiz-adv-x="1247" 
d="M1106 406h18v-406h-1083v16h41q77 0 100 24t23 101v1149q0 78 -22.5 101.5t-100.5 23.5h-41v19h1046v-406h-16v219q0 85 -25.5 123.5t-99.5 38.5h-608v-670h414q73 0 99 42t26 128v41h18v-442h-18v39q0 86 -26 128t-99 42h-414v-692h645q72 0 97.5 38.5t25.5 122.5v220z
" />
    <glyph glyph-name="F" unicode="F" horiz-adv-x="1222" 
d="M41 1434h1049v-406h-19v219q0 85 -25.5 123.5t-99.5 38.5h-608v-670h416q72 0 98.5 42.5t26.5 127.5v41h16v-442h-16v39q0 85 -26.5 127.5t-98.5 42.5h-416v-576q0 -77 23 -101t100 -24h112v-16h-532v16h41q77 0 100 24t23 101v1149q0 78 -22.5 101.5t-100.5 23.5h-41v19
z" />
    <glyph glyph-name="G" unicode="G" horiz-adv-x="1587" 
d="M911 680h635v-16h-4q-78 0 -100.5 -23.5t-22.5 -101.5v-539h-16v147q0 26 -19 31q-15 4 -41 -14t-66 -47t-92.5 -58t-136 -50t-180.5 -21q-120 0 -236 31.5t-216 92t-177.5 142.5t-124 190t-51.5 228q-7 158 51 302t159.5 247.5t243 165t296.5 61.5q93 0 173.5 -18.5
t130.5 -43.5t89 -50.5t66 -41t43 -12.5q16 2 19 24.5t3 88.5v28v27h19v-481h-19v75q0 75 -38 145t-106 123.5t-169.5 84.5t-220.5 28q-128 -3 -239 -55t-190.5 -143t-122.5 -223t-38 -287q4 -152 57.5 -284t141 -224.5t206 -145.5t250.5 -53q156 0 254 53.5t168 143.5v332
q0 78 -22.5 101.5t-100.5 23.5h-256v16z" />
    <glyph glyph-name="H" unicode="H" horiz-adv-x="1566" 
d="M1485 1415q-78 0 -100.5 -23.5t-22.5 -101.5v-1149q0 -77 23 -101t100 -24h41v-16h-461v16h41q77 0 100 24t23 101v576h-893v-576q0 -77 23 -101t100 -24h41v-16h-459v16h39q77 0 100 24t23 101v1149q0 78 -22.5 101.5t-100.5 23.5h-39v19h459v-19h-41
q-78 0 -100.5 -23.5t-22.5 -101.5v-551h893v551q0 78 -22.5 101.5t-100.5 23.5h-41v19h461v-19h-41z" />
    <glyph glyph-name="I" unicode="I" horiz-adv-x="540" 
d="M459 1415q-78 0 -100.5 -23.5t-22.5 -101.5v-1149q0 -77 23 -101t100 -24h41v-16h-459v16h41q77 0 100 24t23 101v1149q0 78 -22.5 101.5t-100.5 23.5h-41v19h459v-19h-41z" />
    <glyph glyph-name="J" unicode="J" horiz-adv-x="669" 
d="M61 1434h568v-19h-41q-78 0 -100.5 -23.5t-22.5 -101.5v-1057q0 -122 -26 -218.5t-61 -151.5t-84.5 -95t-83.5 -54.5t-71 -24.5q-47 -13 -131 -18t-137 3q-42 7 -68.5 24t-25.5 46q6 65 90 37q5 -2 63 -28t110 -39.5t93 -6.5q44 8 76.5 31.5t62 77t45 155t15.5 248.5
v1071q0 78 -22.5 101.5t-100.5 23.5h-148v19z" />
    <glyph glyph-name="K" unicode="K" horiz-adv-x="1480" 
d="M1403 16h57v-16h-459v16h23q78 0 88.5 26.5t-37.5 98.5l-475 668l-264 -299v-369q0 -77 23 -101t100 -24h41v-16h-459v16h41q76 0 98.5 24t22.5 101v1149q0 78 -22.5 101.5t-98.5 23.5h-41v19h459v-19h-41q-78 0 -100.5 -23.5t-22.5 -101.5v-753l678 770q92 108 -64 108
h-45v19h387v-19h-41q-50 0 -90.5 -17t-65 -38.5t-71.5 -69.5l-338 -383l535 -766q58 -73 75 -89q41 -36 107 -36z" />
    <glyph glyph-name="L" unicode="L" horiz-adv-x="1206" 
d="M1108 442h16v-442h-1083v16h41q77 0 100 24t23 101v1149q0 78 -22.5 101.5t-100.5 23.5h-41v19h461v-19h-41q-78 0 -100.5 -23.5t-22.5 -101.5v-1265h645q73 0 99 38.5t26 122.5v256z" />
    <glyph glyph-name="M" unicode="M" horiz-adv-x="1800" 
d="M1718 1415q-78 0 -100.5 -23.5t-22.5 -101.5v-1149q0 -77 23 -101t100 -24h41v-16h-459v16h41q77 0 100 24t23 101v1252l-571 -1000h-25l-585 924v-1176q0 -71 45.5 -98t132.5 -27h41v-16h-461v16h41q87 0 132.5 27t45.5 98v1149q0 73 -45.5 99t-132.5 26h-41v19h332
l571 -908l520 908h295v-19h-41z" />
    <glyph glyph-name="N" unicode="N" horiz-adv-x="1642" 
d="M1143 1434h459v-19h-41q-86 0 -131.5 -26t-45.5 -97v-1292h-24l-1077 1341v-1200q0 -71 45.5 -98t130.5 -27h41v-16h-459v16h41q86 0 131 26.5t45 98.5v1151q0 71 -44.5 97t-131.5 26h-41v19h352l967 -1201v1059q0 71 -44.5 97t-131.5 26h-41v19z" />
    <glyph glyph-name="O" unicode="O" horiz-adv-x="1646" 
d="M823 1448q225 0 399.5 -95.5t268.5 -261.5t94 -374t-94 -373.5t-268.5 -260.5t-399.5 -95q-170 0 -313 55.5t-241.5 152t-153 231t-54.5 290.5t55 290.5t153 232t241 153t313 55.5zM823 10q188 0 330 89.5t217.5 249.5t75.5 368t-75.5 368t-217.5 249t-330 89
q-283 0 -452.5 -195t-169.5 -511t169.5 -511.5t452.5 -195.5z" />
    <glyph glyph-name="P" unicode="P" horiz-adv-x="1210" 
d="M571 573h-233v-432q0 -77 23 -101t100 -24h112v-16h-532v16h41q77 0 100 24t23 101v1151q0 77 -22.5 100t-100.5 23h-41v19h530q280 0 429 -108t149 -322t-149 -322.5t-429 -108.5zM535 1409h-197v-811h197q113 0 197.5 22t136.5 58t84 90t43.5 110t11.5 126
q0 69 -11.5 125t-43.5 110t-84 90t-136.5 58t-197.5 22z" />
    <glyph glyph-name="Q" unicode="Q" horiz-adv-x="1648" 
d="M1059 -203q111 -49 206 -50t159.5 34t109.5 100l10 -6q-25 -49 -74.5 -94.5t-121 -79.5t-157.5 -38.5t-183 28.5q-47 17 -103 53l-98 63t-92.5 46t-110.5 7t-129 -59q-22 -17 -49.5 -7.5t-24.5 38.5q5 47 60 37q29 -8 53.5 -7.5t50.5 17.5q77 51 152 115
q-297 34 -476.5 233t-179.5 490q0 208 94 374t268.5 261.5t399.5 95.5q170 0 313.5 -55.5t242 -153t153.5 -232t55 -290.5t-55 -290.5t-153.5 -231t-242 -152t-313.5 -55.5q-30 0 -88 4q-72 -66 -162 -123q61 15 111 19.5t86 3.5t90 -18t87 -30t112 -47zM201 717
q0 -316 169.5 -511.5t452.5 -195.5q188 0 330 89.5t217.5 249.5t75.5 368t-75.5 368t-217.5 249t-330 89q-283 0 -452.5 -195t-169.5 -511z" />
    <glyph glyph-name="R" unicode="R" horiz-adv-x="1476" 
d="M1483 164l14 -6q-22 -46 -52.5 -83.5t-81 -64.5t-108.5 -22q-117 9 -184.5 95.5t-116.5 274.5q-18 69 -40.5 119.5t-44 85t-59 57t-63.5 35t-81 18t-90 6.5t-109 1h-129v-539q0 -77 23 -101t100 -24h112v-16h-532v16h41q77 0 100 24t23 101v1151q0 77 -22.5 100
t-100.5 23h-41v19h565q268 0 405.5 -95t137.5 -282q0 -159 -100.5 -251.5t-296.5 -117.5q250 -38 327 -252q18 -51 40 -137.5t36.5 -137t47 -95t79.5 -52.5q58 -10 113.5 35t87.5 115zM338 1409v-704h233q101 0 178.5 19t126 50.5t79 77.5t42 95.5t11.5 109.5t-11.5 109.5
t-42 95.5t-79 77.5t-126 50.5t-178.5 19h-233z" />
    <glyph glyph-name="S" unicode="S" horiz-adv-x="1241" 
d="M672 831q121 -49 188 -80t141.5 -77t107.5 -90t50 -106.5t4 -139.5q-25 -154 -161.5 -252t-333.5 -98q-102 0 -199 25t-155 54.5t-105 51.5t-64 18q-17 -3 -20.5 -25.5t-3.5 -89.5v-26v-29h-19v258v226h19v-76q0 -95 70.5 -176.5t188.5 -131.5t257 -59q188 -10 301 67
t125 224q4 45 -6 84t-26.5 69t-49.5 59t-61.5 48t-77.5 43t-82.5 37.5t-90.5 36.5t-89 37q-226 97 -311 198.5t-56 253.5q13 70 61.5 127t113.5 90t134 49.5t131 14.5q69 -3 130.5 -18t100.5 -34t69.5 -36.5t51 -26.5t31.5 -4q10 3 12 15t1 59v51v29h18v-258v-226h-18v76
q0 153 -100 248t-296 104q-139 6 -232 -55.5t-102 -193.5q-6 -103 75.5 -183.5t277.5 -161.5z" />
    <glyph glyph-name="T" unicode="T" horiz-adv-x="1372" 
d="M102 1434h1168v-406h-17v219q0 84 -26.5 123t-98.5 39h-376v-1268q0 -77 22.5 -101t99.5 -24h41v-16h-458v16h39q77 0 99.5 24t22.5 101v1268h-374q-74 0 -99.5 -38.5t-25.5 -123.5v-219h-17v406z" />
    <glyph glyph-name="U" unicode="U" horiz-adv-x="1550" 
d="M1049 1434h460v-19h-41q-87 0 -132.5 -26t-45.5 -97v-725q0 -84 -15 -162.5t-51.5 -155.5t-91.5 -134t-142 -92t-195 -35q-123 0 -227.5 35t-186.5 105t-129 187.5t-47 270.5v706q0 77 -22.5 100t-100.5 23h-41v19h461v-19h-41q-78 0 -100.5 -23t-22.5 -100v-706
q0 -148 39 -256t109 -169.5t158 -89.5t196 -26q192 5 310 147t118 375v725q0 71 -45.5 97t-132.5 26h-41v19z" />
    <glyph glyph-name="V" unicode="V" horiz-adv-x="1509" 
d="M1143 1434h346v-19h-35q-66 0 -100 -27.5t-60 -95.5l-501 -1292h-23l-549 1292q-32 75 -66 99t-112 24h-23v19h441v-19h-41q-73 0 -81 -25.5t26 -97.5l473 -1114l432 1114q29 76 11.5 99.5t-97.5 23.5h-41v19z" />
    <glyph glyph-name="W" unicode="W" horiz-adv-x="2197" 
d="M1753 1434h424v-19h-41q-80 0 -124 -26.5t-73 -96.5l-499 -1292h-25l-323 766l-297 -766h-25l-547 1292q-39 73 -72 98t-106 25h-25v19h443v-19h-41q-73 0 -81 -25.5t26 -97.5l473 -1114l239 617l-211 497q-39 74 -72.5 98.5t-107.5 24.5h-22v19h442v-19h-41
q-73 0 -81 -25.5t26 -97.5l135 -321l133 340q10 26 14.5 43.5t0 29.5t-9.5 18t-23.5 9t-32.5 3.5t-47 0.5h-2v19h352v-19h-41q-80 0 -124 -26.5t-73 -96.5l-135 -350l326 -764l432 1114q29 72 -4 97.5t-119 25.5h-41v19z" />
    <glyph glyph-name="X" unicode="X" horiz-adv-x="1503" 
d="M1417 16h25v-16h-443v16h41q66 0 70 24.5t-37 78.5l-379 573l-368 -551q-82 -125 86 -125h41v-16h-387v16h40q72 0 110 26t87 99l379 570l-385 581q-45 66 -91.5 94.5t-121.5 28.5h-23v19h443v-19h-41q-31 0 -47.5 -5.5t-22.5 -12.5t1 -25.5t16 -33t30 -46.5l326 -493
l321 493q31 46 26.5 73.5t-32.5 38.5t-82 11h-41v19h388v-19h-39q-75 0 -111.5 -25t-83.5 -98l-334 -510l424 -641q44 -67 92 -96t123 -29z" />
    <glyph glyph-name="Y" unicode="Y" horiz-adv-x="1386" 
d="M979 1434h387v-19h-41q-38 0 -62 -5t-44.5 -23t-32.5 -35t-37 -58l-375 -696v-457q0 -77 23.5 -101t99.5 -24h41v-16h-459v16h41q77 0 100 24t23 101v422l-434 729q-48 73 -64 88q-37 35 -102 35h-23v19h441v-19h-41q-77 0 -91.5 -26.5t23.5 -96.5l406 -682l368 688
q17 33 17.5 56t-16 36t-43 19t-66.5 6h-39v19z" />
    <glyph glyph-name="Z" unicode="Z" horiz-adv-x="1294" 
d="M1176 446h16v-446h-1090v23l924 1386h-747q-72 0 -98.5 -45t-26.5 -131v-246h-17v447h1039v-25l-926 -1386h801q71 0 98 45.5t27 132.5v245z" />
    <glyph glyph-name="bracketleft" unicode="[" horiz-adv-x="587" 
d="M184 1505h342v-24h-243v-1565h243v-25h-342v1614z" />
    <glyph glyph-name="backslash" unicode="\" horiz-adv-x="571" 
d="M66 1434l464 -1434h-22l-467 1434h25z" />
    <glyph glyph-name="bracketright" unicode="]" horiz-adv-x="585" 
d="M61 1505h340v-1614h-340v25h244v1565h-244v24z" />
    <glyph glyph-name="asciicircum" unicode="^" horiz-adv-x="811" 
d="M406 1491l282 -279l-8 -12l-274 195l-275 -195l-8 12z" />
    <glyph glyph-name="underscore" unicode="_" horiz-adv-x="1087" 
d="M123 0h842v-25h-842v25z" />
    <glyph glyph-name="grave" unicode="`" horiz-adv-x="403" 
d="M139 1399l223 -215l-6 -8q-217 124 -266 155q-69 44 -39 82q29 40 88 -14z" />
    <glyph glyph-name="a" unicode="a" horiz-adv-x="1114" 
d="M1104 115l10 -9q-31 -46 -81.5 -82t-112.5 -36q-77 0 -121.5 45t-44.5 133v156q-7 -36 -22 -76t-44 -85.5t-66.5 -82t-93.5 -62t-120 -28.5q-63 -3 -123.5 10t-112 41t-84.5 78t-35 114q-2 63 19.5 111.5t56 79.5t93 55t113.5 37.5t134 26.5q218 37 285 157
q0 88 -18.5 147.5t-53.5 89.5t-75.5 42t-94.5 12q-38 0 -72.5 -16.5t-53.5 -34t-51 -52t-46 -48.5q-37 -36 -68.5 -39.5t-48.5 20.5q-15 19 -7 44t36 44q70 43 154 71t161 28q369 0 369 -377v-475q0 -75 15.5 -107t47.5 -35q36 -4 81 26t75 77zM754 420v254
q-24 -28 -37.5 -40.5t-49 -37t-90.5 -43t-133 -33.5q-284 -61 -272 -280q7 -116 90.5 -173.5t200.5 -46.5q122 12 206.5 135t84.5 265z" />
    <glyph glyph-name="b" unicode="b" horiz-adv-x="1253" 
d="M684 1006q116 3 215 -34.5t167.5 -106t107 -164t38.5 -205.5q0 -225 -147 -369.5t-381 -138.5q-116 3 -217.5 74.5t-130.5 173.5l-105 -236h-26v1292q0 77 -22.5 100t-100.5 23h-41v19h297v-670q32 99 132.5 169t213.5 73zM684 6q173 -5 284 132.5t111 357.5
q0 219 -110.5 355.5t-284.5 133.5q-144 -4 -245 -98t-101 -211v-361q0 -117 101 -211t245 -98z" />
    <glyph glyph-name="c" unicode="c" 
d="M1163 412l11 -9q-18 -32 -34.5 -59.5t-49.5 -72t-66.5 -80t-82.5 -75t-100.5 -66.5t-118.5 -44.5t-138 -17.5q-150 0 -267 55.5t-184 160t-70 242.5q-3 150 69 279.5t195.5 205t266.5 75.5q181 -5 321 -99q33 -24 41 -52.5t-8 -47.5q-21 -27 -60 -15.5t-71 56.5
q-25 37 -52.5 62.5t-81.5 47.5t-124 25q-173 2 -283.5 -139t-89.5 -359q10 -104 48.5 -185.5t98.5 -133.5t133 -81t157 -34q92 -6 175.5 21.5t139 67t106 98t74 95.5t45.5 79z" />
    <glyph glyph-name="d" unicode="d" horiz-adv-x="1251" 
d="M1190 16h41v-16h-297v227q-32 -99 -131.5 -167.5t-212.5 -71.5q-234 -6 -381.5 138.5t-147.5 369.5q0 110 38.5 205.5t107.5 164t168 106t215 34.5q113 -3 212.5 -73t131.5 -169v528q0 77 -22.5 100t-98.5 23h-41v19h295v-1293q0 -77 23 -101t100 -24zM590 6
q143 4 243.5 98t100.5 211v361q0 117 -100.5 211t-243.5 98q-175 3 -285 -133t-110 -356t110.5 -357t284.5 -133z" />
    <glyph glyph-name="e" unicode="e" 
d="M1163 412l11 -9q-18 -32 -34.5 -59.5t-49.5 -72t-66.5 -80t-82.5 -75t-100.5 -66.5t-118.5 -44.5t-138 -17.5q-229 0 -373 124.5t-148 333.5q-3 150 69 279.5t195.5 205t266.5 75.5q170 0 283.5 -103t113.5 -268h-803q-10 -75 -4 -150q10 -104 49 -185.5t99 -133.5
t133 -81t156 -34q332 -20 542 361zM559 983q-137 2 -237.5 -88.5t-128.5 -243.5h669q3 65 -13 123t-51.5 105t-96.5 75t-142 29z" />
    <glyph glyph-name="f" unicode="f" horiz-adv-x="755" 
d="M741 1407q31 -13 46.5 -33.5t5.5 -44.5q-10 -25 -44.5 -23.5t-66.5 29.5q-47 41 -105.5 69.5t-109.5 16.5q-28 -7 -47 -20t-36.5 -42.5t-26.5 -83.5t-9 -134v-150h361v-18h-361v-832q0 -77 23 -101t100 -24h113v-16h-533v16h41q77 0 100 24t23 101v832h-174v18h174v43
q0 197 61 294t199 114q67 7 141 -4t125 -31z" />
    <glyph glyph-name="g" unicode="g" horiz-adv-x="1214" 
d="M702 -57q124 -8 201 -18t148 -29.5t105 -49.5t48.5 -78t1.5 -116q-23 -116 -123 -235t-235 -201.5t-262 -104.5q-49 -9 -104.5 -9.5t-111.5 7.5t-109.5 23.5t-98.5 41.5t-78 59t-49.5 78t-11.5 97q5 57 30 108.5t67 95t86.5 77.5t102.5 69q63 41 133 68q-317 28 -329 156
q-5 51 30 93.5t92.5 68.5t117.5 41t114 18q-152 31 -242 137.5t-90 257.5q0 179 122 293.5t314 114.5q78 0 170 -29q165 49 326 76q96 17 96 -43q0 -27 -25.5 -38t-86.5 -7q-235 12 -291 4q117 -46 183.5 -144t66.5 -227q0 -179 -123 -292t-316 -113q-24 0 -34 2
q-143 -8 -209 -35q-52 -22 -82 -49.5t-27 -57.5q7 -50 108 -70.5t375 -39.5zM272 598q0 -178 78.5 -282.5t220.5 -104.5q144 0 222.5 104.5t78.5 282.5t-78.5 282.5t-222.5 104.5q-142 0 -220.5 -104.5t-78.5 -282.5zM616 -795q124 12 230.5 58.5t174 110.5t103 138.5
t27.5 143.5q-5 38 -24 65.5t-51 43.5t-66.5 25.5t-81.5 13.5t-85 5t-87 2t-78 3q-150 6 -205 10q-160 -58 -299 -189q-89 -86 -84.5 -177t92.5 -154q78 -55 195.5 -82t238.5 -17z" />
    <glyph glyph-name="h" unicode="h" horiz-adv-x="1277" 
d="M1217 16h40v-16h-460v16h41q77 0 100 24t23 101v504q0 153 -76.5 243.5t-204.5 90.5q-97 0 -177.5 -54t-122.5 -131.5t-42 -156.5v-496q0 -77 23 -101t100 -24h41v-16h-461v16h41q77 0 100 24t23 101v1151q0 77 -22.5 100t-100.5 23h-41v19h297v-680q38 105 137 178.5
t230 73.5q178 0 283.5 -102t105.5 -286v-477q0 -77 23 -101t100 -24z" />
    <glyph glyph-name="i" unicode="i" horiz-adv-x="522" 
d="M461 16h41v-16h-461v16h41q77 0 100 24t23 101v709q0 77 -22.5 100t-100.5 23h-41v18h297v-850q0 -77 23 -101t100 -24zM260 1198q-40 0 -67 27t-27 67q0 39 27.5 66.5t66.5 27.5q38 0 66 -28t28 -66q0 -39 -27.5 -66.5t-66.5 -27.5z" />
    <glyph glyph-name="j" unicode="j" horiz-adv-x="499" 
d="M45 991h295v-956q0 -454 -289 -539q-46 -13 -113 -16.5t-120 4.5q-97 16 -92 67q3 65 90 37q10 -3 54.5 -28t89 -38.5t85.5 -6.5q57 11 90.5 53t53.5 155.5t20 311.5v815q0 77 -22.5 100t-100.5 23h-41v18zM262 1198q-39 0 -66.5 27.5t-27.5 66.5q0 38 28 66t66 28
q39 0 66.5 -27.5t27.5 -66.5q0 -40 -27 -67t-67 -27z" />
    <glyph glyph-name="k" unicode="k" horiz-adv-x="1204" 
d="M1153 16h31v-16h-213q-39 0 -65.5 20t-55.5 58q-23 35 -165 244t-169 247l-178 -172v-256q0 -77 23 -101t100 -24h41v-16h-461v16h41q77 0 100 24t23 101v1151q0 77 -22.5 100t-100.5 23h-41v19h297v-1012l461 442q49 46 42.5 77.5t-75.5 31.5h-41v18h352v-18h-41
q-37 0 -66.5 -7.5t-60 -28.5t-47 -35.5t-55.5 -51.5l-203 -197l350 -512q89 -125 199 -125z" />
    <glyph glyph-name="l" unicode="l" horiz-adv-x="520" 
d="M459 16h41v-16h-459v16h41q76 0 99.5 24t23.5 101v1151q0 76 -23.5 99.5t-99.5 23.5h-41v19h295v-1293q0 -77 23 -101t100 -24z" />
    <glyph glyph-name="m" unicode="m" horiz-adv-x="1888" 
d="M1827 16h41v-16h-461v16h41q77 0 100 24t23 101v504q0 155 -69 244.5t-193 89.5q-68 0 -124.5 -31.5t-91.5 -82t-54 -110t-19 -118.5v-496q0 -77 23 -101t100 -24h41v-16h-459v16h41q76 0 98.5 24t22.5 101v504q0 155 -69 244.5t-191 89.5q-69 0 -126 -31.5t-92 -82
t-54 -110t-19 -118.5v-496q0 -77 23.5 -101t99.5 -24h41v-16h-459v16h41q77 0 100 24t23 101v709q0 77 -22.5 100t-100.5 23h-41v18h295v-223q32 103 112 170.5t201 67.5q146 0 239.5 -72t121.5 -207q10 54 35.5 102.5t64.5 89t96.5 64t126.5 23.5q174 0 272.5 -101
t98.5 -287v-477q0 -77 23 -101t100 -24z" />
    <glyph glyph-name="n" unicode="n" horiz-adv-x="1275" 
d="M1214 16h41v-16h-458v16h41q76 0 99.5 24t23.5 101v504q0 153 -76.5 243.5t-204.5 90.5q-98 0 -178.5 -54t-122 -131.5t-41.5 -156.5v-496q0 -77 22.5 -101t98.5 -24h41v-16h-459v16h41q77 0 100 24t23 101v707q0 78 -22.5 101.5t-100.5 23.5h-41v18h297v-237
q36 105 135 178.5t229 73.5q180 0 285 -101.5t105 -286.5v-477q0 -77 22.5 -101t99.5 -24z" />
    <glyph glyph-name="o" unicode="o" horiz-adv-x="1171" 
d="M596 1006q236 0 385 -143.5t149 -366.5t-149 -365.5t-385 -142.5q-237 0 -386 142.5t-149 365.5q0 224 149 367t386 143zM596 6q188 0 295.5 133.5t107.5 356.5t-107.5 356t-295.5 133t-295.5 -133t-107.5 -356t107.5 -356.5t295.5 -133.5z" />
    <glyph glyph-name="p" unicode="p" horiz-adv-x="1251" 
d="M682 1006q117 3 216 -34.5t167 -106t106.5 -163.5t38.5 -206q0 -110 -38.5 -205.5t-106.5 -163t-167 -105t-216 -34.5q-113 3 -212.5 71.5t-131.5 167.5v-528q0 -78 22.5 -101.5t100.5 -23.5h112v-16h-532v16h41q78 0 100.5 23.5t22.5 101.5v1149q0 78 -22.5 101.5
t-100.5 23.5h-41v18h297v-227q32 99 131.5 169t212.5 73zM682 6q174 -4 284.5 133t110.5 357t-110 356t-285 133q-143 -4 -243.5 -98t-100.5 -211v-361q0 -117 100.5 -211t243.5 -98z" />
    <glyph glyph-name="q" unicode="q" horiz-adv-x="1230" 
d="M1190 -426h41v-16h-533v16h113q78 0 100.5 23.5t22.5 101.5v528q-32 -99 -131.5 -167.5t-212.5 -71.5q-156 -4 -277 61.5t-186.5 182t-65.5 264.5t65.5 265t187 183t276.5 62q114 -3 215.5 -76t132.5 -174l104 235h25v-1292q0 -78 22.5 -101.5t100.5 -23.5zM934 315v361
q0 117 -100.5 211t-243.5 98q-175 3 -285 -133t-110 -356t110.5 -357t284.5 -133q143 4 243.5 98t100.5 211z" />
    <glyph glyph-name="r" unicode="r" horiz-adv-x="884" 
d="M758 997q48 -6 69.5 -23.5t12.5 -51.5q-6 -30 -42 -38t-83 13q-43 21 -71.5 31.5t-64 15.5t-67.5 -7t-63 -42q-54 -50 -83.5 -141t-29.5 -174v-439q0 -77 23 -101t100 -24h112v-16h-530v16h41q76 0 99.5 24t23.5 101v707q0 78 -23 101.5t-100 23.5h-41v18h295v-291
q33 123 98 211q86 115 324 86z" />
    <glyph glyph-name="s" unicode="s" horiz-adv-x="905" 
d="M471 584q23 -10 72 -29t80 -32.5t74.5 -35t71 -44t53 -51.5t35.5 -65.5t5 -78.5q-10 -87 -66.5 -148t-139 -88t-181.5 -24q-74 2 -141 21.5t-104 41t-69.5 37.5t-49.5 14q-35 -7 -35 -90v-30h-15v411h15v-78q0 -73 37.5 -132.5t95.5 -95t120.5 -55.5t121.5 -22
q126 -6 219.5 42.5t99.5 142.5q2 31 -6 57t-31 49.5t-45.5 40.5t-67.5 38t-77.5 34t-93.5 37q-90 35 -149.5 66.5t-106 72.5t-64 92t-6.5 115q11 63 55 108t100.5 65.5t101.5 28.5t77 7q71 -2 128 -16.5t84.5 -30.5t50.5 -29.5t34 -14.5q28 0 28 58v39h13v-412h-13v78
q0 147 -75 223t-252 82q-92 3 -170.5 -46.5t-77.5 -137.5q0 -19 4 -35.5t14.5 -31.5t19 -26.5t28 -24.5l31.5 -21t38.5 -20t39.5 -18t44.5 -19t44.5 -19z" />
    <glyph glyph-name="t" unicode="t" horiz-adv-x="761" 
d="M711 180l10 -10q-3 -4 -21 -26.5t-31.5 -38.5t-38.5 -40t-48.5 -39t-55 -26.5t-63.5 -11.5q-138 0 -203 72.5t-65 230.5v682h-175v18q110 0 187.5 91.5t105.5 226.5h15v-318h305v-18h-305v-717q0 -136 42 -188t115 -52q28 0 55 9.5t46 21t41 33t32.5 34.5t29 37t22.5 29z
" />
    <glyph glyph-name="u" unicode="u" horiz-adv-x="1255" 
d="M1194 16h41v-16h-297v227q-32 -103 -118 -171t-212 -68q-191 0 -307.5 97t-116.5 286v477q0 78 -22.5 101.5t-100.5 23.5h-41v18h295v-645q0 -158 89 -246t231 -88q59 0 110 20.5t85.5 55t59.5 79t36.5 92t11.5 95.5v494q0 78 -22.5 101.5t-98.5 23.5h-41v18h295v-850
q0 -77 23 -101t100 -24z" />
    <glyph glyph-name="v" unicode="v" horiz-adv-x="1128" 
d="M819 991h289v-18h-14q-66 0 -97.5 -28t-60.5 -97l-361 -848h-22l-391 848q-36 77 -69.5 101t-110.5 24h-23v18h426v-18h-29q-75 0 -85.5 -26.5t26.5 -98.5l324 -692l292 692q30 76 10.5 100.5t-100.5 24.5h-4v18z" />
    <glyph glyph-name="w" unicode="w" horiz-adv-x="1650" 
d="M1341 991h289v-18h-14q-66 0 -96.5 -27.5t-57.5 -95.5l-327 -850h-25l-272 618l-263 -618h-22l-393 848q-35 76 -68.5 100.5t-109.5 24.5h-23v18h426v-18h-31q-74 0 -84 -27t25 -96l317 -711l213 504l-90 205q-33 76 -66.5 100.5t-109.5 24.5h-22v18h426v-18h-31
q-75 0 -86.5 -27t22.5 -96l301 -700l271 700q27 74 6.5 98.5t-100.5 24.5h-5v18z" />
    <glyph glyph-name="x" unicode="x" horiz-adv-x="1124" 
d="M1081 16h23v-16h-391v16h32q31 0 48 5t23.5 13.5t0.5 25.5t-17 34.5t-32 46.5l-240 326l-243 -326q-51 -65 -47 -95t67 -30h33v-16h-297v16h22q103 0 199 125l254 342l-270 365q-51 71 -85 98t-93 27h-23v18h391v-18h-33q-31 0 -48 -5t-23 -13t0 -25t17 -34t32 -46
l213 -291l209 289q49 66 44.5 95.5t-67.5 29.5h-32v18h294v-18h-22q-101 0 -193 -125l-221 -305l297 -402q31 -41 44 -56.5t35.5 -36t44.5 -26.5t54 -6z" />
    <glyph glyph-name="y" unicode="y" horiz-adv-x="1101" 
d="M793 991h288v-18h-16q-65 0 -97 -28.5t-61 -96.5l-358 -848q-50 -113 -102 -195t-101 -128.5t-101 -74t-101.5 -31t-102.5 0.5q-42 5 -62.5 18.5t-17.5 42.5t24.5 36.5t63.5 2.5q76 -13 138.5 -10t116.5 32t108 103t112 203l-360 848q-31 76 -64 100.5t-110 24.5h-23v18
h426v-18h-28q-76 0 -87.5 -26.5t21.5 -98.5l295 -690l291 690q30 76 11 100.5t-99 24.5h-4v18z" />
    <glyph glyph-name="z" unicode="z" horiz-adv-x="942" 
d="M862 354h19v-354h-820v23l652 944h-492q-72 0 -98.5 -45t-26.5 -131v-154h-16v354h764v-24l-651 -944h544q73 0 99 45.5t26 132.5v153z" />
    <glyph glyph-name="braceleft" unicode="{" horiz-adv-x="489" 
d="M428 1421q-184 0 -192 -118q-3 -46 15 -101.5t41 -100.5t40.5 -107t13.5 -120q-4 -53 -21.5 -94t-43 -64.5t-47 -35t-44.5 -18.5q23 -6 44.5 -18.5t47 -35.5t43 -64.5t21.5 -94.5q4 -58 -13.5 -120t-40.5 -107t-41 -100.5t-15 -101.5q8 -118 192 -118v-13
q-111 0 -177.5 42.5t-74.5 113.5q-13 114 82 311q33 70 37.5 126t-14 88t-38 48.5t-40.5 24.5q-31 12 -60 12v13q29 0 60 12q21 8 40.5 24.5t38 48.5t14 88t-37.5 126q-95 197 -82 311q8 71 74.5 113.5t177.5 42.5v-13z" />
    <glyph glyph-name="bar" unicode="|" horiz-adv-x="464" 
d="M184 1434h97v-1614h-97v1614z" />
    <glyph glyph-name="braceright" unicode="}" horiz-adv-x="489" 
d="M285 680q33 -12 61 -12v-13q-28 0 -61 -12q-16 -6 -31 -16.5t-33 -34t-25.5 -53t-0.5 -78t34 -105.5q95 -197 82 -311q-8 -71 -74.5 -113.5t-175.5 -42.5v13q183 0 193 118q3 46 -15 101.5t-42 100.5t-41.5 107t-12.5 120q4 53 21 94.5t43 64.5t47.5 35t44.5 19
q-23 7 -44.5 18.5t-47.5 35t-43 64.5t-21 94q-5 58 12.5 120t41.5 107t42 100.5t15 101.5q-10 118 -193 118v13q109 0 175.5 -42.5t74.5 -113.5q13 -114 -82 -311q-27 -57 -34 -105.5t0.5 -78t25.5 -53t33 -34t31 -16.5z" />
    <glyph glyph-name="asciitilde" unicode="~" horiz-adv-x="983" 
d="M842 715l18 -6q-24 -79 -91 -141t-138 -62q-52 0 -175.5 45t-166.5 49q-54 6 -85.5 -16t-60.5 -97l-20 9q4 12 12 30.5t33.5 59t52.5 59.5q35 24 70.5 36t103.5 7.5t154 -35.5q137 -46 204 -31t89 93z" />
    <glyph glyph-name="exclamdown" unicode="&#xa1;" horiz-adv-x="495" 
d="M244 426h14l92 -1057l-194 -88zM248 760q43 0 73.5 -30t30.5 -73q0 -41 -30.5 -70.5t-73.5 -29.5t-74 29.5t-31 70.5q0 43 31 73t74 30z" />
    <glyph glyph-name="cent" unicode="&#xa2;" 
d="M1163 633l11 -6q-17 -32 -34.5 -60t-50 -72.5t-66 -80.5t-82.5 -76t-100.5 -67t-118.5 -44.5t-138 -17.5h-25v-236h-24v238q-209 14 -338.5 137.5t-133.5 319.5q-4 211 134 370t338 183v239h24v-237q5 0 17 1t18 1q185 -5 319 -97q34 -24 42 -52.5t-9 -47.5
q-20 -27 -58.5 -15.5t-70.5 56.5q-91 135 -258 135v-923q30 -6 64 -9q330 -20 540 361zM184 707q18 -176 113 -282.5t238 -139.5v917q-165 -8 -268 -146.5t-83 -348.5z" />
    <glyph glyph-name="sterling" unicode="&#xa3;" horiz-adv-x="1263" 
d="M1204 289l19 -4q-40 -106 -132.5 -201.5t-177.5 -95.5q-48 0 -180 45t-198 49q-105 6 -187 -15.5t-194 -91.5l-15 13q300 268 215 567q-16 56 -43 137h-250v23h242q-4 12 -19 56.5t-18.5 55t-14.5 46t-13 48.5t-8 43t-5.5 47.5t0 44.5t3.5 52t10 53q18 79 64 138t109 91
t132.5 46.5t142.5 11.5q72 -3 131 -23t93 -45t59 -49.5t40.5 -39t24.5 -11.5q11 5 10 74v51v29h19v-484h-19v78q0 62 -9.5 115.5t-33.5 105t-61.5 88.5t-98.5 61t-139 27q-150 6 -246.5 -85.5t-88.5 -227.5q3 -49 18 -110.5t41.5 -147.5t40.5 -139h463v-23h-459
q19 -79 25 -153q21 -249 -246 -476q130 80 174 97q180 72 389 6q153 -52 247.5 -24t143.5 147z" />
    <glyph glyph-name="currency" unicode="&#xa4;" horiz-adv-x="1234" 
d="M1153 717q0 -111 -39.5 -205.5t-112.5 -161.5l150 -151l-16 -17l-152 152q-144 -125 -365 -125q-222 0 -366 125l-152 -152l-16 17l149 151q-73 67 -112 161t-39 206q0 224 151 366l-149 152l16 16l152 -151q147 125 366 125q218 0 365 -125l152 151l16 -16l-150 -152
q152 -143 152 -366zM618 227q188 0 296 134t108 356t-108 355.5t-296 133.5q-189 0 -296 -133t-107 -356t107 -356.5t296 -133.5z" />
    <glyph glyph-name="yen" unicode="&#xa5;" horiz-adv-x="1388" 
d="M979 1434h389v-19h-41q-39 0 -63 -5t-44.5 -23.5t-31.5 -34t-37 -58.5l-375 -696v-16h314v-23h-314v-143h314v-25h-314v-250q0 -77 23 -101t100 -24h41v-16h-461v16h41q77 0 100 24t23 101v250h-313v25h313v143h-313v23h303l-422 710q-49 74 -68 91q-36 32 -100 32h-23
v19h443v-19h-41q-78 0 -93 -26.5t25 -96.5l406 -682l368 688q15 34 16.5 56.5t-15 36t-43 19t-66.5 5.5h-41v19z" />
    <glyph glyph-name="brokenbar" unicode="&#xa6;" horiz-adv-x="466" 
d="M184 -180v610h99v-610h-99zM184 1434h99v-611h-99v611z" />
    <glyph glyph-name="section" unicode="&#xa7;" horiz-adv-x="1245" 
d="M1137 590q-21 -149 -138 -246q33 -79 15 -188q-14 -71 -56.5 -128t-100 -90t-121 -50t-124.5 -15q-70 2 -132.5 21t-102.5 44t-70.5 49.5t-50 39.5t-27.5 12q-9 -4 -10.5 -20t-1.5 -73v-32v-29h-16v256v228h16v-76q0 -75 24.5 -143.5t72 -124.5t125 -91.5t175.5 -39.5
q134 -5 218.5 62t93.5 187q9 102 -74 183t-277 161q-67 28 -119 52t-99.5 49t-81.5 47.5t-64.5 47.5t-48.5 49.5t-33 53t-19 58t-6.5 64.5t5.5 73q22 151 137 244q-33 80 -15 190q14 71 56.5 128t100 90t121 49t124.5 14q70 -2 132.5 -20.5t102.5 -43.5t70.5 -49t50 -39
t27.5 -12q9 4 10.5 20t1.5 73v10.5v10v11.5v29h16v-259v-225h-16v76q0 75 -24.5 143.5t-72 124.5t-125 91.5t-175.5 39.5q-134 5 -218.5 -62.5t-93.5 -187.5q-9 -102 74 -183t279 -163q67 -28 118.5 -51.5t99 -48t81.5 -47t64.5 -47.5t48 -49t33 -52.5t19.5 -58t6.5 -64.5
t-5.5 -73zM668 608q244 -113 313 -227q51 69 63 170q6 46 -3.5 86t-27.5 71t-50 60t-63.5 49t-77.5 42.5t-80.5 36.5t-84.5 34t-79 33q-244 113 -314 225q-51 -65 -63 -168q-6 -46 3.5 -86.5t27.5 -71.5t50.5 -60t64 -49t77 -42t80.5 -36l85 -34t79 -33z" />
    <glyph glyph-name="dieresis" unicode="&#xa8;" horiz-adv-x="606" 
d="M145 1434q43 0 73 -30t30 -71t-30 -70.5t-73 -29.5t-73.5 29.5t-30.5 70.5t30.5 71t73.5 30zM461 1434q43 0 73.5 -30t30.5 -71t-30.5 -70.5t-73.5 -29.5t-73 29.5t-30 70.5t30 71t73 30z" />
    <glyph glyph-name="copyright" unicode="&#xa9;" horiz-adv-x="1533" 
d="M801 258q106 -6 188.5 45t130.5 135l6 -4q-55 -94 -145.5 -149.5t-214.5 -48.5q-103 5 -190 49.5t-143.5 128t-61.5 190.5q-6 170 112.5 293t290.5 119q57 -1 106 -15.5t75.5 -31t48.5 -29.5t32 -12q8 1 10.5 17.5t2.5 58.5v16h10v-260h-10v41q0 85 -81.5 146.5
t-209.5 58.5q-138 -3 -225 -106.5t-84 -260.5q2 -89 32.5 -161.5t80.5 -118t111 -71.5t128 -30zM768 1331q143 0 273.5 -55.5t225 -150t150.5 -225t56 -273.5q0 -191 -94.5 -353.5t-257 -257t-353.5 -94.5t-354 94.5t-258 257t-95 353.5q0 143 56 273.5t151 225t226 150
t274 55.5zM768 -61q140 0 267 54.5t218.5 147t146 219.5t54.5 267t-54.5 267t-146 219.5t-218.5 147t-267 54.5q-186 0 -344.5 -92.5t-251 -251t-92.5 -344.5t92.5 -344.5t251 -251t344.5 -92.5z" />
    <glyph glyph-name="guillemotleft" unicode="&#xab;" horiz-adv-x="673" 
d="M309 958l13 -8l-132 -383l132 -381l-13 -8l-207 389zM551 950l-131 -383l131 -381l-12 -8l-207 389l207 391z" />
    <glyph glyph-name="registered" unicode="&#xae;" horiz-adv-x="1533" 
d="M1098 266q31 -4 60 20t48 62l8 -4q-18 -39 -51.5 -66.5t-79.5 -23.5q-61 4 -97.5 51t-63.5 148q-7 29 -16 51.5t-17.5 39.5t-22 30t-23 21.5t-28.5 14.5t-31 9t-36.5 4.5t-39.5 1.5h-46h-74v-289q0 -42 12 -55t53 -13h60v-8h-285v8h23q41 0 53 13t12 55v616q0 42 -12 55
t-53 13h-23v8h303q143 0 217 -51t74 -150q0 -171 -211 -198q136 -18 178 -135q9 -24 18 -59.5t15.5 -60.5t16 -50t24 -40t35.5 -18zM588 1016v-379h125q233 0 233 190q0 189 -233 189h-125zM768 1331q143 0 273.5 -55.5t225 -150t150.5 -225t56 -273.5q0 -191 -94.5 -353.5
t-257 -257t-353.5 -94.5t-354 94.5t-258 257t-95 353.5q0 143 56 273.5t151 225t226 150t274 55.5zM768 -61q140 0 267 54.5t218.5 147t146 219.5t54.5 267t-54.5 267t-146 219.5t-218.5 147t-267 54.5q-186 0 -344.5 -92.5t-251 -251t-92.5 -344.5t92.5 -344.5t251 -251
t344.5 -92.5z" />
    <glyph glyph-name="macron" unicode="&#xaf;" horiz-adv-x="780" 
d="M41 1356h698v-25h-698v25z" />
    <glyph glyph-name="degree" unicode="&#xb0;" horiz-adv-x="845" 
d="M424 1448q128 0 223.5 -84t95.5 -215q0 -130 -95 -212.5t-224 -82.5t-225.5 82.5t-96.5 212.5t97 214.5t225 84.5zM424 872q89 0 144 75.5t55 201.5t-55 202t-144 76t-144 -76t-55 -202t55 -201.5t144 -75.5z" />
    <glyph glyph-name="plusminus" unicode="&#xb1;" horiz-adv-x="980" 
d="M502 811h356v-23h-356v-356h-25v356h-354v23h354v356h25v-356zM123 289v24h735v-24h-735z" />
    <glyph glyph-name="acute" unicode="&#xb4;" horiz-adv-x="403" 
d="M352 1413q30 -38 -39 -82l-266 -155l-6 8q178 176 223 215q59 54 88 14z" />
    <glyph glyph-name="paragraph" unicode="&#xb6;" horiz-adv-x="1208" 
d="M446 1434h721v-19h-41q-87 0 -131.5 -26t-44.5 -97v-1292h-24v1409h-357v-1409h-24v702h-99q-151 0 -257.5 107.5t-106.5 259.5q0 151 106.5 258t257.5 107z" />
    <glyph glyph-name="cedilla" unicode="&#xb8;" horiz-adv-x="393" 
d="M227 -100q56 -7 91.5 -33.5t31.5 -73.5q-6 -56 -58 -83t-120 -27q-35 0 -75 16t-56 41l8 6q13 -22 52 -38.5t77 -12.5q36 4 58.5 29.5t27.5 64.5q9 85 -55 94q-44 7 -92 -18l-4 4l47 131h8l-43 -119q46 22 102 19z" />
    <glyph glyph-name="guillemotright" unicode="&#xbb;" horiz-adv-x="671" 
d="M362 958l207 -391l-207 -389l-12 8l131 381l-131 383zM123 950l10 8l207 -391l-207 -389l-10 8l129 381z" />
    <glyph glyph-name="questiondown" unicode="&#xbf;" horiz-adv-x="1001" 
d="M842 -205h16v-483h-16v29q0 104 -3 114q-4 8 -10 10q-10 3 -22 -11.5t-31 -38.5t-47.5 -48.5t-83.5 -44t-127 -22.5q-98 -4 -185 22.5t-155 93.5t-88 166q-6 30 -6.5 58t4 53t14.5 50.5t23 48t30.5 49t36.5 50.5t42 54t45.5 58.5t49 66t50.5 73.5q47 72 108.5 160
t85.5 123l15 -10q-45 -71 -99.5 -152t-91.5 -139q-97 -155 -135 -267.5t-29 -224.5q6 -62 25.5 -117.5t54.5 -102t92.5 -72t129.5 -21.5q307 20 307 399v76zM512 557q-43 0 -72.5 29.5t-29.5 70.5q0 43 29.5 73t72.5 30t73.5 -30t30.5 -73q0 -41 -30.5 -70.5t-73.5 -29.5z
" />
    <glyph glyph-name="Agrave" unicode="&#xc0;" horiz-adv-x="1509" 
d="M1466 16h23v-16h-442v16h40q74 0 83 26t-27 99l-142 336h-632l-131 -336q-28 -77 -9.5 -101t97.5 -24h41v-16h-347v16h35q66 0 99 28t61 97l500 1293h24l547 -1293q34 -76 68.5 -100.5t111.5 -24.5zM379 502h612l-321 753zM676 1808l223 -215l-6 -8q-217 125 -266 156
q-69 44 -39 82q28 39 88 -15z" />
    <glyph glyph-name="Aacute" unicode="&#xc1;" horiz-adv-x="1509" 
d="M1466 16h23v-16h-442v16h40q74 0 83 26t-27 99l-142 336h-632l-131 -336q-28 -77 -9.5 -101t97.5 -24h41v-16h-347v16h35q66 0 99 28t61 97l500 1293h24l547 -1293q34 -76 68.5 -100.5t111.5 -24.5zM379 502h612l-321 753zM881 1823q30 -38 -39 -82l-267 -156l-6 8
q179 176 224 215q60 54 88 15z" />
    <glyph glyph-name="Acircumflex" unicode="&#xc2;" horiz-adv-x="1509" 
d="M1466 16h23v-16h-442v16h40q74 0 83 26t-27 99l-142 336h-632l-131 -336q-28 -77 -9.5 -101t97.5 -24h41v-16h-347v16h35q66 0 99 28t61 97l500 1293h24l547 -1293q34 -76 68.5 -100.5t111.5 -24.5zM379 502h612l-321 753zM735 1870l299 -250l-6 -12l-293 159l-293 -159
l-8 12z" />
    <glyph glyph-name="Atilde" unicode="&#xc3;" horiz-adv-x="1509" 
d="M1466 16h23v-16h-442v16h40q74 0 83 26t-27 99l-142 336h-632l-131 -336q-28 -77 -9.5 -101t97.5 -24h41v-16h-347v16h35q66 0 99 28t61 97l500 1293h24l547 -1293q34 -76 68.5 -100.5t111.5 -24.5zM379 502h612l-321 753zM1038 1858l17 -5q-21 -69 -79.5 -123.5
t-119.5 -54.5q-45 0 -153 40t-144 44q-47 5 -74.5 -14.5t-52.5 -83.5l-18 6q4 10 11 26.5t29 51.5t46 51q30 22 61 32t89.5 6.5t133.5 -30.5q120 -40 177.5 -26.5t76.5 80.5z" />
    <glyph glyph-name="Adieresis" unicode="&#xc4;" horiz-adv-x="1509" 
d="M1466 16h23v-16h-442v16h40q74 0 83 26t-27 99l-142 336h-632l-131 -336q-28 -77 -9.5 -101t97.5 -24h41v-16h-347v16h35q66 0 99 28t61 97l500 1293h24l547 -1293q34 -76 68.5 -100.5t111.5 -24.5zM379 502h612l-321 753zM575 1843q43 0 73 -29.5t30 -70.5t-30 -71
t-73 -30t-73.5 30t-30.5 71t30.5 70.5t73.5 29.5zM891 1843q43 0 73.5 -29.5t30.5 -70.5t-30.5 -71t-73.5 -30t-73 30t-30 71t30 70.5t73 29.5z" />
    <glyph glyph-name="Aring" unicode="&#xc5;" horiz-adv-x="1509" 
d="M1466 16h23v-16h-442v16h40q74 0 83 26t-27 99l-142 336h-632l-131 -336q-28 -77 -9.5 -101t97.5 -24h41v-16h-347v16h35q66 0 99 28t61 97l500 1293h24l547 -1293q34 -76 68.5 -100.5t111.5 -24.5zM379 502h612l-321 753zM735 1950q77 0 135 -51t58 -130
q0 -77 -58 -127.5t-135 -50.5q-78 0 -136 50.5t-58 127.5q0 79 58 130t136 51zM735 1604q53 0 86 44.5t33 120.5t-33 122t-86 46q-54 0 -87.5 -46t-33.5 -122t33 -120.5t88 -44.5z" />
    <glyph glyph-name="AE" unicode="&#xc6;" horiz-adv-x="2101" 
d="M1970 406h19v-406h-1086v16h41q77 0 100 24t23 101v336h-569l-222 -336q-50 -75 -40 -100t88 -25h41v-16h-345v16h33q67 0 111 29.5t86 95.5l780 1188q29 43 14 64q-20 22 -100 22h-41v19h1049v-406h-17v219q0 84 -26.5 123t-98.5 39h-610v-670h416q73 0 99 42t26 128v41
h16v-442h-16v39q0 86 -26 128t-99 42h-416v-694h645q74 0 99.5 39t25.5 124v220zM512 502h555v846z" />
    <glyph glyph-name="Ccedilla" unicode="&#xc7;" horiz-adv-x="1533" 
d="M1473 362q-46 -81 -108.5 -148t-143 -120t-184 -81.5t-218.5 -24.5l-39 -107q46 22 103 19q56 -7 91.5 -33.5t29.5 -73.5q-4 -56 -57.5 -83t-121.5 -27q-33 0 -73 16t-56 41l9 6q13 -22 52 -38.5t77 -12.5q36 4 58 29.5t28 64.5q9 85 -56 94q-44 7 -92 -18l-4 4l43 119
h-12q-113 7 -219.5 40.5t-198 93.5t-161 140t-111 186.5t-46.5 227.5q-7 155 50 299t158 249t244.5 166.5t301.5 57.5q85 -2 161.5 -20.5t126 -43t88.5 -48.5t66.5 -39t43.5 -13q17 1 20.5 24t3.5 89v26v29h19v-483h-19v78q0 157 -152 270.5t-391 109.5q-169 -3 -302 -92.5
t-205 -245.5t-68 -348q2 -133 40 -247t101 -195t146.5 -140t177 -90t192.5 -36q199 -10 351.5 84.5t240.5 253.5z" />
    <glyph glyph-name="Egrave" unicode="&#xc8;" horiz-adv-x="1247" 
d="M1106 406h18v-406h-1083v16h41q77 0 100 24t23 101v1149q0 78 -22.5 101.5t-100.5 23.5h-41v19h1046v-406h-16v219q0 85 -25.5 123.5t-99.5 38.5h-608v-670h414q73 0 99 42t26 128v41h18v-442h-18v39q0 86 -26 128t-99 42h-414v-692h645q72 0 97.5 38.5t25.5 122.5v220z
M565 1808l223 -215l-6 -8q-217 125 -266 156q-69 44 -39 82q28 39 88 -15z" />
    <glyph glyph-name="Eacute" unicode="&#xc9;" horiz-adv-x="1247" 
d="M1106 406h18v-406h-1083v16h41q77 0 100 24t23 101v1149q0 78 -22.5 101.5t-100.5 23.5h-41v19h1046v-406h-16v219q0 85 -25.5 123.5t-99.5 38.5h-608v-670h414q73 0 99 42t26 128v41h18v-442h-18v39q0 86 -26 128t-99 42h-414v-692h645q72 0 97.5 38.5t25.5 122.5v220z
M770 1823q30 -38 -39 -82l-266 -156l-6 8q178 176 223 215q60 54 88 15z" />
    <glyph glyph-name="Ecircumflex" unicode="&#xca;" horiz-adv-x="1247" 
d="M1106 406h18v-406h-1083v16h41q77 0 100 24t23 101v1149q0 78 -22.5 101.5t-100.5 23.5h-41v19h1046v-406h-16v219q0 85 -25.5 123.5t-99.5 38.5h-608v-670h414q73 0 99 42t26 128v41h18v-442h-18v39q0 86 -26 128t-99 42h-414v-692h645q72 0 97.5 38.5t25.5 122.5v220z
M625 1870l299 -250l-6 -12l-293 159l-293 -159l-8 12z" />
    <glyph glyph-name="Edieresis" unicode="&#xcb;" horiz-adv-x="1247" 
d="M1106 406h18v-406h-1083v16h41q77 0 100 24t23 101v1149q0 78 -22.5 101.5t-100.5 23.5h-41v19h1046v-406h-16v219q0 85 -25.5 123.5t-99.5 38.5h-608v-670h414q73 0 99 42t26 128v41h18v-442h-18v39q0 86 -26 128t-99 42h-414v-692h645q72 0 97.5 38.5t25.5 122.5v220z
M465 1843q43 0 72.5 -29.5t29.5 -70.5t-29.5 -71t-72.5 -30t-74 30t-31 71t31 70.5t74 29.5zM780 1843q43 0 74 -29.5t31 -70.5t-31 -71t-74 -30q-42 0 -72 30t-30 71t29.5 70.5t72.5 29.5z" />
    <glyph glyph-name="Igrave" unicode="&#xcc;" horiz-adv-x="540" 
d="M459 1415q-78 0 -100.5 -23.5t-22.5 -101.5v-1149q0 -77 23 -101t100 -24h41v-16h-459v16h41q77 0 100 24t23 101v1149q0 78 -22.5 101.5t-100.5 23.5h-41v19h459v-19h-41zM211 1808l223 -215l-6 -8q-217 125 -266 156q-69 44 -39 82q28 39 88 -15z" />
    <glyph glyph-name="Iacute" unicode="&#xcd;" horiz-adv-x="540" 
d="M459 1415q-78 0 -100.5 -23.5t-22.5 -101.5v-1149q0 -77 23 -101t100 -24h41v-16h-459v16h41q77 0 100 24t23 101v1149q0 78 -22.5 101.5t-100.5 23.5h-41v19h459v-19h-41zM416 1823q30 -38 -39 -82l-266 -156l-7 8q179 176 224 215q60 54 88 15z" />
    <glyph glyph-name="Icircumflex" unicode="&#xce;" horiz-adv-x="540" 
d="M459 1415q-78 0 -100.5 -23.5t-22.5 -101.5v-1149q0 -77 23 -101t100 -24h41v-16h-459v16h41q77 0 100 24t23 101v1149q0 78 -22.5 101.5t-100.5 23.5h-41v19h459v-19h-41zM272 1870l299 -250l-6 -12l-293 159l-292 -159l-9 12z" />
    <glyph glyph-name="Idieresis" unicode="&#xcf;" horiz-adv-x="540" 
d="M459 1415q-78 0 -100.5 -23.5t-22.5 -101.5v-1149q0 -77 23 -101t100 -24h41v-16h-459v16h41q77 0 100 24t23 101v1149q0 78 -22.5 101.5t-100.5 23.5h-41v19h459v-19h-41zM113 1843q43 0 72.5 -29.5t29.5 -70.5t-29.5 -71t-72.5 -30t-74 30t-31 71t31 70.5t74 29.5z
M428 1843q43 0 73.5 -29.5t30.5 -70.5t-30.5 -71t-73.5 -30q-42 0 -72 30t-30 71t29.5 70.5t72.5 29.5z" />
    <glyph glyph-name="Eth" unicode="&#xd0;" horiz-adv-x="1517" 
d="M662 1434q186 0 338 -56.5t251 -154t152 -227.5t53 -279t-53 -279t-152 -227.5t-251 -154t-338 -56.5h-324h-297v16h41q77 0 100 24t23 101v576h-164v22h164v553q0 77 -22.5 100t-100.5 23h-41v19h621zM625 25q177 0 312 54.5t215.5 151t120.5 219t40 267.5t-40 267.5
t-120.5 219t-215.5 151t-312 54.5h-287v-670h438v-22h-438v-692h287z" />
    <glyph glyph-name="Ntilde" unicode="&#xd1;" horiz-adv-x="1642" 
d="M1143 1434h459v-19h-41q-86 0 -131.5 -26t-45.5 -97v-1292h-24l-1077 1341v-1200q0 -71 45.5 -98t130.5 -27h41v-16h-459v16h41q86 0 131 26.5t45 98.5v1151q0 71 -44.5 97t-131.5 26h-41v19h352l967 -1201v1059q0 71 -44.5 97t-131.5 26h-41v19zM1145 1858l16 -5
q-21 -69 -79 -123.5t-119 -54.5q-45 0 -153 40t-144 44q-47 5 -74.5 -14.5t-52.5 -83.5l-19 6q4 10 11 26.5t29 51.5t46 51q30 22 61.5 32t90 6.5t133.5 -30.5q120 -40 177.5 -26.5t76.5 80.5z" />
    <glyph glyph-name="Ograve" unicode="&#xd2;" horiz-adv-x="1646" 
d="M823 1448q225 0 399.5 -95.5t268.5 -261.5t94 -374t-94 -373.5t-268.5 -260.5t-399.5 -95q-170 0 -313 55.5t-241.5 152t-153 231t-54.5 290.5t55 290.5t153 232t241 153t313 55.5zM823 10q188 0 330 89.5t217.5 249.5t75.5 368t-75.5 368t-217.5 249t-330 89
q-283 0 -452.5 -195t-169.5 -511t169.5 -511.5t452.5 -195.5zM764 1808l223 -215l-6 -8q-217 125 -266 156q-69 44 -39 82q28 39 88 -15z" />
    <glyph glyph-name="Oacute" unicode="&#xd3;" horiz-adv-x="1646" 
d="M823 1448q225 0 399.5 -95.5t268.5 -261.5t94 -374t-94 -373.5t-268.5 -260.5t-399.5 -95q-170 0 -313 55.5t-241.5 152t-153 231t-54.5 290.5t55 290.5t153 232t241 153t313 55.5zM823 10q188 0 330 89.5t217.5 249.5t75.5 368t-75.5 368t-217.5 249t-330 89
q-283 0 -452.5 -195t-169.5 -511t169.5 -511.5t452.5 -195.5zM969 1823q30 -38 -39 -82l-266 -156l-7 8q179 176 224 215q60 54 88 15z" />
    <glyph glyph-name="Ocircumflex" unicode="&#xd4;" horiz-adv-x="1646" 
d="M823 1448q225 0 399.5 -95.5t268.5 -261.5t94 -374t-94 -373.5t-268.5 -260.5t-399.5 -95q-170 0 -313 55.5t-241.5 152t-153 231t-54.5 290.5t55 290.5t153 232t241 153t313 55.5zM823 10q188 0 330 89.5t217.5 249.5t75.5 368t-75.5 368t-217.5 249t-330 89
q-283 0 -452.5 -195t-169.5 -511t169.5 -511.5t452.5 -195.5zM823 1870l299 -250l-6 -12l-293 159l-293 -159l-8 12z" />
    <glyph glyph-name="Otilde" unicode="&#xd5;" horiz-adv-x="1646" 
d="M823 1448q225 0 399.5 -95.5t268.5 -261.5t94 -374t-94 -373.5t-268.5 -260.5t-399.5 -95q-170 0 -313 55.5t-241.5 152t-153 231t-54.5 290.5t55 290.5t153 232t241 153t313 55.5zM823 10q188 0 330 89.5t217.5 249.5t75.5 368t-75.5 368t-217.5 249t-330 89
q-283 0 -452.5 -195t-169.5 -511t169.5 -511.5t452.5 -195.5zM1126 1858l17 -5q-21 -69 -79.5 -123.5t-119.5 -54.5q-45 0 -153 40t-144 44q-47 5 -74.5 -14.5t-52.5 -83.5l-18 6q4 10 11 26.5t29 51.5t46 51q30 22 61 32t89.5 6.5t133.5 -30.5q120 -40 177.5 -26.5
t76.5 80.5z" />
    <glyph glyph-name="Odieresis" unicode="&#xd6;" horiz-adv-x="1646" 
d="M823 1448q225 0 399.5 -95.5t268.5 -261.5t94 -374t-94 -373.5t-268.5 -260.5t-399.5 -95q-170 0 -313 55.5t-241.5 152t-153 231t-54.5 290.5t55 290.5t153 232t241 153t313 55.5zM823 10q188 0 330 89.5t217.5 249.5t75.5 368t-75.5 368t-217.5 249t-330 89
q-283 0 -452.5 -195t-169.5 -511t169.5 -511.5t452.5 -195.5zM666 1843q43 0 72.5 -29.5t29.5 -70.5t-30 -71t-72 -30q-43 0 -74 30t-31 71t31 70.5t74 29.5zM981 1843q43 0 73.5 -29.5t30.5 -70.5t-30.5 -71t-73.5 -30t-72.5 30t-29.5 71t29.5 70.5t72.5 29.5z" />
    <glyph glyph-name="multiply" unicode="&#xd7;" horiz-adv-x="782" 
d="M659 907l-251 -250l251 -251l-16 -17l-252 250l-252 -250l-16 17l252 251l-252 250l16 19l252 -252l252 252z" />
    <glyph glyph-name="Oslash" unicode="&#xd8;" horiz-adv-x="1646" 
d="M1368 1245q105 -99 161 -234t56 -294q0 -208 -94 -373.5t-268.5 -260.5t-399.5 -95q-318 0 -528 184l-141 -141l-17 16l142 141q-105 99 -161.5 234.5t-56.5 294.5q0 156 55 290.5t153 232t241 153t313 55.5q315 0 527 -186l143 141l16 -17zM201 717q0 -281 137 -469
l956 956q-83 105 -203 162t-268 57q-283 0 -452.5 -195t-169.5 -511zM823 10q188 0 330 89.5t217.5 249.5t75.5 368q0 281 -137 469l-957 -957q83 -105 203 -162t268 -57z" />
    <glyph glyph-name="Ugrave" unicode="&#xd9;" horiz-adv-x="1550" 
d="M1049 1434h460v-19h-41q-87 0 -132.5 -26t-45.5 -97v-725q0 -84 -15 -162.5t-51.5 -155.5t-91.5 -134t-142 -92t-195 -35q-123 0 -227.5 35t-186.5 105t-129 187.5t-47 270.5v706q0 77 -22.5 100t-100.5 23h-41v19h461v-19h-41q-78 0 -100.5 -23t-22.5 -100v-706
q0 -148 39 -256t109 -169.5t158 -89.5t196 -26q192 5 310 147t118 375v725q0 71 -45.5 97t-132.5 26h-41v19zM717 1808l223 -215l-6 -8q-217 125 -266 156q-69 44 -39 82q28 39 88 -15z" />
    <glyph glyph-name="Uacute" unicode="&#xda;" horiz-adv-x="1550" 
d="M1049 1434h460v-19h-41q-87 0 -132.5 -26t-45.5 -97v-725q0 -84 -15 -162.5t-51.5 -155.5t-91.5 -134t-142 -92t-195 -35q-123 0 -227.5 35t-186.5 105t-129 187.5t-47 270.5v706q0 77 -22.5 100t-100.5 23h-41v19h461v-19h-41q-78 0 -100.5 -23t-22.5 -100v-706
q0 -148 39 -256t109 -169.5t158 -89.5t196 -26q192 5 310 147t118 375v725q0 71 -45.5 97t-132.5 26h-41v19zM942 1823q30 -38 -39 -82l-266 -156l-6 8q178 176 223 215q60 54 88 15z" />
    <glyph glyph-name="Ucircumflex" unicode="&#xdb;" horiz-adv-x="1550" 
d="M1049 1434h460v-19h-41q-87 0 -132.5 -26t-45.5 -97v-725q0 -84 -15 -162.5t-51.5 -155.5t-91.5 -134t-142 -92t-195 -35q-123 0 -227.5 35t-186.5 105t-129 187.5t-47 270.5v706q0 77 -22.5 100t-100.5 23h-41v19h461v-19h-41q-78 0 -100.5 -23t-22.5 -100v-706
q0 -148 39 -256t109 -169.5t158 -89.5t196 -26q192 5 310 147t118 375v725q0 71 -45.5 97t-132.5 26h-41v19zM797 1870l299 -250l-6 -12l-293 159l-293 -159l-8 12z" />
    <glyph glyph-name="Udieresis" unicode="&#xdc;" horiz-adv-x="1550" 
d="M1049 1434h460v-19h-41q-87 0 -132.5 -26t-45.5 -97v-725q0 -84 -15 -162.5t-51.5 -155.5t-91.5 -134t-142 -92t-195 -35q-123 0 -227.5 35t-186.5 105t-129 187.5t-47 270.5v706q0 77 -22.5 100t-100.5 23h-41v19h461v-19h-41q-78 0 -100.5 -23t-22.5 -100v-706
q0 -148 39 -256t109 -169.5t158 -89.5t196 -26q192 5 310 147t118 375v725q0 71 -45.5 97t-132.5 26h-41v19zM637 1843q43 0 72.5 -29.5t29.5 -70.5t-29.5 -71t-72.5 -30t-74 30t-31 71t31 70.5t74 29.5zM952 1843q43 0 74 -29.5t31 -70.5t-31 -71t-74 -30q-42 0 -72 30
t-30 71t29.5 70.5t72.5 29.5z" />
    <glyph glyph-name="Yacute" unicode="&#xdd;" horiz-adv-x="1386" 
d="M979 1434h387v-19h-41q-38 0 -62 -5t-44.5 -23t-32.5 -35t-37 -58l-375 -696v-457q0 -77 23.5 -101t99.5 -24h41v-16h-459v16h41q77 0 100 24t23 101v422l-434 729q-48 73 -64 88q-37 35 -102 35h-23v19h441v-19h-41q-77 0 -91.5 -26.5t23.5 -96.5l406 -682l368 688
q17 33 17.5 56t-16 36t-43 19t-66.5 6h-39v19zM881 1823q30 -38 -39 -82l-267 -156l-6 8q179 176 224 215q60 54 88 15z" />
    <glyph glyph-name="Thorn" unicode="&#xde;" horiz-adv-x="1208" 
d="M569 1147q280 0 429 -108t149 -322t-149 -322t-429 -108h-233v-146q0 -77 23 -101t100 -24h41v-16h-459v16h41q76 0 98.5 24t22.5 101v1151q0 77 -22.5 100t-98.5 23h-41v19h459v-19h-41q-78 0 -100.5 -23t-22.5 -100v-145h233zM535 311q112 0 196.5 22t136 58t83.5 90
t43.5 110t11.5 126q0 69 -11.5 125t-43.5 110t-83.5 90t-136 58t-196.5 22h-199v-811h199z" />
    <glyph glyph-name="germandbls" unicode="&#xdf;" horiz-adv-x="1382" 
d="M967 717q123 -54 202.5 -107.5t117.5 -106t48.5 -108.5t-4.5 -116q-25 -122 -128 -206.5t-259 -84.5q-90 0 -162 19.5t-113.5 47t-71 55t-49.5 44.5t-34 14q-18 -3 -21.5 -29t-3.5 -112v-27h-16v481h16v-75q0 -157 110.5 -272t311.5 -124q153 -7 242 63t94 189
q2 35 -8 67t-26 58t-45 52t-56 45.5t-69 43t-73 39.5t-79 39q-26 13 -39 19q-153 77 -184 156t32 194q34 70 42.5 143t-7.5 132t-49 103t-84 62.5t-110 5.5q-30 -7 -53 -20t-48 -42t-39 -84.5t-14 -133.5v-1141h-297v16h41q77 0 100 24t23 101v893q0 364 295 408
q75 11 142 -6.5t114 -54.5t76.5 -89t34.5 -106.5t-18 -110t-75 -98.5q-44 -36 -63.5 -62t-20 -45t24 -37t60 -34.5t95.5 -41.5q62 -25 97 -40z" />
    <glyph glyph-name="agrave" unicode="&#xe0;" horiz-adv-x="1114" 
d="M1104 115l10 -9q-31 -46 -81.5 -82t-112.5 -36q-77 0 -121.5 45t-44.5 133v156q-7 -36 -22 -76t-44 -85.5t-66.5 -82t-93.5 -62t-120 -28.5q-63 -3 -123.5 10t-112 41t-84.5 78t-35 114q-2 63 19.5 111.5t56 79.5t93 55t113.5 37.5t134 26.5q218 37 285 157
q0 88 -18.5 147.5t-53.5 89.5t-75.5 42t-94.5 12q-38 0 -72.5 -16.5t-53.5 -34t-51 -52t-46 -48.5q-37 -36 -68.5 -39.5t-48.5 20.5q-15 19 -7 44t36 44q70 43 154 71t161 28q369 0 369 -377v-475q0 -75 15.5 -107t47.5 -35q36 -4 81 26t75 77zM754 420v254
q-24 -28 -37.5 -40.5t-49 -37t-90.5 -43t-133 -33.5q-284 -61 -272 -280q7 -116 90.5 -173.5t200.5 -46.5q122 12 206.5 135t84.5 265zM504 1399l223 -215l-6 -8q-217 124 -266 155q-69 44 -39 82q29 40 88 -14z" />
    <glyph glyph-name="aacute" unicode="&#xe1;" horiz-adv-x="1114" 
d="M1104 115l10 -9q-31 -46 -81.5 -82t-112.5 -36q-77 0 -121.5 45t-44.5 133v156q-7 -36 -22 -76t-44 -85.5t-66.5 -82t-93.5 -62t-120 -28.5q-63 -3 -123.5 10t-112 41t-84.5 78t-35 114q-2 63 19.5 111.5t56 79.5t93 55t113.5 37.5t134 26.5q218 37 285 157
q0 88 -18.5 147.5t-53.5 89.5t-75.5 42t-94.5 12q-38 0 -72.5 -16.5t-53.5 -34t-51 -52t-46 -48.5q-37 -36 -68.5 -39.5t-48.5 20.5q-15 19 -7 44t36 44q70 43 154 71t161 28q369 0 369 -377v-475q0 -75 15.5 -107t47.5 -35q36 -4 81 26t75 77zM754 420v254
q-24 -28 -37.5 -40.5t-49 -37t-90.5 -43t-133 -33.5q-284 -61 -272 -280q7 -116 90.5 -173.5t200.5 -46.5q122 12 206.5 135t84.5 265zM709 1413q30 -38 -39 -82l-267 -155l-6 8q179 176 224 215q59 54 88 14z" />
    <glyph glyph-name="acircumflex" unicode="&#xe2;" horiz-adv-x="1114" 
d="M1104 115l10 -9q-31 -46 -81.5 -82t-112.5 -36q-77 0 -121.5 45t-44.5 133v156q-7 -36 -22 -76t-44 -85.5t-66.5 -82t-93.5 -62t-120 -28.5q-63 -3 -123.5 10t-112 41t-84.5 78t-35 114q-2 63 19.5 111.5t56 79.5t93 55t113.5 37.5t134 26.5q218 37 285 157
q0 88 -18.5 147.5t-53.5 89.5t-75.5 42t-94.5 12q-38 0 -72.5 -16.5t-53.5 -34t-51 -52t-46 -48.5q-37 -36 -68.5 -39.5t-48.5 20.5q-15 19 -7 44t36 44q70 43 154 71t161 28q369 0 369 -377v-475q0 -75 15.5 -107t47.5 -35q36 -4 81 26t75 77zM754 420v254
q-24 -28 -37.5 -40.5t-49 -37t-90.5 -43t-133 -33.5q-284 -61 -272 -280q7 -116 90.5 -173.5t200.5 -46.5q122 12 206.5 135t84.5 265zM563 1460l299 -250l-6 -12l-293 160l-293 -160l-8 12z" />
    <glyph glyph-name="atilde" unicode="&#xe3;" horiz-adv-x="1114" 
d="M1104 115l10 -9q-31 -46 -81.5 -82t-112.5 -36q-77 0 -121.5 45t-44.5 133v156q-7 -36 -22 -76t-44 -85.5t-66.5 -82t-93.5 -62t-120 -28.5q-63 -3 -123.5 10t-112 41t-84.5 78t-35 114q-2 63 19.5 111.5t56 79.5t93 55t113.5 37.5t134 26.5q218 37 285 157
q0 88 -18.5 147.5t-53.5 89.5t-75.5 42t-94.5 12q-38 0 -72.5 -16.5t-53.5 -34t-51 -52t-46 -48.5q-37 -36 -68.5 -39.5t-48.5 20.5q-15 19 -7 44t36 44q70 43 154 71t161 28q369 0 369 -377v-475q0 -75 15.5 -107t47.5 -35q36 -4 81 26t75 77zM754 420v254
q-24 -28 -37.5 -40.5t-49 -37t-90.5 -43t-133 -33.5q-284 -61 -272 -280q7 -116 90.5 -173.5t200.5 -46.5q122 12 206.5 135t84.5 265zM846 1448l16 -4q-21 -69 -79 -123.5t-119 -54.5q-45 0 -153 40t-144 44q-47 5 -74.5 -14.5t-52.5 -84.5l-19 6q4 10 11 26.5t29 51.5
t46 51q30 22 61 32.5t90 7t134 -30.5q120 -40 177.5 -27t76.5 80z" />
    <glyph glyph-name="adieresis" unicode="&#xe4;" horiz-adv-x="1114" 
d="M1104 115l10 -9q-31 -46 -81.5 -82t-112.5 -36q-77 0 -121.5 45t-44.5 133v156q-7 -36 -22 -76t-44 -85.5t-66.5 -82t-93.5 -62t-120 -28.5q-63 -3 -123.5 10t-112 41t-84.5 78t-35 114q-2 63 19.5 111.5t56 79.5t93 55t113.5 37.5t134 26.5q218 37 285 157
q0 88 -18.5 147.5t-53.5 89.5t-75.5 42t-94.5 12q-38 0 -72.5 -16.5t-53.5 -34t-51 -52t-46 -48.5q-37 -36 -68.5 -39.5t-48.5 20.5q-15 19 -7 44t36 44q70 43 154 71t161 28q369 0 369 -377v-475q0 -75 15.5 -107t47.5 -35q36 -4 81 26t75 77zM754 420v254
q-24 -28 -37.5 -40.5t-49 -37t-90.5 -43t-133 -33.5q-284 -61 -272 -280q7 -116 90.5 -173.5t200.5 -46.5q122 12 206.5 135t84.5 265zM403 1434q43 0 73 -30t30 -71t-30 -70.5t-73 -29.5t-73.5 29.5t-30.5 70.5t30.5 71t73.5 30zM719 1434q43 0 73.5 -30t30.5 -71
t-30.5 -70.5t-73.5 -29.5t-73 29.5t-30 70.5t30 71t73 30z" />
    <glyph glyph-name="aring" unicode="&#xe5;" horiz-adv-x="1114" 
d="M1104 115l10 -9q-31 -46 -81.5 -82t-112.5 -36q-77 0 -121.5 45t-44.5 133v156q-7 -36 -22 -76t-44 -85.5t-66.5 -82t-93.5 -62t-120 -28.5q-63 -3 -123.5 10t-112 41t-84.5 78t-35 114q-2 63 19.5 111.5t56 79.5t93 55t113.5 37.5t134 26.5q218 37 285 157
q0 88 -18.5 147.5t-53.5 89.5t-75.5 42t-94.5 12q-38 0 -72.5 -16.5t-53.5 -34t-51 -52t-46 -48.5q-37 -36 -68.5 -39.5t-48.5 20.5q-15 19 -7 44t36 44q70 43 154 71t161 28q369 0 369 -377v-475q0 -75 15.5 -107t47.5 -35q36 -4 81 26t75 77zM754 420v254
q-24 -28 -37.5 -40.5t-49 -37t-90.5 -43t-133 -33.5q-284 -61 -272 -280q7 -116 90.5 -173.5t200.5 -46.5q122 12 206.5 135t84.5 265zM543 1540q77 0 134.5 -50.5t57.5 -129.5q0 -77 -58 -127.5t-134 -50.5q-78 0 -136.5 50.5t-58.5 127.5q0 79 58.5 129.5t136.5 50.5z
M543 1194q53 0 86 45t33 121t-33 122t-86 46q-54 0 -87.5 -46t-33.5 -122t33.5 -121t87.5 -45z" />
    <glyph glyph-name="ae" unicode="&#xe6;" horiz-adv-x="1792" 
d="M1864 412l10 -9q-18 -32 -34.5 -59.5t-49.5 -72t-66.5 -80t-82.5 -75t-100.5 -66.5t-118.5 -44.5t-138 -17.5q-215 0 -355.5 111.5t-160.5 301.5q-5 -75 -30.5 -145.5t-69 -129.5t-111 -96.5t-149.5 -41.5q-62 -3 -122.5 10t-112.5 41t-85 78t-35 114q-2 63 20 111.5
t56.5 79.5t93 55t114 37.5t134.5 26.5q222 38 283 157q0 88 -18 147t-53 89.5t-75.5 42.5t-95.5 12q-37 0 -71 -16.5t-53 -34t-51 -52t-46 -48.5q-37 -36 -69.5 -39.5t-49.5 20.5q-15 19 -6.5 44t37.5 44q161 99 313 99q287 0 350 -228q75 104 188.5 166t239.5 62
q170 0 284 -103t114 -268h-803q-10 -75 -4 -150q21 -204 142 -313.5t296 -120.5q331 -20 541 361zM1260 983q-136 2 -237.5 -89.5t-129.5 -242.5h670q3 65 -13 123t-51.5 105t-96.5 75t-142 29zM754 420v254q-17 -21 -27 -31.5t-36 -31t-55 -33.5t-78.5 -29.5t-111.5 -28.5
q-284 -60 -272 -280q6 -116 89 -173.5t200 -46.5q122 12 206.5 135t84.5 265z" />
    <glyph glyph-name="ccedilla" unicode="&#xe7;" 
d="M1174 403q-25 -46 -51 -86.5t-81 -103.5t-113.5 -108t-146 -79.5t-182.5 -37.5l-37 -107q42 22 101 19q56 -7 91 -33.5t31 -73.5q-6 -56 -58 -83t-120 -27q-34 0 -74.5 16t-56.5 41l8 6q15 -22 53 -38.5t76 -12.5q37 4 59 29.5t27 64.5q9 85 -55 94q-44 7 -92 -18l-4 4
l43 119h-8q-150 0 -267 55.5t-184 160t-70 242.5q-3 150 69 279.5t195.5 205t266.5 75.5q181 -5 321 -99q33 -24 41 -52t-10 -48q-20 -27 -58.5 -15.5t-70.5 56.5q-25 37 -52.5 62.5t-81.5 47.5t-124 25q-173 2 -283.5 -139t-89.5 -359q10 -104 48.5 -185.5t98.5 -133.5
t133 -81t157 -34q92 -6 175.5 21.5t139 67t106 98t74 95.5t45.5 79z" />
    <glyph glyph-name="egrave" unicode="&#xe8;" 
d="M1163 412l11 -9q-18 -32 -34.5 -59.5t-49.5 -72t-66.5 -80t-82.5 -75t-100.5 -66.5t-118.5 -44.5t-138 -17.5q-229 0 -373 124.5t-148 333.5q-3 150 69 279.5t195.5 205t266.5 75.5q170 0 283.5 -103t113.5 -268h-803q-10 -75 -4 -150q10 -104 49 -185.5t99 -133.5
t133 -81t156 -34q332 -20 542 361zM559 983q-137 2 -237.5 -88.5t-128.5 -243.5h669q3 65 -13 123t-51.5 105t-96.5 75t-142 29zM518 1399l223 -215l-6 -8q-217 124 -266 155q-69 44 -39 82q29 40 88 -14z" />
    <glyph glyph-name="eacute" unicode="&#xe9;" 
d="M1163 412l11 -9q-18 -32 -34.5 -59.5t-49.5 -72t-66.5 -80t-82.5 -75t-100.5 -66.5t-118.5 -44.5t-138 -17.5q-229 0 -373 124.5t-148 333.5q-3 150 69 279.5t195.5 205t266.5 75.5q170 0 283.5 -103t113.5 -268h-803q-10 -75 -4 -150q10 -104 49 -185.5t99 -133.5
t133 -81t156 -34q332 -20 542 361zM559 983q-137 2 -237.5 -88.5t-128.5 -243.5h669q3 65 -13 123t-51.5 105t-96.5 75t-142 29zM723 1413q30 -38 -39 -82l-266 -155l-6 8q178 176 223 215q59 54 88 14z" />
    <glyph glyph-name="ecircumflex" unicode="&#xea;" 
d="M1163 412l11 -9q-18 -32 -34.5 -59.5t-49.5 -72t-66.5 -80t-82.5 -75t-100.5 -66.5t-118.5 -44.5t-138 -17.5q-229 0 -373 124.5t-148 333.5q-3 150 69 279.5t195.5 205t266.5 75.5q170 0 283.5 -103t113.5 -268h-803q-10 -75 -4 -150q10 -104 49 -185.5t99 -133.5
t133 -81t156 -34q332 -20 542 361zM559 983q-137 2 -237.5 -88.5t-128.5 -243.5h669q3 65 -13 123t-51.5 105t-96.5 75t-142 29zM578 1460l299 -250l-7 -12l-292 160l-293 -160l-9 12z" />
    <glyph glyph-name="edieresis" unicode="&#xeb;" 
d="M1163 412l11 -9q-18 -32 -34.5 -59.5t-49.5 -72t-66.5 -80t-82.5 -75t-100.5 -66.5t-118.5 -44.5t-138 -17.5q-229 0 -373 124.5t-148 333.5q-3 150 69 279.5t195.5 205t266.5 75.5q170 0 283.5 -103t113.5 -268h-803q-10 -75 -4 -150q10 -104 49 -185.5t99 -133.5
t133 -81t156 -34q332 -20 542 361zM559 983q-137 2 -237.5 -88.5t-128.5 -243.5h669q3 65 -13 123t-51.5 105t-96.5 75t-142 29zM418 1434q42 0 72 -30t30 -71t-29.5 -70.5t-72.5 -29.5t-74 29.5t-31 70.5t31 71t74 30zM733 1434q43 0 74 -30t31 -71t-31 -70.5t-74 -29.5
t-72.5 29.5t-29.5 70.5t29.5 71t72.5 30z" />
    <glyph glyph-name="igrave" unicode="&#xec;" horiz-adv-x="522" 
d="M461 16h41v-16h-461v16h41q77 0 100 24t23 101v709q0 77 -22.5 100t-100.5 23h-41v18h297v-850q0 -77 23 -101t100 -24zM193 1399l223 -215l-6 -8q-218 124 -267 155q-69 44 -39 82q29 40 89 -14z" />
    <glyph glyph-name="iacute" unicode="&#xed;" horiz-adv-x="522" 
d="M461 16h41v-16h-461v16h41q77 0 100 24t23 101v709q0 77 -22.5 100t-100.5 23h-41v18h297v-850q0 -77 23 -101t100 -24zM377 1413q30 -38 -39 -82l-266 -155l-6 8q178 176 223 215q59 54 88 14z" />
    <glyph glyph-name="icircumflex" unicode="&#xee;" horiz-adv-x="522" 
d="M461 16h41v-16h-461v16h41q77 0 100 24t23 101v709q0 77 -22.5 100t-100.5 23h-41v18h297v-850q0 -77 23 -101t100 -24zM252 1460l299 -250l-6 -12l-293 160l-293 -160l-8 12z" />
    <glyph glyph-name="idieresis" unicode="&#xef;" horiz-adv-x="522" 
d="M461 16h41v-16h-461v16h41q77 0 100 24t23 101v709q0 77 -22.5 100t-100.5 23h-41v18h297v-850q0 -77 23 -101t100 -24zM94 1434q43 0 73 -30t30 -71t-30 -70.5t-73 -29.5t-73.5 29.5t-30.5 70.5t30.5 71t73.5 30zM410 1434q43 0 73.5 -30t30.5 -71t-30.5 -70.5
t-73.5 -29.5t-73 29.5t-30 70.5t30 71t73 30z" />
    <glyph glyph-name="eth" unicode="&#xf0;" horiz-adv-x="1142" 
d="M1077 639q12 -134 -13.5 -244.5t-75.5 -182.5t-119.5 -123t-139.5 -74t-141 -27q-98 -5 -182.5 19t-143 67t-101.5 101t-66 119t-29 124q-13 128 34.5 235.5t137.5 172t204 79.5q164 20 293 -46.5t178 -182.5q-14 225 -100 376t-219 238l-221 -127l-11 21l209 121
q-98 62 -205.5 89t-199.5 27v19q216 0 434 -119l227 131l13 -20l-215 -125q185 -106 308 -276.5t144 -391.5zM522 8q46 -5 94.5 3.5t106 43.5t100.5 93.5t70 166.5t22 250q-3 102 -70 181.5t-165.5 111.5t-194.5 8q-136 -35 -204.5 -151t-63.5 -299q2 -55 13.5 -108.5
t35.5 -105t58 -91.5t85 -68t113 -35z" />
    <glyph glyph-name="ntilde" unicode="&#xf1;" horiz-adv-x="1275" 
d="M1214 16h41v-16h-458v16h41q76 0 99.5 24t23.5 101v504q0 153 -76.5 243.5t-204.5 90.5q-98 0 -178.5 -54t-122 -131.5t-41.5 -156.5v-496q0 -77 22.5 -101t98.5 -24h41v-16h-459v16h41q77 0 100 24t23 101v707q0 78 -22.5 101.5t-100.5 23.5h-41v18h297v-237
q36 105 135 178.5t229 73.5q180 0 285 -101.5t105 -286.5v-477q0 -77 22.5 -101t99.5 -24zM973 1448l16 -4q-21 -69 -79 -123.5t-119 -54.5q-45 0 -153 40t-144 44q-47 5 -74.5 -14.5t-52.5 -84.5l-19 6q4 10 11 26.5t29 51.5t46 51q30 22 61 32.5t90 7t134 -30.5
q120 -40 177.5 -27t76.5 80z" />
    <glyph glyph-name="ograve" unicode="&#xf2;" horiz-adv-x="1171" 
d="M596 1006q236 0 385 -143.5t149 -366.5t-149 -365.5t-385 -142.5q-237 0 -386 142.5t-149 365.5q0 224 149 367t386 143zM596 6q188 0 295.5 133.5t107.5 356.5t-107.5 356t-295.5 133t-295.5 -133t-107.5 -356t107.5 -356.5t295.5 -133.5zM537 1399l223 -215l-6 -8
q-218 124 -267 155q-68 43 -38 82q29 40 88 -14z" />
    <glyph glyph-name="oacute" unicode="&#xf3;" horiz-adv-x="1171" 
d="M596 1006q236 0 385 -143.5t149 -366.5t-149 -365.5t-385 -142.5q-237 0 -386 142.5t-149 365.5q0 224 149 367t386 143zM596 6q188 0 295.5 133.5t107.5 356.5t-107.5 356t-295.5 133t-295.5 -133t-107.5 -356t107.5 -356.5t295.5 -133.5zM741 1413q30 -38 -39 -82
l-266 -155l-6 8q178 176 223 215q59 54 88 14z" />
    <glyph glyph-name="ocircumflex" unicode="&#xf4;" horiz-adv-x="1171" 
d="M596 1006q236 0 385 -143.5t149 -366.5t-149 -365.5t-385 -142.5q-237 0 -386 142.5t-149 365.5q0 224 149 367t386 143zM596 6q188 0 295.5 133.5t107.5 356.5t-107.5 356t-295.5 133t-295.5 -133t-107.5 -356t107.5 -356.5t295.5 -133.5zM596 1460l299 -250l-6 -12
l-293 160l-293 -160l-8 12z" />
    <glyph glyph-name="otilde" unicode="&#xf5;" horiz-adv-x="1171" 
d="M596 1006q236 0 385 -143.5t149 -366.5t-149 -365.5t-385 -142.5q-237 0 -386 142.5t-149 365.5q0 224 149 367t386 143zM596 6q188 0 295.5 133.5t107.5 356.5t-107.5 356t-295.5 133t-295.5 -133t-107.5 -356t107.5 -356.5t295.5 -133.5zM899 1448l16 -4
q-21 -69 -79 -123.5t-119 -54.5q-45 0 -153 40t-144 44q-47 5 -74.5 -14.5t-52.5 -84.5l-19 6q4 10 11 26.5t29 51.5t46 51q30 22 61 32.5t90 7t134 -30.5q120 -40 177.5 -27t76.5 80z" />
    <glyph glyph-name="odieresis" unicode="&#xf6;" horiz-adv-x="1171" 
d="M596 1006q236 0 385 -143.5t149 -366.5t-149 -365.5t-385 -142.5q-237 0 -386 142.5t-149 365.5q0 224 149 367t386 143zM596 6q188 0 295.5 133.5t107.5 356.5t-107.5 356t-295.5 133t-295.5 -133t-107.5 -356t107.5 -356.5t295.5 -133.5zM438 1434q43 0 73 -30t30 -71
t-30 -70.5t-73 -29.5t-73.5 29.5t-30.5 70.5t30.5 71t73.5 30zM754 1434q43 0 73.5 -30t30.5 -71t-30.5 -70.5t-73.5 -29.5t-73 29.5t-30 70.5t30 71t73 30z" />
    <glyph glyph-name="divide" unicode="&#xf7;" horiz-adv-x="980" 
d="M123 668h735v-23h-735v23zM492 479q43 0 72.5 -29.5t29.5 -70.5t-29.5 -70.5t-72.5 -29.5t-74 29.5t-31 70.5t31 70.5t74 29.5zM492 836q-43 0 -74 29.5t-31 70.5t31 70.5t74 29.5t72.5 -29.5t29.5 -70.5t-29.5 -70.5t-72.5 -29.5z" />
    <glyph glyph-name="oslash" unicode="&#xf8;" horiz-adv-x="1171" 
d="M979 862q151 -142 151 -366q0 -223 -149 -365.5t-385 -142.5q-223 0 -367 125l-151 -152l-17 16l150 150q-150 144 -150 369q0 224 149 367t386 143q214 0 367 -127l151 151l16 -16zM193 496q0 -186 75 -312l641 641q-109 160 -313 160q-188 0 -295.5 -133t-107.5 -356z
M596 6q188 0 295.5 133.5t107.5 356.5q0 185 -75 311l-643 -643q111 -158 315 -158z" />
    <glyph glyph-name="ugrave" unicode="&#xf9;" horiz-adv-x="1255" 
d="M1194 16h41v-16h-297v227q-32 -103 -118 -171t-212 -68q-191 0 -307.5 97t-116.5 286v477q0 78 -22.5 101.5t-100.5 23.5h-41v18h295v-645q0 -158 89 -246t231 -88q59 0 110 20.5t85.5 55t59.5 79t36.5 92t11.5 95.5v494q0 78 -22.5 101.5t-98.5 23.5h-41v18h295v-850
q0 -77 23 -101t100 -24zM528 1399l224 -215l-7 -8q-217 124 -266 155q-69 44 -39 82q29 40 88 -14z" />
    <glyph glyph-name="uacute" unicode="&#xfa;" horiz-adv-x="1255" 
d="M1194 16h41v-16h-297v227q-32 -103 -118 -171t-212 -68q-191 0 -307.5 97t-116.5 286v477q0 78 -22.5 101.5t-100.5 23.5h-41v18h295v-645q0 -158 89 -246t231 -88q59 0 110 20.5t85.5 55t59.5 79t36.5 92t11.5 95.5v494q0 78 -22.5 101.5t-98.5 23.5h-41v18h295v-850
q0 -77 23 -101t100 -24zM774 1413q30 -38 -39 -82l-266 -155l-6 8q178 176 223 215q59 54 88 14z" />
    <glyph glyph-name="ucircumflex" unicode="&#xfb;" horiz-adv-x="1255" 
d="M1194 16h41v-16h-297v227q-32 -103 -118 -171t-212 -68q-191 0 -307.5 97t-116.5 286v477q0 78 -22.5 101.5t-100.5 23.5h-41v18h295v-645q0 -158 89 -246t231 -88q59 0 110 20.5t85.5 55t59.5 79t36.5 92t11.5 95.5v494q0 78 -22.5 101.5t-98.5 23.5h-41v18h295v-850
q0 -77 23 -101t100 -24zM608 1460l299 -250l-6 -12l-293 160l-293 -160l-8 12z" />
    <glyph glyph-name="udieresis" unicode="&#xfc;" horiz-adv-x="1255" 
d="M1194 16h41v-16h-297v227q-32 -103 -118 -171t-212 -68q-191 0 -307.5 97t-116.5 286v477q0 78 -22.5 101.5t-100.5 23.5h-41v18h295v-645q0 -158 89 -246t231 -88q59 0 110 20.5t85.5 55t59.5 79t36.5 92t11.5 95.5v494q0 78 -22.5 101.5t-98.5 23.5h-41v18h295v-850
q0 -77 23 -101t100 -24zM449 1434q43 0 72.5 -30t29.5 -71t-29.5 -70.5t-72.5 -29.5t-74 29.5t-31 70.5t31 71t74 30zM764 1434q43 0 73.5 -30t30.5 -71t-30.5 -70.5t-73.5 -29.5t-72.5 29.5t-29.5 70.5t30 71t72 30z" />
    <glyph glyph-name="yacute" unicode="&#xfd;" horiz-adv-x="1101" 
d="M793 991h288v-18h-16q-65 0 -97 -28.5t-61 -96.5l-358 -848q-50 -113 -102 -195t-101 -128.5t-101 -74t-101.5 -31t-102.5 0.5q-42 5 -62.5 18.5t-17.5 42.5t24.5 36.5t63.5 2.5q76 -13 138.5 -10t116.5 32t108 103t112 203l-360 848q-31 76 -64 100.5t-110 24.5h-23v18
h426v-18h-28q-76 0 -87.5 -26.5t21.5 -98.5l295 -690l291 690q30 76 11 100.5t-99 24.5h-4v18zM727 1413q30 -38 -39 -82l-266 -155l-6 8q178 176 223 215q59 54 88 14z" />
    <glyph glyph-name="thorn" unicode="&#xfe;" horiz-adv-x="1253" 
d="M684 1006q116 3 215 -34.5t167.5 -106t107 -164t38.5 -205.5q0 -225 -147 -369.5t-381 -138.5q-113 3 -213.5 71.5t-132.5 167.5v-528q0 -78 22.5 -101.5t100.5 -23.5h112v-16h-532v16h41q78 0 100.5 23.5t22.5 101.5v1593q0 77 -22.5 100t-100.5 23h-41v19h297v-670
q32 99 132.5 169t213.5 73zM684 6q173 -4 283 133t110 357q0 219 -110 355.5t-283 133.5q-144 -4 -245 -98t-101 -211v-361q0 -117 101 -211t245 -98z" />
    <glyph glyph-name="ydieresis" unicode="&#xff;" horiz-adv-x="1101" 
d="M793 991h288v-18h-16q-65 0 -97 -28.5t-61 -96.5l-358 -848q-50 -113 -102 -195t-101 -128.5t-101 -74t-101.5 -31t-102.5 0.5q-42 5 -62.5 18.5t-17.5 42.5t24.5 36.5t63.5 2.5q76 -13 138.5 -10t116.5 32t108 103t112 203l-360 848q-31 76 -64 100.5t-110 24.5h-23v18
h426v-18h-28q-76 0 -87.5 -26.5t21.5 -98.5l295 -690l291 690q30 76 11 100.5t-99 24.5h-4v18zM424 1434q42 0 72 -30t30 -71t-29.5 -70.5t-72.5 -29.5t-74 29.5t-31 70.5t31 71t74 30zM739 1434q43 0 74 -30t31 -71t-31 -70.5t-74 -29.5t-72.5 29.5t-29.5 70.5t29.5 71
t72.5 30z" />
    <glyph glyph-name="Amacron" unicode="&#x100;" horiz-adv-x="1509" 
d="M1466 16h23v-16h-442v16h40q74 0 83 26t-27 99l-142 336h-632l-131 -336q-28 -77 -9.5 -101t97.5 -24h41v-16h-347v16h35q66 0 99 28t61 97l500 1293h24l547 -1293q34 -76 68.5 -100.5t111.5 -24.5zM379 502h612l-321 753zM385 1765h698v-24h-698v24z" />
    <glyph glyph-name="amacron" unicode="&#x101;" horiz-adv-x="1114" 
d="M1104 115l10 -9q-31 -46 -81.5 -82t-112.5 -36q-77 0 -121.5 45t-44.5 133v156q-7 -36 -22 -76t-44 -85.5t-66.5 -82t-93.5 -62t-120 -28.5q-63 -3 -123.5 10t-112 41t-84.5 78t-35 114q-2 63 19.5 111.5t56 79.5t93 55t113.5 37.5t134 26.5q218 37 285 157
q0 88 -18.5 147.5t-53.5 89.5t-75.5 42t-94.5 12q-38 0 -72.5 -16.5t-53.5 -34t-51 -52t-46 -48.5q-37 -36 -68.5 -39.5t-48.5 20.5q-15 19 -7 44t36 44q70 43 154 71t161 28q369 0 369 -377v-475q0 -75 15.5 -107t47.5 -35q36 -4 81 26t75 77zM754 420v254
q-24 -28 -37.5 -40.5t-49 -37t-90.5 -43t-133 -33.5q-284 -61 -272 -280q7 -116 90.5 -173.5t200.5 -46.5q122 12 206.5 135t84.5 265zM193 1356h698v-25h-698v25z" />
    <glyph glyph-name="Abreve" unicode="&#x102;" horiz-adv-x="1509" 
d="M1466 16h23v-16h-442v16h40q74 0 83 26t-27 99l-142 336h-632l-131 -336q-28 -77 -9.5 -101t97.5 -24h41v-16h-347v16h35q66 0 99 28t61 97l500 1293h24l547 -1293q34 -76 68.5 -100.5t111.5 -24.5zM379 502h612l-321 753zM948 1860h15q-3 -84 -67.5 -153t-162.5 -69
t-162 68.5t-67 153.5h14q40 -134 215 -134q172 0 215 134z" />
    <glyph glyph-name="abreve" unicode="&#x103;" horiz-adv-x="1114" 
d="M1104 115l10 -9q-31 -46 -81.5 -82t-112.5 -36q-77 0 -121.5 45t-44.5 133v156q-7 -36 -22 -76t-44 -85.5t-66.5 -82t-93.5 -62t-120 -28.5q-63 -3 -123.5 10t-112 41t-84.5 78t-35 114q-2 63 19.5 111.5t56 79.5t93 55t113.5 37.5t134 26.5q218 37 285 157
q0 88 -18.5 147.5t-53.5 89.5t-75.5 42t-94.5 12q-38 0 -72.5 -16.5t-53.5 -34t-51 -52t-46 -48.5q-37 -36 -68.5 -39.5t-48.5 20.5q-15 19 -7 44t36 44q70 43 154 71t161 28q369 0 369 -377v-475q0 -75 15.5 -107t47.5 -35q36 -4 81 26t75 77zM754 420v254
q-24 -28 -37.5 -40.5t-49 -37t-90.5 -43t-133 -33.5q-284 -61 -272 -280q7 -116 90.5 -173.5t200.5 -46.5q122 12 206.5 135t84.5 265zM776 1450h15q-3 -84 -67 -152.5t-163 -68.5q-98 0 -162 68.5t-67 152.5h14q40 -133 215 -133q172 0 215 133z" />
    <glyph glyph-name="Aogonek" unicode="&#x104;" horiz-adv-x="1509" 
d="M1325 0q-80 -112 -88 -186q-4 -44 14.5 -72t53.5 -31q38 -3 76.5 19.5t66.5 58.5l8 -4q-26 -39 -79 -71t-115 -25q-70 8 -102.5 51t-4.5 108q29 65 156 152h-264v16h40q73 0 81.5 26t-25.5 99l-144 336h-630l-131 -336q-29 -77 -11.5 -101t97.5 -24h41v-16h-345v16h33
q67 0 100.5 28t59.5 97l502 1293h22l549 -1293q32 -76 66.5 -100.5t111.5 -24.5h23v-16h-162zM377 502h612l-319 753z" />
    <glyph glyph-name="aogonek" unicode="&#x105;" horiz-adv-x="1114" 
d="M948 -289q38 -3 77 19.5t67 58.5l6 -4q-26 -39 -78.5 -71t-114.5 -25q-70 8 -102.5 51t-5.5 108q12 26 44 56.5t54.5 46t65.5 43.5q-18 -6 -39 -6q-79 0 -123.5 45t-44.5 133v156q-6 -36 -21 -76.5t-43.5 -85.5t-66 -81.5t-93.5 -62t-120 -28.5q-63 -3 -123.5 10
t-112.5 41.5t-85 78t-36 113.5q-2 63 20 111.5t56.5 79.5t93 55t114 37.5t134.5 26.5q222 38 283 157q0 88 -18 147t-53 89.5t-75.5 42.5t-95.5 12q-37 0 -71 -16.5t-53 -34t-51 -52t-46 -48.5q-37 -36 -69.5 -39.5t-49.5 20.5q-15 19 -6.5 44t37.5 44q161 99 313 99
q371 0 371 -377v-475q0 -76 15 -107.5t48 -34.5q35 -4 80 26t76 77l8 -9q-43 -70 -129 -106q-53 -61 -76 -100t-30 -86q-6 -43 14 -71.5t55 -31.5zM754 420v254q-17 -21 -27 -31.5t-36 -31t-55 -33.5t-78.5 -29.5t-111.5 -28.5q-284 -61 -272 -280q6 -116 89 -173.5
t200 -46.5q122 12 206.5 135t84.5 265z" />
    <glyph glyph-name="Cacute" unicode="&#x106;" horiz-adv-x="1533" 
d="M1458 371l15 -9q-47 -83 -111 -150.5t-147 -121.5t-190 -81.5t-226 -20.5q-113 7 -219.5 40.5t-197.5 93.5t-160.5 140t-111.5 186.5t-47 227.5q-7 155 50 299t158 249t244.5 166.5t301.5 57.5q85 -3 161.5 -21.5t126 -43t89 -48.5t67.5 -39.5t44 -13.5q22 4 22 114v27
v29h19v-483h-19v78q0 157 -152 270.5t-391 109.5q-257 -6 -419 -200t-156 -486q2 -133 40 -247t101 -195t146.5 -140t177 -90t192.5 -36q199 -10 351.5 84.5t240.5 253.5zM913 1823q30 -38 -39 -82l-266 -156l-6 8q178 176 223 215q60 54 88 15z" />
    <glyph glyph-name="cacute" unicode="&#x107;" 
d="M1163 412l11 -9q-18 -32 -34.5 -59.5t-49.5 -72t-66.5 -80t-82.5 -75t-100.5 -66.5t-118.5 -44.5t-138 -17.5q-150 0 -267 55.5t-184 160t-70 242.5q-3 150 69 279.5t195.5 205t266.5 75.5q181 -5 321 -99q33 -24 41 -52.5t-8 -47.5q-21 -27 -60 -15.5t-71 56.5
q-25 37 -52.5 62.5t-81.5 47.5t-124 25q-173 2 -283.5 -139t-89.5 -359q10 -104 48.5 -185.5t98.5 -133.5t133 -81t157 -34q92 -6 175.5 21.5t139 67t106 98t74 95.5t45.5 79zM743 1413q30 -39 -38 -82l-267 -155l-6 8q178 176 223 215q59 54 88 14z" />
    <glyph glyph-name="Ccircumflex" unicode="&#x108;" horiz-adv-x="1533" 
d="M1458 371l15 -9q-47 -83 -111 -150.5t-147 -121.5t-190 -81.5t-226 -20.5q-113 7 -219.5 40.5t-197.5 93.5t-160.5 140t-111.5 186.5t-47 227.5q-7 155 50 299t158 249t244.5 166.5t301.5 57.5q85 -3 161.5 -21.5t126 -43t89 -48.5t67.5 -39.5t44 -13.5q22 4 22 114v27
v29h19v-483h-19v78q0 157 -152 270.5t-391 109.5q-257 -6 -419 -200t-156 -486q2 -133 40 -247t101 -195t146.5 -140t177 -90t192.5 -36q199 -10 351.5 84.5t240.5 253.5zM768 1870l299 -250l-6 -12l-293 159l-293 -159l-8 12z" />
    <glyph glyph-name="ccircumflex" unicode="&#x109;" 
d="M1163 412l11 -9q-18 -32 -34.5 -59.5t-49.5 -72t-66.5 -80t-82.5 -75t-100.5 -66.5t-118.5 -44.5t-138 -17.5q-150 0 -267 55.5t-184 160t-70 242.5q-3 150 69 279.5t195.5 205t266.5 75.5q181 -5 321 -99q33 -24 41 -52.5t-8 -47.5q-21 -27 -60 -15.5t-71 56.5
q-25 37 -52.5 62.5t-81.5 47.5t-124 25q-173 2 -283.5 -139t-89.5 -359q10 -104 48.5 -185.5t98.5 -133.5t133 -81t157 -34q92 -6 175.5 21.5t139 67t106 98t74 95.5t45.5 79zM578 1460l299 -250l-7 -12l-292 160l-293 -160l-9 12z" />
    <glyph glyph-name="Cdotaccent" unicode="&#x10a;" horiz-adv-x="1533" 
d="M1458 371l15 -9q-47 -83 -111 -150.5t-147 -121.5t-190 -81.5t-226 -20.5q-113 7 -219.5 40.5t-197.5 93.5t-160.5 140t-111.5 186.5t-47 227.5q-7 155 50 299t158 249t244.5 166.5t301.5 57.5q85 -3 161.5 -21.5t126 -43t89 -48.5t67.5 -39.5t44 -13.5q22 4 22 114v27
v29h19v-483h-19v78q0 157 -152 270.5t-391 109.5q-257 -6 -419 -200t-156 -486q2 -133 40 -247t101 -195t146.5 -140t177 -90t192.5 -36q199 -10 351.5 84.5t240.5 253.5zM807 1843q43 0 73.5 -29.5t30.5 -70.5t-30.5 -71t-73.5 -30t-72.5 30t-29.5 71t29.5 70.5t72.5 29.5z
" />
    <glyph glyph-name="cdotaccent" unicode="&#x10b;" 
d="M1163 412l11 -9q-18 -32 -34.5 -59.5t-49.5 -72t-66.5 -80t-82.5 -75t-100.5 -66.5t-118.5 -44.5t-138 -17.5q-150 0 -267 55.5t-184 160t-70 242.5q-3 150 69 279.5t195.5 205t266.5 75.5q181 -5 321 -99q33 -24 41 -52.5t-8 -47.5q-21 -27 -60 -15.5t-71 56.5
q-25 37 -52.5 62.5t-81.5 47.5t-124 25q-173 2 -283.5 -139t-89.5 -359q10 -104 48.5 -185.5t98.5 -133.5t133 -81t157 -34q92 -6 175.5 21.5t139 67t106 98t74 95.5t45.5 79zM596 1434q43 0 73.5 -30t30.5 -71t-30.5 -70.5t-73.5 -29.5t-72.5 29.5t-29.5 70.5t30 71t72 30z
" />
    <glyph glyph-name="Ccaron" unicode="&#x10c;" horiz-adv-x="1533" 
d="M1458 371l15 -9q-47 -83 -111 -150.5t-147 -121.5t-190 -81.5t-226 -20.5q-113 7 -219.5 40.5t-197.5 93.5t-160.5 140t-111.5 186.5t-47 227.5q-7 155 50 299t158 249t244.5 166.5t301.5 57.5q85 -3 161.5 -21.5t126 -43t89 -48.5t67.5 -39.5t44 -13.5q22 4 22 114v27
v29h19v-483h-19v78q0 157 -152 270.5t-391 109.5q-257 -6 -419 -200t-156 -486q2 -133 40 -247t101 -195t146.5 -140t177 -90t192.5 -36q199 -10 351.5 84.5t240.5 253.5zM1079 1864l8 -13l-301 -249l-299 249l7 13l292 -160z" />
    <glyph glyph-name="ccaron" unicode="&#x10d;" 
d="M1163 412l11 -9q-18 -32 -34.5 -59.5t-49.5 -72t-66.5 -80t-82.5 -75t-100.5 -66.5t-118.5 -44.5t-138 -17.5q-150 0 -267 55.5t-184 160t-70 242.5q-3 150 69 279.5t195.5 205t266.5 75.5q181 -5 321 -99q33 -24 41 -52.5t-8 -47.5q-21 -27 -60 -15.5t-71 56.5
q-25 37 -52.5 62.5t-81.5 47.5t-124 25q-173 2 -283.5 -139t-89.5 -359q10 -104 48.5 -185.5t98.5 -133.5t133 -81t157 -34q92 -6 175.5 21.5t139 67t106 98t74 95.5t45.5 79zM868 1454l9 -12l-302 -250l-299 250l7 12l292 -160z" />
    <glyph glyph-name="Dcaron" unicode="&#x10e;" horiz-adv-x="1515" 
d="M659 1434q186 0 338.5 -56.5t251 -154t152 -227.5t53.5 -279t-53.5 -279t-152 -227.5t-251 -154t-338.5 -56.5h-323h-295v16h39q77 0 100 24t23 101v1149q0 78 -22.5 101.5t-100.5 23.5h-39v19h618zM623 25q177 0 311.5 54.5t215 151t120 218.5t39.5 268t-39.5 268
t-120 218.5t-215 151t-311.5 54.5h-287v-1384h287zM1018 1864l8 -13l-301 -249l-299 249l6 13l293 -160z" />
    <glyph glyph-name="dcaron" unicode="&#x10f;" horiz-adv-x="1501" 
d="M1190 16h41v-16h-297v227q-32 -99 -131.5 -167.5t-212.5 -71.5q-234 -6 -381.5 138.5t-147.5 369.5q0 110 38.5 205.5t107.5 164t168 106t215 34.5q113 -3 212.5 -73t131.5 -169v528q0 77 -22.5 100t-98.5 23h-41v19h295v-1293q0 -77 23 -101t100 -24zM590 6
q143 4 243.5 98t100.5 211v361q0 117 -100.5 211t-243.5 98q-175 3 -285 -133t-110 -356t110.5 -357t284.5 -133zM1374 1446q44 0 73 -28.5t32 -71.5q14 -184 -170 -371l-13 14q66 61 102 145t-12 103q-114 21 -114 109q0 41 29.5 70.5t72.5 29.5z" />
    <glyph glyph-name="Dcroat" unicode="&#x110;" horiz-adv-x="1517" 
d="M662 1434q186 0 338 -56.5t251 -154t152 -227.5t53 -279t-53 -279t-152 -227.5t-251 -154t-338 -56.5h-324h-297v16h41q77 0 100 24t23 101v576h-164v22h164v553q0 77 -22.5 100t-100.5 23h-41v19h621zM625 25q177 0 312 54.5t215.5 151t120.5 219t40 267.5t-40 267.5
t-120.5 219t-215.5 151t-312 54.5h-287v-670h438v-22h-438v-692h287z" />
    <glyph glyph-name="dcroat" unicode="&#x111;" horiz-adv-x="1251" 
d="M1190 16h41v-16h-297v227q-32 -99 -131.5 -167.5t-212.5 -71.5q-234 -6 -381.5 138.5t-147.5 369.5q0 110 38.5 205.5t107.5 164t168 106t215 34.5q113 -3 212.5 -73t131.5 -169v401h-367v23h367v104q0 77 -22.5 100t-98.5 23h-41v19h295v-246h164v-23h-164v-1024
q0 -77 23 -101t100 -24zM934 315v361q0 117 -100.5 211t-243.5 98q-175 3 -285 -133t-110 -356t110.5 -357t284.5 -133q143 4 243.5 98t100.5 211z" />
    <glyph glyph-name="Emacron" unicode="&#x112;" horiz-adv-x="1247" 
d="M1106 406h18v-406h-1083v16h41q77 0 100 24t23 101v1149q0 78 -22.5 101.5t-100.5 23.5h-41v19h1046v-406h-16v219q0 85 -25.5 123.5t-99.5 38.5h-608v-670h414q73 0 99 42t26 128v41h18v-442h-18v39q0 86 -26 128t-99 42h-414v-692h645q72 0 97.5 38.5t25.5 122.5v220z
M274 1765h699v-24h-699v24z" />
    <glyph glyph-name="emacron" unicode="&#x113;" 
d="M1163 412l11 -9q-18 -32 -34.5 -59.5t-49.5 -72t-66.5 -80t-82.5 -75t-100.5 -66.5t-118.5 -44.5t-138 -17.5q-229 0 -373 124.5t-148 333.5q-3 150 69 279.5t195.5 205t266.5 75.5q170 0 283.5 -103t113.5 -268h-803q-10 -75 -4 -150q10 -104 49 -185.5t99 -133.5
t133 -81t156 -34q332 -20 542 361zM559 983q-137 2 -237.5 -88.5t-128.5 -243.5h669q3 65 -13 123t-51.5 105t-96.5 75t-142 29zM227 1356h699v-25h-699v25z" />
    <glyph glyph-name="Ebreve" unicode="&#x114;" horiz-adv-x="1247" 
d="M1106 406h18v-406h-1083v16h41q77 0 100 24t23 101v1149q0 78 -22.5 101.5t-100.5 23.5h-41v19h1046v-406h-16v219q0 85 -25.5 123.5t-99.5 38.5h-608v-670h414q73 0 99 42t26 128v41h18v-442h-18v39q0 86 -26 128t-99 42h-414v-692h645q72 0 97.5 38.5t25.5 122.5v220z
M838 1860h14q-3 -85 -67 -153.5t-162 -68.5t-162.5 69t-67.5 153h15q40 -134 215 -134q172 0 215 134z" />
    <glyph glyph-name="ebreve" unicode="&#x115;" 
d="M1163 412l11 -9q-18 -32 -34.5 -59.5t-49.5 -72t-66.5 -80t-82.5 -75t-100.5 -66.5t-118.5 -44.5t-138 -17.5q-229 0 -373 124.5t-148 333.5q-3 150 69 279.5t195.5 205t266.5 75.5q170 0 283.5 -103t113.5 -268h-803q-10 -75 -4 -150q10 -104 49 -185.5t99 -133.5
t133 -81t156 -34q332 -20 542 361zM559 983q-137 2 -237.5 -88.5t-128.5 -243.5h669q3 65 -13 123t-51.5 105t-96.5 75t-142 29zM791 1450h14q-3 -84 -67 -152.5t-163 -68.5q-98 0 -162 68.5t-67 152.5h14q40 -133 215 -133q173 0 216 133z" />
    <glyph glyph-name="Edotaccent" unicode="&#x116;" horiz-adv-x="1247" 
d="M1106 406h18v-406h-1083v16h41q77 0 100 24t23 101v1149q0 78 -22.5 101.5t-100.5 23.5h-41v19h1046v-406h-16v219q0 85 -25.5 123.5t-99.5 38.5h-608v-670h414q73 0 99 42t26 128v41h18v-442h-18v39q0 86 -26 128t-99 42h-414v-692h645q72 0 97.5 38.5t25.5 122.5v220z
M623 1843q43 0 73.5 -29.5t30.5 -70.5t-30.5 -71t-73.5 -30t-73 30t-30 71t30 70.5t73 29.5z" />
    <glyph glyph-name="edotaccent" unicode="&#x117;" 
d="M1163 412l11 -9q-18 -32 -34.5 -59.5t-49.5 -72t-66.5 -80t-82.5 -75t-100.5 -66.5t-118.5 -44.5t-138 -17.5q-229 0 -373 124.5t-148 333.5q-3 150 69 279.5t195.5 205t266.5 75.5q170 0 283.5 -103t113.5 -268h-803q-10 -75 -4 -150q10 -104 49 -185.5t99 -133.5
t133 -81t156 -34q332 -20 542 361zM559 983q-137 2 -237.5 -88.5t-128.5 -243.5h669q3 65 -13 123t-51.5 105t-96.5 75t-142 29zM575 1434q43 0 74 -30t31 -71t-31 -70.5t-74 -29.5t-72.5 29.5t-29.5 70.5t29.5 71t72.5 30z" />
    <glyph glyph-name="Eogonek" unicode="&#x118;" horiz-adv-x="1247" 
d="M958 0q-80 -112 -88 -186q-4 -44 14.5 -72t53.5 -31q38 -3 76.5 19.5t66.5 58.5l9 -4q-26 -39 -79.5 -71t-115.5 -25q-70 8 -102.5 51t-4.5 108q29 65 156 152h-903v16h41q77 0 100 24t23 101v1151q0 77 -22.5 100t-100.5 23h-41v19h1049v-406h-17v219q0 84 -26.5 123
t-98.5 39h-610v-670h416q73 0 99 42t26 128v41h16v-442h-16v39q0 86 -26 128t-99 42h-416v-694h645q74 0 99.5 39t25.5 124v220h16v-406h-166z" />
    <glyph glyph-name="eogonek" unicode="&#x119;" 
d="M674 -4q-79 -116 -86 -182q-3 -45 15 -72.5t54 -30.5q38 -3 77 19.5t67 58.5l6 -4q-26 -39 -78.5 -71t-114.5 -25q-70 8 -102.5 51t-5.5 108q29 66 145 144q-46 -4 -67 -4q-229 0 -373 124.5t-148 333.5q-3 112 38.5 216t113.5 179t171.5 120t207.5 45q170 0 282.5 -103
t112.5 -268h-801q-13 -74 -4 -150q10 -104 49 -185.5t99 -133.5t133 -81t156 -34q92 -6 175.5 21.5t139 67t106 98t74 95.5t45.5 79l13 -9q-208 -359 -500 -407zM557 983q-136 2 -237 -89t-130 -243h672q2 65 -14.5 123t-51.5 105t-96.5 75t-142.5 29z" />
    <glyph glyph-name="Ecaron" unicode="&#x11a;" horiz-adv-x="1247" 
d="M1106 406h18v-406h-1083v16h41q77 0 100 24t23 101v1149q0 78 -22.5 101.5t-100.5 23.5h-41v19h1046v-406h-16v219q0 85 -25.5 123.5t-99.5 38.5h-608v-670h414q73 0 99 42t26 128v41h18v-442h-18v39q0 86 -26 128t-99 42h-414v-692h645q72 0 97.5 38.5t25.5 122.5v220z
M915 1864l9 -13l-301 -249l-299 249l6 13l293 -160z" />
    <glyph glyph-name="ecaron" unicode="&#x11b;" 
d="M1163 412l11 -9q-18 -32 -34.5 -59.5t-49.5 -72t-66.5 -80t-82.5 -75t-100.5 -66.5t-118.5 -44.5t-138 -17.5q-229 0 -373 124.5t-148 333.5q-3 150 69 279.5t195.5 205t266.5 75.5q170 0 283.5 -103t113.5 -268h-803q-10 -75 -4 -150q10 -104 49 -185.5t99 -133.5
t133 -81t156 -34q332 -20 542 361zM559 983q-137 2 -237.5 -88.5t-128.5 -243.5h669q3 65 -13 123t-51.5 105t-96.5 75t-142 29zM868 1454l9 -12l-302 -250l-299 250l7 12l292 -160z" />
    <glyph glyph-name="Gcircumflex" unicode="&#x11c;" horiz-adv-x="1587" 
d="M911 680h635v-16h-4q-78 0 -100.5 -23.5t-22.5 -101.5v-539h-16v147q0 26 -19 31q-15 4 -41 -14t-66 -47t-92.5 -58t-136 -50t-180.5 -21q-120 0 -236 31.5t-216 92t-177.5 142.5t-124 190t-51.5 228q-7 158 51 302t159.5 247.5t243 165t296.5 61.5q93 0 173.5 -18.5
t130.5 -43.5t89 -50.5t66 -41t43 -12.5q16 2 19 24.5t3 88.5v28v27h19v-481h-19v75q0 75 -38 145t-106 123.5t-169.5 84.5t-220.5 28q-128 -3 -239 -55t-190.5 -143t-122.5 -223t-38 -287q4 -152 57.5 -284t141 -224.5t206 -145.5t250.5 -53q156 0 254 53.5t168 143.5v332
q0 78 -22.5 101.5t-100.5 23.5h-256v16zM825 1870l299 -250l-6 -12l-293 159l-293 -159l-8 12z" />
    <glyph glyph-name="gcircumflex" unicode="&#x11d;" horiz-adv-x="1214" 
d="M702 -57q124 -8 201 -18t148 -29.5t105 -49.5t48.5 -78t1.5 -116q-23 -116 -123 -235t-235 -201.5t-262 -104.5q-49 -9 -104.5 -9.5t-111.5 7.5t-109.5 23.5t-98.5 41.5t-78 59t-49.5 78t-11.5 97q5 57 30 108.5t67 95t86.5 77.5t102.5 69q63 41 133 68q-317 28 -329 156
q-5 51 30 93.5t92.5 68.5t117.5 41t114 18q-152 31 -242 137.5t-90 257.5q0 179 122 293.5t314 114.5q78 0 170 -29q165 49 326 76q96 17 96 -43q0 -27 -25.5 -38t-86.5 -7q-235 12 -291 4q117 -46 183.5 -144t66.5 -227q0 -179 -123 -292t-316 -113q-24 0 -34 2
q-143 -8 -209 -35q-52 -22 -82 -49.5t-27 -57.5q7 -50 108 -70.5t375 -39.5zM272 598q0 -178 78.5 -282.5t220.5 -104.5q144 0 222.5 104.5t78.5 282.5t-78.5 282.5t-222.5 104.5q-142 0 -220.5 -104.5t-78.5 -282.5zM616 -795q124 12 230.5 58.5t174 110.5t103 138.5
t27.5 143.5q-5 38 -24 65.5t-51 43.5t-66.5 25.5t-81.5 13.5t-85 5t-87 2t-78 3q-150 6 -205 10q-160 -58 -299 -189q-89 -86 -84.5 -177t92.5 -154q78 -55 195.5 -82t238.5 -17zM578 1460l299 -250l-7 -12l-292 160l-293 -160l-9 12z" />
    <glyph glyph-name="Gbreve" unicode="&#x11e;" horiz-adv-x="1587" 
d="M911 680h635v-16h-4q-78 0 -100.5 -23.5t-22.5 -101.5v-539h-16v147q0 26 -19 31q-15 4 -41 -14t-66 -47t-92.5 -58t-136 -50t-180.5 -21q-120 0 -236 31.5t-216 92t-177.5 142.5t-124 190t-51.5 228q-7 158 51 302t159.5 247.5t243 165t296.5 61.5q93 0 173.5 -18.5
t130.5 -43.5t89 -50.5t66 -41t43 -12.5q16 2 19 24.5t3 88.5v28v27h19v-481h-19v75q0 75 -38 145t-106 123.5t-169.5 84.5t-220.5 28q-128 -3 -239 -55t-190.5 -143t-122.5 -223t-38 -287q4 -152 57.5 -284t141 -224.5t206 -145.5t250.5 -53q156 0 254 53.5t168 143.5v332
q0 78 -22.5 101.5t-100.5 23.5h-256v16zM1038 1860h15q-3 -84 -67.5 -153t-162.5 -69t-162 68.5t-67 153.5h14q40 -134 215 -134q172 0 215 134z" />
    <glyph glyph-name="gbreve" unicode="&#x11f;" horiz-adv-x="1214" 
d="M702 -57q124 -8 201 -18t148 -29.5t105 -49.5t48.5 -78t1.5 -116q-23 -116 -123 -235t-235 -201.5t-262 -104.5q-49 -9 -104.5 -9.5t-111.5 7.5t-109.5 23.5t-98.5 41.5t-78 59t-49.5 78t-11.5 97q5 57 30 108.5t67 95t86.5 77.5t102.5 69q63 41 133 68q-317 28 -329 156
q-5 51 30 93.5t92.5 68.5t117.5 41t114 18q-152 31 -242 137.5t-90 257.5q0 179 122 293.5t314 114.5q78 0 170 -29q165 49 326 76q96 17 96 -43q0 -27 -25.5 -38t-86.5 -7q-235 12 -291 4q117 -46 183.5 -144t66.5 -227q0 -179 -123 -292t-316 -113q-24 0 -34 2
q-143 -8 -209 -35q-52 -22 -82 -49.5t-27 -57.5q7 -50 108 -70.5t375 -39.5zM272 598q0 -178 78.5 -282.5t220.5 -104.5q144 0 222.5 104.5t78.5 282.5t-78.5 282.5t-222.5 104.5q-142 0 -220.5 -104.5t-78.5 -282.5zM616 -795q124 12 230.5 58.5t174 110.5t103 138.5
t27.5 143.5q-5 38 -24 65.5t-51 43.5t-66.5 25.5t-81.5 13.5t-85 5t-87 2t-78 3q-150 6 -205 10q-160 -58 -299 -189q-89 -86 -84.5 -177t92.5 -154q78 -55 195.5 -82t238.5 -17zM791 1450h14q-3 -84 -67 -152.5t-163 -68.5q-98 0 -162 68.5t-67 152.5h14q40 -133 215 -133
q173 0 216 133z" />
    <glyph glyph-name="Gdotaccent" unicode="&#x120;" horiz-adv-x="1587" 
d="M911 680h635v-16h-4q-78 0 -100.5 -23.5t-22.5 -101.5v-539h-16v147q0 26 -19 31q-15 4 -41 -14t-66 -47t-92.5 -58t-136 -50t-180.5 -21q-120 0 -236 31.5t-216 92t-177.5 142.5t-124 190t-51.5 228q-7 158 51 302t159.5 247.5t243 165t296.5 61.5q93 0 173.5 -18.5
t130.5 -43.5t89 -50.5t66 -41t43 -12.5q16 2 19 24.5t3 88.5v28v27h19v-481h-19v75q0 75 -38 145t-106 123.5t-169.5 84.5t-220.5 28q-128 -3 -239 -55t-190.5 -143t-122.5 -223t-38 -287q4 -152 57.5 -284t141 -224.5t206 -145.5t250.5 -53q156 0 254 53.5t168 143.5v332
q0 78 -22.5 101.5t-100.5 23.5h-256v16zM823 1843q43 0 74 -29.5t31 -70.5t-31 -71t-74 -30t-72.5 30t-29.5 71t29.5 70.5t72.5 29.5z" />
    <glyph glyph-name="gdotaccent" unicode="&#x121;" horiz-adv-x="1214" 
d="M702 -57q124 -8 201 -18t148 -29.5t105 -49.5t48.5 -78t1.5 -116q-23 -116 -123 -235t-235 -201.5t-262 -104.5q-49 -9 -104.5 -9.5t-111.5 7.5t-109.5 23.5t-98.5 41.5t-78 59t-49.5 78t-11.5 97q5 57 30 108.5t67 95t86.5 77.5t102.5 69q63 41 133 68q-317 28 -329 156
q-5 51 30 93.5t92.5 68.5t117.5 41t114 18q-152 31 -242 137.5t-90 257.5q0 179 122 293.5t314 114.5q78 0 170 -29q165 49 326 76q96 17 96 -43q0 -27 -25.5 -38t-86.5 -7q-235 12 -291 4q117 -46 183.5 -144t66.5 -227q0 -179 -123 -292t-316 -113q-24 0 -34 2
q-143 -8 -209 -35q-52 -22 -82 -49.5t-27 -57.5q7 -50 108 -70.5t375 -39.5zM272 598q0 -178 78.5 -282.5t220.5 -104.5q144 0 222.5 104.5t78.5 282.5t-78.5 282.5t-222.5 104.5q-142 0 -220.5 -104.5t-78.5 -282.5zM616 -795q124 12 230.5 58.5t174 110.5t103 138.5
t27.5 143.5q-5 38 -24 65.5t-51 43.5t-66.5 25.5t-81.5 13.5t-85 5t-87 2t-78 3q-150 6 -205 10q-160 -58 -299 -189q-89 -86 -84.5 -177t92.5 -154q78 -55 195.5 -82t238.5 -17zM575 1434q43 0 74 -30t31 -71t-31 -70.5t-74 -29.5t-72.5 29.5t-29.5 70.5t29.5 71t72.5 30z
" />
    <glyph glyph-name="Gcommaaccent" unicode="&#x122;" horiz-adv-x="1587" 
d="M911 680h635v-16h-4q-78 0 -100.5 -23.5t-22.5 -101.5v-539h-16v147q0 26 -19 31q-15 4 -41 -14t-66 -47t-92.5 -58t-136 -50t-180.5 -21q-120 0 -236 31.5t-216 92t-177.5 142.5t-124 190t-51.5 228q-7 158 51 302t159.5 247.5t243 165t296.5 61.5q93 0 173.5 -18.5
t130.5 -43.5t89 -50.5t66 -41t43 -12.5q16 2 19 24.5t3 88.5v28v27h19v-481h-19v75q0 75 -38 145t-106 123.5t-169.5 84.5t-220.5 28q-128 -3 -239 -55t-190.5 -143t-122.5 -223t-38 -287q4 -152 57.5 -284t141 -224.5t206 -145.5t250.5 -53q156 0 254 53.5t168 143.5v332
q0 78 -22.5 101.5t-100.5 23.5h-256v16zM842 -131q39 0 63.5 -25t26.5 -63q11 -160 -148 -326l-12 13q58 53 90 127t-12 90q-100 21 -100 96q0 37 27 62.5t65 25.5z" />
    <glyph glyph-name="gcommaaccent" unicode="&#x123;" horiz-adv-x="1214" 
d="M702 -57q124 -8 201 -18t148 -29.5t105 -49.5t48.5 -78t1.5 -116q-23 -116 -123 -235t-235 -201.5t-262 -104.5q-49 -9 -104.5 -9.5t-111.5 7.5t-109.5 23.5t-98.5 41.5t-78 59t-49.5 78t-11.5 97q5 57 30 108.5t67 95t86.5 77.5t102.5 69q63 41 133 68q-317 28 -329 156
q-5 51 30 93.5t92.5 68.5t117.5 41t114 18q-152 31 -242 137.5t-90 257.5q0 179 122 293.5t314 114.5q78 0 170 -29q165 49 326 76q96 17 96 -43q0 -27 -25.5 -38t-86.5 -7q-235 12 -291 4q117 -46 183.5 -144t66.5 -227q0 -179 -123 -292t-316 -113q-24 0 -34 2
q-143 -8 -209 -35q-52 -22 -82 -49.5t-27 -57.5q7 -50 108 -70.5t375 -39.5zM272 598q0 -178 78.5 -282.5t220.5 -104.5q144 0 222.5 104.5t78.5 282.5t-78.5 282.5t-222.5 104.5q-142 0 -220.5 -104.5t-78.5 -282.5zM616 -795q124 12 230.5 58.5t174 110.5t103 138.5
t27.5 143.5q-5 38 -24 65.5t-51 43.5t-66.5 25.5t-81.5 13.5t-85 5t-87 2t-78 3q-150 6 -205 10q-160 -58 -299 -189q-89 -86 -84.5 -177t92.5 -154q78 -55 195.5 -82t238.5 -17zM559 1452q115 -24 115 -109q0 -42 -31 -72t-74 -30q-45 0 -73 29t-31 73q-6 95 40.5 190.5
t129.5 178.5l14 -12q-67 -62 -103.5 -145.5t13.5 -102.5z" />
    <glyph glyph-name="Hcircumflex" unicode="&#x124;" horiz-adv-x="1566" 
d="M1485 1415q-78 0 -100.5 -23.5t-22.5 -101.5v-1149q0 -77 23 -101t100 -24h41v-16h-461v16h41q77 0 100 24t23 101v576h-893v-576q0 -77 23 -101t100 -24h41v-16h-459v16h39q77 0 100 24t23 101v1149q0 78 -22.5 101.5t-100.5 23.5h-39v19h459v-19h-41
q-78 0 -100.5 -23.5t-22.5 -101.5v-551h893v551q0 78 -22.5 101.5t-100.5 23.5h-41v19h461v-19h-41zM784 1870l299 -250l-6 -12l-293 159l-292 -159l-9 12z" />
    <glyph glyph-name="hcircumflex" unicode="&#x125;" horiz-adv-x="1277" 
d="M1217 16h40v-16h-460v16h41q77 0 100 24t23 101v504q0 153 -76.5 243.5t-204.5 90.5q-97 0 -177.5 -54t-122.5 -131.5t-42 -156.5v-496q0 -77 23 -101t100 -24h41v-16h-461v16h41q77 0 100 24t23 101v1151q0 77 -22.5 100t-100.5 23h-41v19h297v-680q38 105 137 178.5
t230 73.5q178 0 283.5 -102t105.5 -286v-477q0 -77 23 -101t100 -24zM360 1878l299 -250l-6 -12l-293 160l-292 -160l-9 12z" />
    <glyph glyph-name="Hbar" unicode="&#x126;" horiz-adv-x="1566" 
d="M1528 991h-164v-850q0 -77 23 -101t100 -24h41v-16h-461v16h41q77 0 100 24t23 101v576h-893v-576q0 -77 23 -101t100 -24h41v-16h-461v16h41q77 0 100 24t23 101v850h-164v23h164v278q0 77 -22.5 100t-100.5 23h-41v19h461v-19h-41q-78 0 -100.5 -23t-22.5 -100v-278
h893v278q0 77 -22.5 100t-100.5 23h-41v19h461v-19h-41q-78 0 -100.5 -23t-22.5 -100v-278h164v-23zM1231 739v252h-893v-252h893z" />
    <glyph glyph-name="hbar" unicode="&#x127;" horiz-adv-x="1277" 
d="M1217 16h40v-16h-460v16h41q77 0 100 24t23 101v504q0 153 -76 243.5t-203 90.5q-98 0 -179 -54t-123 -131.5t-42 -156.5v-496q0 -77 23 -101t100 -24h41v-16h-461v16h41q77 0 100 24t23 101v1024h-164v23h164v104q0 77 -22.5 100t-100.5 23h-41v19h297v-246h367v-23
h-367v-411q38 105 137 178.5t230 73.5q178 0 283.5 -102t105.5 -286v-477q0 -77 23 -101t100 -24z" />
    <glyph glyph-name="Itilde" unicode="&#x128;" horiz-adv-x="540" 
d="M459 1415q-78 0 -100.5 -23.5t-22.5 -101.5v-1149q0 -77 23 -101t100 -24h41v-16h-459v16h41q77 0 100 24t23 101v1149q0 78 -22.5 101.5t-100.5 23.5h-41v19h459v-19h-41zM575 1858l17 -5q-21 -69 -79.5 -123.5t-119.5 -54.5q-45 0 -153 40t-144 44q-47 5 -74.5 -14.5
t-52.5 -83.5l-18 6q4 10 11 26.5t29 51.5t46 51q30 22 61.5 32t90 6.5t133.5 -30.5q120 -40 177 -26.5t76 80.5z" />
    <glyph glyph-name="itilde" unicode="&#x129;" horiz-adv-x="522" 
d="M463 16h41v-16h-461v16h41q77 0 100 24t23 101v709q0 77 -22.5 100t-100.5 23h-41v18h297v-850q0 -77 23 -101t100 -24zM557 1448l16 -4q-21 -69 -79 -123.5t-119 -54.5q-45 0 -153 40t-144 44q-47 5 -74.5 -14.5t-52.5 -84.5l-19 6q4 10 11 26.5t29 51.5t46 51
q30 22 61 32.5t90 7t134 -30.5q120 -40 177.5 -27t76.5 80z" />
    <glyph glyph-name="Imacron" unicode="&#x12a;" horiz-adv-x="540" 
d="M459 1415q-78 0 -100.5 -23.5t-22.5 -101.5v-1149q0 -77 23 -101t100 -24h41v-16h-459v16h41q77 0 100 24t23 101v1149q0 78 -22.5 101.5t-100.5 23.5h-41v19h459v-19h-41zM-78 1765h699v-24h-699v24z" />
    <glyph glyph-name="imacron" unicode="&#x12b;" horiz-adv-x="522" 
d="M461 16h41v-16h-461v16h41q77 0 100 24t23 101v709q0 77 -22.5 100t-100.5 23h-41v18h297v-850q0 -77 23 -101t100 -24zM-98 1356h698v-25h-698v25z" />
    <glyph glyph-name="Ibreve" unicode="&#x12c;" horiz-adv-x="540" 
d="M459 1415q-78 0 -100.5 -23.5t-22.5 -101.5v-1149q0 -77 23 -101t100 -24h41v-16h-459v16h41q77 0 100 24t23 101v1149q0 78 -22.5 101.5t-100.5 23.5h-41v19h459v-19h-41zM485 1860h15q-3 -84 -67.5 -153t-162.5 -69t-162 68.5t-67 153.5h14q40 -134 215 -134
q172 0 215 134z" />
    <glyph glyph-name="ibreve" unicode="&#x12d;" horiz-adv-x="522" 
d="M461 16h41v-16h-461v16h41q77 0 100 24t23 101v709q0 77 -22.5 100t-100.5 23h-41v18h297v-850q0 -77 23 -101t100 -24zM465 1450h14q-3 -84 -67 -152.5t-162 -68.5q-99 0 -163 68.5t-67 152.5h15q40 -133 215 -133q172 0 215 133z" />
    <glyph glyph-name="Iogonek" unicode="&#x12e;" horiz-adv-x="540" 
d="M459 1415q-77 0 -100 -23.5t-23 -99.5v-1151q0 -77 23.5 -101t99.5 -24h41v-16h-203q-83 -116 -88 -186q-5 -44 13.5 -72t53.5 -31q38 -3 77 19.5t67 58.5l8 -4q-28 -40 -80.5 -71.5t-114.5 -24.5q-71 8 -102.5 51t-3.5 108q12 28 41 59t53 49t62 44h-242v16h41
q77 0 100 24t23 101v1151q0 77 -22.5 100t-100.5 23h-41v19h459v-19h-41z" />
    <glyph glyph-name="iogonek" unicode="&#x12f;" horiz-adv-x="522" 
d="M260 1198q-40 0 -67 27t-27 67q0 39 27.5 66.5t66.5 27.5q38 0 66 -28t28 -66q0 -39 -27.5 -66.5t-66.5 -27.5zM297 0q-43 -63 -63.5 -104.5t-24.5 -81.5q-5 -44 13.5 -72t53.5 -31q77 -6 146 78l6 -4q-26 -39 -78 -71t-114 -25q-71 8 -104 51t-5 108q30 67 158 152h-244
v16h41q77 0 100 24t23 101v707q0 78 -22.5 101.5t-100.5 23.5h-41v18h297v-850q0 -77 23 -101t100 -24h41v-16h-205z" />
    <glyph glyph-name="Idotaccent" unicode="&#x130;" horiz-adv-x="540" 
d="M459 1415q-78 0 -100.5 -23.5t-22.5 -101.5v-1149q0 -77 23 -101t100 -24h41v-16h-459v16h41q77 0 100 24t23 101v1149q0 78 -22.5 101.5t-100.5 23.5h-41v19h459v-19h-41zM268 1843q43 0 74 -29.5t31 -70.5t-31 -71t-74 -30q-42 0 -72 30t-30 71t29.5 70.5t72.5 29.5z
" />
    <glyph glyph-name="dotlessi" unicode="&#x131;" horiz-adv-x="522" 
d="M461 16h41v-16h-461v16h41q77 0 100 24t23 101v709q0 77 -22.5 100t-100.5 23h-41v18h297v-850q0 -77 23 -101t100 -24z" />
    <glyph glyph-name="IJ" unicode="&#x132;" horiz-adv-x="1230" 
d="M459 1415q-78 0 -100.5 -23.5t-22.5 -101.5v-1149q0 -77 23 -101t100 -24h41v-16h-459v16h41q77 0 100 24t23 101v1149q0 78 -22.5 101.5t-100.5 23.5h-41v19h459v-19h-41zM623 1434h567v-19h-41q-78 0 -100.5 -23.5t-22.5 -101.5v-1057q0 -122 -26 -218.5t-61 -151.5
t-84.5 -95t-83.5 -54.5t-71 -24.5q-47 -13 -131 -18t-137 3q-42 7 -68.5 24t-25.5 46q6 65 90 37q5 -2 63 -28t110 -39.5t93 -6.5q44 8 76.5 31.5t62 77t45 155t15.5 248.5v1071q0 78 -22.5 101.5t-100.5 23.5h-147v19z" />
    <glyph glyph-name="ij" unicode="&#x133;" horiz-adv-x="1011" 
d="M461 16h41v-16h-461v16h41q77 0 100 24t23 101v709q0 77 -22.5 100t-100.5 23h-41v18h297v-850q0 -77 23 -101t100 -24zM260 1198q-40 0 -67 27t-27 67q0 39 27.5 66.5t66.5 27.5q38 0 66 -28t28 -66q0 -39 -27.5 -66.5t-66.5 -27.5zM557 991h295v-956q0 -454 -289 -539
q-46 -13 -113 -16.5t-120 4.5q-97 16 -92 67q3 65 90 37q10 -3 54.5 -28t89 -38.5t85.5 -6.5q57 11 90.5 53t53.5 155.5t20 311.5v815q0 77 -22.5 100t-100.5 23h-41v18zM774 1198q-39 0 -66.5 27.5t-27.5 66.5q0 38 28 66t66 28q39 0 66.5 -27.5t27.5 -66.5q0 -40 -27 -67
t-67 -27z" />
    <glyph glyph-name="Jcircumflex" unicode="&#x134;" horiz-adv-x="669" 
d="M61 1434h568v-19h-41q-78 0 -100.5 -23.5t-22.5 -101.5v-1057q0 -122 -26 -218.5t-61 -151.5t-84.5 -95t-83.5 -54.5t-71 -24.5q-47 -13 -131 -18t-137 3q-42 7 -68.5 24t-25.5 46q6 65 90 37q5 -2 63 -28t110 -39.5t93 -6.5q44 8 76.5 31.5t62 77t45 155t15.5 248.5
v1071q0 78 -22.5 101.5t-100.5 23.5h-148v19zM305 1870l299 -250l-6 -12l-293 159l-293 -159l-8 12z" />
    <glyph glyph-name="jcircumflex" unicode="&#x135;" horiz-adv-x="555" 
d="M117 991h295v-956q0 -454 -289 -539q-46 -13 -113.5 -16.5t-120.5 4.5q-97 16 -92 67q3 65 90 37q10 -3 54.5 -28t89.5 -38.5t86 -6.5q57 11 90.5 53t53.5 155.5t20 311.5v815q0 77 -22.5 100t-100.5 23h-41v18zM113 1460l299 -250l-6 -12l-293 160l-293 -160l-8 12z" />
    <glyph glyph-name="Kcommaaccent" unicode="&#x136;" horiz-adv-x="1480" 
d="M1403 16h57v-16h-459v16h23q78 0 88.5 26.5t-37.5 98.5l-475 668l-264 -299v-369q0 -77 23 -101t100 -24h41v-16h-459v16h41q76 0 98.5 24t22.5 101v1149q0 78 -22.5 101.5t-98.5 23.5h-41v19h459v-19h-41q-78 0 -100.5 -23.5t-22.5 -101.5v-753l678 770q92 108 -64 108
h-45v19h387v-19h-41q-50 0 -90.5 -17t-65 -38.5t-71.5 -69.5l-338 -383l535 -766q58 -73 75 -89q41 -36 107 -36zM727 -131q39 0 63.5 -25t26.5 -63q11 -161 -147 -326l-13 13q58 53 90 127t-12 90q-100 21 -100 96q0 37 27 62.5t65 25.5z" />
    <glyph glyph-name="kcommaaccent" unicode="&#x137;" horiz-adv-x="1204" 
d="M1153 16h31v-16h-213q-39 0 -65.5 20t-55.5 58q-23 35 -165 244t-169 247l-178 -172v-256q0 -77 23 -101t100 -24h41v-16h-461v16h41q77 0 100 24t23 101v1151q0 77 -22.5 100t-100.5 23h-41v19h297v-1012l461 442q49 46 42.5 77.5t-75.5 31.5h-41v18h352v-18h-41
q-37 0 -66.5 -7.5t-60 -28.5t-47 -35.5t-55.5 -51.5l-203 -197l350 -512q89 -125 199 -125zM608 -131q39 0 63.5 -25t26.5 -63q11 -161 -147 -326l-12 13q58 52 89.5 126.5t-12.5 90.5q-100 21 -100 96q0 37 27 62.5t65 25.5z" />
    <glyph glyph-name="kgreenlandic" unicode="&#x138;" horiz-adv-x="1204" 
d="M1153 16h31v-16h-213q-39 0 -65.5 20t-55.5 58q-23 35 -165 244t-169 247l-178 -172v-256q0 -77 23 -101t100 -24h41v-16h-461v16h41q77 0 100 24t23 101v770q0 77 -22.5 100t-100.5 23h-41v19h297v-631l461 442q49 46 42.5 77.5t-75.5 31.5h-41v18h352v-18h-41
q-37 0 -66.5 -7.5t-60 -28.5t-47 -35.5t-55.5 -51.5l-203 -197l350 -512q89 -125 199 -125z" />
    <glyph glyph-name="Lacute" unicode="&#x139;" horiz-adv-x="1206" 
d="M1108 442h16v-442h-1083v16h41q77 0 100 24t23 101v1149q0 78 -22.5 101.5t-100.5 23.5h-41v19h461v-19h-41q-78 0 -100.5 -23.5t-22.5 -101.5v-1265h645q73 0 99 38.5t26 122.5v256zM401 1823q30 -38 -39 -82l-266 -156l-6 8q178 176 223 215q60 54 88 15z" />
    <glyph glyph-name="lacute" unicode="&#x13a;" horiz-adv-x="520" 
d="M459 16h41v-16h-459v16h41q76 0 99.5 24t23.5 101v1151q0 76 -23.5 99.5t-99.5 23.5h-41v19h295v-1293q0 -77 23 -101t100 -24zM367 1853q29 -38 -39 -81l-267 -156l-6 8q179 176 224 215q59 54 88 14z" />
    <glyph glyph-name="Lcommaaccent" unicode="&#x13b;" horiz-adv-x="1206" 
d="M1108 442h16v-442h-1083v16h41q77 0 100 24t23 101v1149q0 78 -22.5 101.5t-100.5 23.5h-41v19h461v-19h-41q-78 0 -100.5 -23.5t-22.5 -101.5v-1265h645q73 0 99 38.5t26 122.5v256zM580 -131q39 0 63.5 -25t26.5 -63q11 -160 -148 -326l-12 13q58 53 90 127t-12 90
q-101 21 -101 96q0 37 27.5 62.5t65.5 25.5z" />
    <glyph glyph-name="lcommaaccent" unicode="&#x13c;" horiz-adv-x="520" 
d="M459 16h41v-16h-459v16h41q76 0 99.5 24t23.5 101v1151q0 76 -23.5 99.5t-99.5 23.5h-41v19h295v-1293q0 -77 23 -101t100 -24zM266 -131q39 0 63.5 -25t26.5 -63q11 -161 -147 -326l-12 13q58 52 89.5 126.5t-12.5 90.5q-100 21 -100 96q0 37 27 62.5t65 25.5z" />
    <glyph glyph-name="Lcaron" unicode="&#x13d;" horiz-adv-x="1206" 
d="M1108 442h16v-442h-1083v16h41q77 0 100 24t23 101v1149q0 78 -22.5 101.5t-100.5 23.5h-41v19h461v-19h-41q-78 0 -100.5 -23.5t-22.5 -101.5v-1265h645q73 0 99 38.5t26 122.5v256zM829 1448q39 0 64 -25t27 -63q11 -160 -148 -326l-12 13q58 53 90 127t-12 90
q-101 21 -101 96q0 37 27 62.5t65 25.5z" />
    <glyph glyph-name="lcaron" unicode="&#x13e;" horiz-adv-x="729" 
d="M459 16h41v-16h-459v16h41q76 0 99.5 24t23.5 101v1151q0 76 -23.5 99.5t-99.5 23.5h-41v19h295v-1293q0 -77 23 -101t100 -24zM602 1446q44 0 73 -28.5t32 -71.5q14 -184 -170 -371l-13 14q66 61 102 145t-12 103q-114 21 -114 109q0 41 29.5 70.5t72.5 29.5z" />
    <glyph glyph-name="Ldot" unicode="&#x13f;" horiz-adv-x="1206" 
d="M786 883q43 0 74 -30t31 -71t-31 -70.5t-74 -29.5t-73.5 29.5t-30.5 70.5t30.5 71t73.5 30zM1108 442h16v-442h-1083v16h41q77 0 100 24t23 101v1149q0 78 -22.5 101.5t-100.5 23.5h-41v19h461v-19h-41q-78 0 -100.5 -23.5t-22.5 -101.5v-1265h645q73 0 99 38.5t26 122.5
v256z" />
    <glyph glyph-name="ldot" unicode="&#x140;" horiz-adv-x="761" 
d="M459 16h41v-16h-459v16h41q76 0 99.5 24t23.5 101v1151q0 76 -23.5 99.5t-99.5 23.5h-41v19h295v-1293q0 -77 23 -101t100 -24zM657 770q43 0 74 -29.5t31 -70.5t-31 -71t-74 -30t-72.5 29.5t-29.5 71.5q0 41 29.5 70.5t72.5 29.5z" />
    <glyph glyph-name="Lslash" unicode="&#x141;" horiz-adv-x="1206" 
d="M1108 442h16v-442h-1083v16h41q77 0 100 24t23 101v318l-164 -66v25l164 63v811q0 77 -22.5 100t-100.5 23h-41v19h461v-19h-41q-78 0 -100.5 -23t-22.5 -100v-760l438 173v-25l-438 -170v-487h645q74 0 99.5 39t25.5 124v256z" />
    <glyph glyph-name="lslash" unicode="&#x142;" horiz-adv-x="520" 
d="M565 588l-229 -99v-348q0 -77 23 -101t100 -24h41v-16h-461v16h41q77 0 100 24t23 101v293l-230 -98v24l230 97v835q0 77 -22.5 100t-100.5 23h-41v19h297v-920l229 96v-22z" />
    <glyph glyph-name="Nacute" unicode="&#x143;" horiz-adv-x="1642" 
d="M1143 1434h459v-19h-41q-86 0 -131.5 -26t-45.5 -97v-1292h-24l-1077 1341v-1200q0 -71 45.5 -98t130.5 -27h41v-16h-459v16h41q86 0 131 26.5t45 98.5v1151q0 71 -44.5 97t-131.5 26h-41v19h352l967 -1201v1059q0 71 -44.5 97t-131.5 26h-41v19zM987 1823
q30 -38 -39 -82l-266 -156l-6 8q178 176 223 215q60 54 88 15z" />
    <glyph glyph-name="nacute" unicode="&#x144;" horiz-adv-x="1275" 
d="M1214 16h41v-16h-458v16h41q76 0 99.5 24t23.5 101v504q0 153 -76.5 243.5t-204.5 90.5q-98 0 -178.5 -54t-122 -131.5t-41.5 -156.5v-496q0 -77 22.5 -101t98.5 -24h41v-16h-459v16h41q77 0 100 24t23 101v707q0 78 -22.5 101.5t-100.5 23.5h-41v18h297v-237
q36 105 135 178.5t229 73.5q180 0 285 -101.5t105 -286.5v-477q0 -77 22.5 -101t99.5 -24zM795 1413q30 -38 -39 -82l-267 -155l-6 8q179 176 224 215q59 54 88 14z" />
    <glyph glyph-name="Ncommaaccent" unicode="&#x145;" horiz-adv-x="1642" 
d="M1143 1434h459v-19h-41q-86 0 -131.5 -26t-45.5 -97v-1292h-24l-1077 1341v-1200q0 -71 45.5 -98t130.5 -27h41v-16h-459v16h41q86 0 131 26.5t45 98.5v1151q0 71 -44.5 97t-131.5 26h-41v19h352l967 -1201v1059q0 71 -44.5 97t-131.5 26h-41v19zM838 -131q39 0 63.5 -25
t26.5 -63q11 -160 -148 -326l-12 13q58 53 90 127t-12 90q-101 21 -101 96q0 37 27.5 62.5t65.5 25.5z" />
    <glyph glyph-name="ncommaaccent" unicode="&#x146;" horiz-adv-x="1275" 
d="M1214 16h41v-16h-458v16h41q76 0 99.5 24t23.5 101v504q0 153 -76.5 243.5t-204.5 90.5q-98 0 -178.5 -54t-122 -131.5t-41.5 -156.5v-496q0 -77 22.5 -101t98.5 -24h41v-16h-459v16h41q77 0 100 24t23 101v707q0 78 -22.5 101.5t-100.5 23.5h-41v18h297v-237
q36 105 135 178.5t229 73.5q180 0 285 -101.5t105 -286.5v-477q0 -77 22.5 -101t99.5 -24zM645 -131q39 0 63.5 -25t26.5 -63q11 -161 -147 -326l-13 13q58 53 90 127t-12 90q-100 21 -100 96q0 37 27 62.5t65 25.5z" />
    <glyph glyph-name="Ncaron" unicode="&#x147;" horiz-adv-x="1642" 
d="M1143 1434h459v-19h-41q-86 0 -131.5 -26t-45.5 -97v-1292h-24l-1077 1341v-1200q0 -71 45.5 -98t130.5 -27h41v-16h-459v16h41q86 0 131 26.5t45 98.5v1151q0 71 -44.5 97t-131.5 26h-41v19h352l967 -1201v1059q0 71 -44.5 97t-131.5 26h-41v19zM1133 1864l8 -13
l-301 -249l-299 249l6 13l293 -160z" />
    <glyph glyph-name="ncaron" unicode="&#x148;" horiz-adv-x="1275" 
d="M1214 16h41v-16h-458v16h41q76 0 99.5 24t23.5 101v504q0 153 -76.5 243.5t-204.5 90.5q-98 0 -178.5 -54t-122 -131.5t-41.5 -156.5v-496q0 -77 22.5 -101t98.5 -24h41v-16h-459v16h41q77 0 100 24t23 101v707q0 78 -22.5 101.5t-100.5 23.5h-41v18h297v-237
q36 105 135 178.5t229 73.5q180 0 285 -101.5t105 -286.5v-477q0 -77 22.5 -101t99.5 -24zM940 1454l8 -12l-301 -250l-299 250l6 12l293 -160z" />
    <glyph glyph-name="napostrophe" unicode="&#x149;" horiz-adv-x="1511" 
d="M1450 16h41v-16h-459v16h41q76 0 99.5 24t23.5 101v504q0 153 -76.5 243.5t-204.5 90.5q-98 0 -178.5 -54t-122 -131.5t-41.5 -156.5v-496q0 -77 22.5 -101t98.5 -24h41v-16h-459v16h41q77 0 100 24t23 101v707q0 78 -22.5 101.5t-100.5 23.5h-41v18h297v-237
q36 105 135.5 178.5t229.5 73.5q180 0 284.5 -101.5t104.5 -286.5v-477q0 -77 23 -101t100 -24zM133 1448q39 0 63.5 -25t26.5 -63q11 -161 -147 -326l-13 13q58 53 90 127t-12 90q-100 21 -100 96q0 37 27 62.5t65 25.5z" />
    <glyph glyph-name="Eng" unicode="&#x14a;" horiz-adv-x="1644" 
d="M1143 1434h461v-19h-41q-87 0 -133 -26t-46 -97v-1292q0 -272 -182 -311q-46 -8 -130.5 -1t-137.5 23q-44 13 -71 33.5t-19 48.5q15 62 86 23q9 -4 46 -27.5t68 -40.5t74.5 -30t77.5 -7q53 9 88.5 39t51 75.5t21 85t5.5 89.5l-1079 1341v-1200q0 -71 45.5 -98t132.5 -27
h41v-16h-461v16h41q87 0 132.5 27t45.5 98v1151q0 71 -45.5 97t-132.5 26h-41v19h352l969 -1201v1059q0 71 -45.5 97t-132.5 26h-41v19z" />
    <glyph glyph-name="eng" unicode="&#x14b;" horiz-adv-x="1255" 
d="M702 1006q178 0 284 -102t106 -286v-475q0 -459 -289 -538q-48 -13 -113.5 -18t-120.5 3q-42 7 -68.5 24t-25.5 46q3 33 28 41.5t62 -6.5q13 -4 56 -27.5t88 -37.5t86 -7q58 10 91.5 52.5t52.5 155t19 312.5v502q0 153 -76 243.5t-202 90.5q-98 0 -179 -54t-123 -131.5
t-42 -156.5v-496q0 -77 23 -101t100 -24h41v-16h-459v16h41q76 0 99.5 24t23.5 101v707q0 78 -23 101.5t-100 23.5h-41v18h295v-237q38 105 137 178.5t229 73.5z" />
    <glyph glyph-name="Omacron" unicode="&#x14c;" horiz-adv-x="1646" 
d="M823 1448q225 0 399.5 -95.5t268.5 -261.5t94 -374t-94 -373.5t-268.5 -260.5t-399.5 -95q-170 0 -313 55.5t-241.5 152t-153 231t-54.5 290.5t55 290.5t153 232t241 153t313 55.5zM823 10q188 0 330 89.5t217.5 249.5t75.5 368t-75.5 368t-217.5 249t-330 89
q-283 0 -452.5 -195t-169.5 -511t169.5 -511.5t452.5 -195.5zM473 1765h698v-24h-698v24z" />
    <glyph glyph-name="omacron" unicode="&#x14d;" horiz-adv-x="1171" 
d="M596 1006q236 0 385 -143.5t149 -366.5t-149 -365.5t-385 -142.5q-237 0 -386 142.5t-149 365.5q0 224 149 367t386 143zM596 6q188 0 295.5 133.5t107.5 356.5t-107.5 356t-295.5 133t-295.5 -133t-107.5 -356t107.5 -356.5t295.5 -133.5zM246 1356h698v-25h-698v25z
" />
    <glyph glyph-name="Obreve" unicode="&#x14e;" horiz-adv-x="1646" 
d="M823 1448q225 0 399.5 -95.5t268.5 -261.5t94 -374t-94 -373.5t-268.5 -260.5t-399.5 -95q-170 0 -313 55.5t-241.5 152t-153 231t-54.5 290.5t55 290.5t153 232t241 153t313 55.5zM823 10q188 0 330 89.5t217.5 249.5t75.5 368t-75.5 368t-217.5 249t-330 89
q-283 0 -452.5 -195t-169.5 -511t169.5 -511.5t452.5 -195.5zM1038 1860h15q-3 -84 -67.5 -153t-162.5 -69t-162 68.5t-67 153.5h14q40 -134 215 -134q172 0 215 134z" />
    <glyph glyph-name="obreve" unicode="&#x14f;" horiz-adv-x="1171" 
d="M596 1006q236 0 385 -143.5t149 -366.5t-149 -365.5t-385 -142.5q-237 0 -386 142.5t-149 365.5q0 224 149 367t386 143zM596 6q188 0 295.5 133.5t107.5 356.5t-107.5 356t-295.5 133t-295.5 -133t-107.5 -356t107.5 -356.5t295.5 -133.5zM811 1450h14
q-3 -84 -67 -152.5t-162 -68.5t-162 68.5t-67 152.5h14q40 -133 215 -133q172 0 215 133z" />
    <glyph glyph-name="Ohungarumlaut" unicode="&#x150;" horiz-adv-x="1646" 
d="M823 1448q225 0 399.5 -95.5t268.5 -261.5t94 -374t-94 -373.5t-268.5 -260.5t-399.5 -95q-170 0 -313 55.5t-241.5 152t-153 231t-54.5 290.5t55 290.5t153 232t241 153t313 55.5zM823 10q188 0 330 89.5t217.5 249.5t75.5 368t-75.5 368t-217.5 249t-330 89
q-283 0 -452.5 -195t-169.5 -511t169.5 -511.5t452.5 -195.5zM872 1858q39 -31 -16 -89l-221 -219l-6 6q128 216 159 265q44 66 84 37zM1114 1858q42 -31 -16 -89q-17 -19 -72 -74t-101 -100l-46 -45l-7 6q129 216 160 265q45 66 82 37z" />
    <glyph glyph-name="ohungarumlaut" unicode="&#x151;" horiz-adv-x="1171" 
d="M596 1006q236 0 385 -143.5t149 -366.5t-149 -365.5t-385 -142.5q-237 0 -386 142.5t-149 365.5q0 224 149 367t386 143zM596 6q188 0 295.5 133.5t107.5 356.5t-107.5 356t-295.5 133t-295.5 -133t-107.5 -356t107.5 -356.5t295.5 -133.5zM645 1448q39 -30 -16 -88
l-221 -219l-7 6q129 215 160 264q44 66 84 37zM887 1448q41 -30 -17 -88q-17 -19 -72 -74t-101 -100l-46 -45l-6 6q129 215 160 264q45 66 82 37z" />
    <glyph glyph-name="OE" unicode="&#x152;" horiz-adv-x="2498" 
d="M2359 406h17v-406h-1084v16h41q77 0 100 24t23 101v146q-100 -141 -263 -220t-368 -79q-170 0 -313.5 55.5t-242 152t-153.5 231t-55 290.5t55 290.5t153.5 232t242 153t313.5 55.5q205 0 367.5 -80t263.5 -221v145q0 77 -22.5 100t-100.5 23h-41v19h1049v-406h-19v219
q0 85 -25 123.5t-99 38.5h-609v-670h416q72 0 97.5 42t25.5 128v41h18v-442h-18v39q0 86 -25.5 128t-97.5 42h-416v-694h645q72 0 98.5 39.5t26.5 123.5v220zM825 10q283 0 452 195.5t169 511.5t-169 511t-452 195t-452.5 -195t-169.5 -511t169.5 -511.5t452.5 -195.5z" />
    <glyph glyph-name="oe" unicode="&#x153;" horiz-adv-x="2041" 
d="M2111 412l13 -9q-18 -32 -34.5 -59.5t-49.5 -72t-66.5 -80t-82.5 -75t-100.5 -66.5t-118.5 -44.5t-138 -17.5q-162 0 -284.5 65t-184.5 183q-67 -117 -188.5 -182.5t-278.5 -65.5q-237 0 -387 142.5t-150 365.5t150 366.5t387 143.5q166 0 293.5 -76t189.5 -207
q70 128 194 205.5t269 77.5q170 0 282.5 -103t112.5 -268h-800q-11 -62 -4 -150q10 -104 48.5 -185.5t98.5 -133.5t133 -81t156 -34q67 -4 130 9t110.5 35.5t92.5 58t75 67.5t59 73t43.5 65t29.5 53zM1509 983q-137 2 -238 -89t-130 -243h671q3 65 -13.5 123t-51.5 105
t-96.5 75t-141.5 29zM598 6q188 0 295.5 133.5t107.5 356.5t-107.5 356t-295.5 133q-189 0 -296 -133t-107 -356t107 -356.5t296 -133.5z" />
    <glyph glyph-name="Racute" unicode="&#x154;" horiz-adv-x="1476" 
d="M1483 164l14 -6q-22 -46 -52.5 -83.5t-81 -64.5t-108.5 -22q-117 9 -184.5 95.5t-116.5 274.5q-18 69 -40.5 119.5t-44 85t-59 57t-63.5 35t-81 18t-90 6.5t-109 1h-129v-539q0 -77 23 -101t100 -24h112v-16h-532v16h41q77 0 100 24t23 101v1151q0 77 -22.5 100
t-100.5 23h-41v19h565q268 0 405.5 -95t137.5 -282q0 -159 -100.5 -251.5t-296.5 -117.5q250 -38 327 -252q18 -51 40 -137.5t36.5 -137t47 -95t79.5 -52.5q58 -10 113.5 35t87.5 115zM338 1409v-704h233q101 0 178.5 19t126 50.5t79 77.5t42 95.5t11.5 109.5t-11.5 109.5
t-42 95.5t-79 77.5t-126 50.5t-178.5 19h-233zM752 1823q30 -38 -39 -82l-267 -156l-6 8q179 176 224 215q60 54 88 15z" />
    <glyph glyph-name="racute" unicode="&#x155;" horiz-adv-x="884" 
d="M758 997q48 -6 69.5 -23.5t12.5 -51.5q-6 -30 -42 -38t-83 13q-43 21 -71.5 31.5t-64 15.5t-67.5 -7t-63 -42q-54 -50 -83.5 -141t-29.5 -174v-439q0 -77 23 -101t100 -24h112v-16h-530v16h41q76 0 99.5 24t23.5 101v707q0 78 -23 101.5t-100 23.5h-41v18h295v-291
q33 123 98 211q86 115 324 86zM629 1413q30 -38 -39 -82l-266 -155l-7 8q179 176 224 215q59 54 88 14z" />
    <glyph glyph-name="Rcommaaccent" unicode="&#x156;" horiz-adv-x="1476" 
d="M1483 164l14 -6q-22 -46 -52.5 -83.5t-81 -64.5t-108.5 -22q-117 9 -184.5 95.5t-116.5 274.5q-18 69 -40.5 119.5t-44 85t-59 57t-63.5 35t-81 18t-90 6.5t-109 1h-129v-539q0 -77 23 -101t100 -24h112v-16h-532v16h41q77 0 100 24t23 101v1151q0 77 -22.5 100
t-100.5 23h-41v19h565q268 0 405.5 -95t137.5 -282q0 -159 -100.5 -251.5t-296.5 -117.5q250 -38 327 -252q18 -51 40 -137.5t36.5 -137t47 -95t79.5 -52.5q58 -10 113.5 35t87.5 115zM338 1409v-704h233q101 0 178.5 19t126 50.5t79 77.5t42 95.5t11.5 109.5t-11.5 109.5
t-42 95.5t-79 77.5t-126 50.5t-178.5 19h-233zM745 -131q39 0 64 -25t27 -63q11 -160 -148 -326l-12 13q58 53 90 127t-12 90q-101 21 -101 96q0 37 27 62.5t65 25.5z" />
    <glyph glyph-name="rcommaaccent" unicode="&#x157;" horiz-adv-x="884" 
d="M758 997q48 -6 69.5 -23.5t12.5 -51.5q-6 -30 -42 -38t-83 13q-43 21 -71.5 31.5t-64 15.5t-67.5 -7t-63 -42q-54 -50 -83.5 -141t-29.5 -174v-439q0 -77 23 -101t100 -24h112v-16h-530v16h41q76 0 99.5 24t23.5 101v707q0 78 -23 101.5t-100 23.5h-41v18h295v-291
q33 123 98 211q86 115 324 86zM268 -131q39 0 63.5 -25t26.5 -63q11 -161 -147 -326l-12 13q58 52 89.5 126.5t-12.5 90.5q-100 21 -100 96q0 37 27 62.5t65 25.5z" />
    <glyph glyph-name="Rcaron" unicode="&#x158;" horiz-adv-x="1476" 
d="M1483 164l14 -6q-22 -46 -52.5 -83.5t-81 -64.5t-108.5 -22q-117 9 -184.5 95.5t-116.5 274.5q-18 69 -40.5 119.5t-44 85t-59 57t-63.5 35t-81 18t-90 6.5t-109 1h-129v-539q0 -77 23 -101t100 -24h112v-16h-532v16h41q77 0 100 24t23 101v1151q0 77 -22.5 100
t-100.5 23h-41v19h565q268 0 405.5 -95t137.5 -282q0 -159 -100.5 -251.5t-296.5 -117.5q250 -38 327 -252q18 -51 40 -137.5t36.5 -137t47 -95t79.5 -52.5q58 -10 113.5 35t87.5 115zM338 1409v-704h233q101 0 178.5 19t126 50.5t79 77.5t42 95.5t11.5 109.5t-11.5 109.5
t-42 95.5t-79 77.5t-126 50.5t-178.5 19h-233zM918 1864l8 -13l-301 -249l-299 249l6 13l293 -160z" />
    <glyph glyph-name="rcaron" unicode="&#x159;" horiz-adv-x="884" 
d="M758 997q48 -6 69.5 -23.5t12.5 -51.5q-6 -30 -42 -38t-83 13q-43 21 -71.5 31.5t-64 15.5t-67.5 -7t-63 -42q-54 -50 -83.5 -141t-29.5 -174v-439q0 -77 23 -101t100 -24h112v-16h-530v16h41q76 0 99.5 24t23.5 101v707q0 78 -23 101.5t-100 23.5h-41v18h295v-291
q33 123 98 211q86 115 324 86zM733 1454l8 -12l-301 -250l-299 250l6 12l293 -160z" />
    <glyph glyph-name="Sacute" unicode="&#x15a;" horiz-adv-x="1241" 
d="M672 831q121 -49 188 -80t141.5 -77t107.5 -90t50 -106.5t4 -139.5q-25 -154 -161.5 -252t-333.5 -98q-102 0 -199 25t-155 54.5t-105 51.5t-64 18q-17 -3 -20.5 -25.5t-3.5 -89.5v-26v-29h-19v258v226h19v-76q0 -95 70.5 -176.5t188.5 -131.5t257 -59q188 -10 301 67
t125 224q4 45 -6 84t-26.5 69t-49.5 59t-61.5 48t-77.5 43t-82.5 37.5t-90.5 36.5t-89 37q-226 97 -311 198.5t-56 253.5q13 70 61.5 127t113.5 90t134 49.5t131 14.5q69 -3 130.5 -18t100.5 -34t69.5 -36.5t51 -26.5t31.5 -4q10 3 12 15t1 59v51v29h18v-258v-226h-18v76
q0 153 -100 248t-296 104q-139 6 -232 -55.5t-102 -193.5q-6 -103 75.5 -183.5t277.5 -161.5zM803 1823q30 -38 -39 -82l-266 -156l-6 8q178 176 223 215q60 54 88 15z" />
    <glyph glyph-name="sacute" unicode="&#x15b;" horiz-adv-x="905" 
d="M471 584q23 -10 72 -29t80 -32.5t74.5 -35t71 -44t53 -51.5t35.5 -65.5t5 -78.5q-10 -87 -66.5 -148t-139 -88t-181.5 -24q-74 2 -141 21.5t-104 41t-69.5 37.5t-49.5 14q-35 -7 -35 -90v-30h-15v411h15v-78q0 -73 37.5 -132.5t95.5 -95t120.5 -55.5t121.5 -22
q126 -6 219.5 42.5t99.5 142.5q2 31 -6 57t-31 49.5t-45.5 40.5t-67.5 38t-77.5 34t-93.5 37q-90 35 -149.5 66.5t-106 72.5t-64 92t-6.5 115q11 63 55 108t100.5 65.5t101.5 28.5t77 7q71 -2 128 -16.5t84.5 -30.5t50.5 -29.5t34 -14.5q28 0 28 58v39h13v-412h-13v78
q0 147 -75 223t-252 82q-92 3 -170.5 -46.5t-77.5 -137.5q0 -19 4 -35.5t14.5 -31.5t19 -26.5t28 -24.5l31.5 -21t38.5 -20t39.5 -18t44.5 -19t44.5 -19zM629 1413q30 -38 -39 -82l-266 -155l-7 8q179 176 224 215q59 54 88 14z" />
    <glyph glyph-name="Scircumflex" unicode="&#x15c;" horiz-adv-x="1241" 
d="M672 831q121 -49 188 -80t141.5 -77t107.5 -90t50 -106.5t4 -139.5q-25 -154 -161.5 -252t-333.5 -98q-102 0 -199 25t-155 54.5t-105 51.5t-64 18q-17 -3 -20.5 -25.5t-3.5 -89.5v-26v-29h-19v258v226h19v-76q0 -95 70.5 -176.5t188.5 -131.5t257 -59q188 -10 301 67
t125 224q4 45 -6 84t-26.5 69t-49.5 59t-61.5 48t-77.5 43t-82.5 37.5t-90.5 36.5t-89 37q-226 97 -311 198.5t-56 253.5q13 70 61.5 127t113.5 90t134 49.5t131 14.5q69 -3 130.5 -18t100.5 -34t69.5 -36.5t51 -26.5t31.5 -4q10 3 12 15t1 59v51v29h18v-258v-226h-18v76
q0 153 -100 248t-296 104q-139 6 -232 -55.5t-102 -193.5q-6 -103 75.5 -183.5t277.5 -161.5zM657 1870l299 -250l-6 -12l-293 159l-292 -159l-9 12z" />
    <glyph glyph-name="scircumflex" unicode="&#x15d;" horiz-adv-x="905" 
d="M471 584q23 -10 72 -29t80 -32.5t74.5 -35t71 -44t53 -51.5t35.5 -65.5t5 -78.5q-10 -87 -66.5 -148t-139 -88t-181.5 -24q-74 2 -141 21.5t-104 41t-69.5 37.5t-49.5 14q-35 -7 -35 -90v-30h-15v411h15v-78q0 -73 37.5 -132.5t95.5 -95t120.5 -55.5t121.5 -22
q126 -6 219.5 42.5t99.5 142.5q2 31 -6 57t-31 49.5t-45.5 40.5t-67.5 38t-77.5 34t-93.5 37q-90 35 -149.5 66.5t-106 72.5t-64 92t-6.5 115q11 63 55 108t100.5 65.5t101.5 28.5t77 7q71 -2 128 -16.5t84.5 -30.5t50.5 -29.5t34 -14.5q28 0 28 58v39h13v-412h-13v78
q0 147 -75 223t-252 82q-92 3 -170.5 -46.5t-77.5 -137.5q0 -19 4 -35.5t14.5 -31.5t19 -26.5t28 -24.5l31.5 -21t38.5 -20t39.5 -18t44.5 -19t44.5 -19zM483 1460l299 -250l-6 -12l-293 160l-293 -160l-8 12z" />
    <glyph glyph-name="Scedilla" unicode="&#x15e;" horiz-adv-x="1241" 
d="M670 831q121 -49 188 -80t141.5 -77t107.5 -90t50.5 -106.5t5.5 -139.5q-25 -154 -162 -252t-333 -98l-39 -107q45 25 102 19q55 -5 91 -31.5t32 -73.5q-6 -57 -58.5 -84.5t-119.5 -27.5q-34 0 -74.5 17t-56.5 42l8 6q13 -22 52 -38.5t77 -12.5q36 4 58.5 29.5t27.5 64.5
q9 85 -55 94q-44 7 -92 -18l-5 4l43 117q-100 1 -196 26t-153 54t-103.5 51t-63.5 18q-17 -3 -20.5 -25.5t-3.5 -89.5v-26v-27h-17v256v226h17v-76q0 -95 71 -176.5t189 -131t258 -57.5q186 -12 299 65.5t125 223.5q4 45 -6 84t-26.5 69t-49.5 59t-61.5 48t-77.5 43
t-82.5 37.5t-90.5 36.5t-89 37q-226 97 -311 198.5t-56 253.5q13 70 62 127.5t114 91t134 50t130 14.5q85 -3 158.5 -25.5t112 -46.5t69.5 -39.5t45 -9.5q3 1 4.5 3t3 5t2.5 6.5t1.5 9.5t0.5 12v16t-0.5 19.5t-0.5 24.5v29v29h18v-258v-226h-18v76q0 153 -100 248t-296 104
q-138 6 -230.5 -54.5t-101.5 -192.5q-8 -103 74 -184.5t277 -162.5z" />
    <glyph glyph-name="scedilla" unicode="&#x15f;" horiz-adv-x="905" 
d="M471 584q23 -10 72 -29t80 -32.5t74.5 -35t71 -44t53 -51.5t35.5 -65.5t5 -78.5q-10 -87 -66.5 -148t-139 -88t-181.5 -24l-37 -107q42 22 103 19q54 -7 89.5 -33.5t31.5 -73.5q-6 -56 -58.5 -83t-120.5 -27q-34 0 -74.5 16t-56.5 41l8 6q15 -22 53 -38.5t76 -12.5
q37 4 59 29.5t27 64.5q9 85 -55 94q-45 7 -90 -18l-6 4l43 119q-72 3 -137.5 23t-102 41t-68.5 37t-48 13q-35 -7 -35 -90v-30h-15v411h15v-78q0 -73 37.5 -132.5t95.5 -95t120.5 -55.5t121.5 -22q126 -6 219.5 42.5t99.5 142.5q2 31 -6 57t-31 49.5t-45.5 40.5t-67.5 38
t-77.5 34t-93.5 37q-90 35 -149.5 66.5t-106 72.5t-64 92t-6.5 115q11 63 55 108t100.5 65.5t101.5 28.5t77 7q71 -2 128 -16.5t84.5 -30.5t50.5 -29.5t34 -14.5q28 0 28 58v39h13v-412h-13v78q0 147 -75 223t-252 82q-92 3 -170.5 -46.5t-77.5 -137.5q0 -19 4 -35.5
t14.5 -31.5t19 -26.5t28 -24.5l31.5 -21t38.5 -20t39.5 -18t44.5 -19t44.5 -19z" />
    <glyph glyph-name="Scaron" unicode="&#x160;" horiz-adv-x="1241" 
d="M672 831q121 -49 188 -80t141.5 -77t107.5 -90t50 -106.5t4 -139.5q-25 -154 -161.5 -252t-333.5 -98q-102 0 -199 25t-155 54.5t-105 51.5t-64 18q-17 -3 -20.5 -25.5t-3.5 -89.5v-26v-29h-19v258v226h19v-76q0 -95 70.5 -176.5t188.5 -131.5t257 -59q188 -10 301 67
t125 224q4 45 -6 84t-26.5 69t-49.5 59t-61.5 48t-77.5 43t-82.5 37.5t-90.5 36.5t-89 37q-226 97 -311 198.5t-56 253.5q13 70 61.5 127t113.5 90t134 49.5t131 14.5q69 -3 130.5 -18t100.5 -34t69.5 -36.5t51 -26.5t31.5 -4q10 3 12 15t1 59v51v29h18v-258v-226h-18v76
q0 153 -100 248t-296 104q-139 6 -232 -55.5t-102 -193.5q-6 -103 75.5 -183.5t277.5 -161.5zM948 1864l8 -13l-301 -249l-299 249l6 13l293 -160z" />
    <glyph glyph-name="scaron" unicode="&#x161;" horiz-adv-x="905" 
d="M471 584q23 -10 72 -29t80 -32.5t74.5 -35t71 -44t53 -51.5t35.5 -65.5t5 -78.5q-10 -87 -66.5 -148t-139 -88t-181.5 -24q-74 2 -141 21.5t-104 41t-69.5 37.5t-49.5 14q-35 -7 -35 -90v-30h-15v411h15v-78q0 -73 37.5 -132.5t95.5 -95t120.5 -55.5t121.5 -22
q126 -6 219.5 42.5t99.5 142.5q2 31 -6 57t-31 49.5t-45.5 40.5t-67.5 38t-77.5 34t-93.5 37q-90 35 -149.5 66.5t-106 72.5t-64 92t-6.5 115q11 63 55 108t100.5 65.5t101.5 28.5t77 7q71 -2 128 -16.5t84.5 -30.5t50.5 -29.5t34 -14.5q28 0 28 58v39h13v-412h-13v78
q0 147 -75 223t-252 82q-92 3 -170.5 -46.5t-77.5 -137.5q0 -19 4 -35.5t14.5 -31.5t19 -26.5t28 -24.5l31.5 -21t38.5 -20t39.5 -18t44.5 -19t44.5 -19zM774 1454l8 -12l-301 -250l-299 250l6 12l293 -160z" />
    <glyph glyph-name="Tcommaaccent" unicode="&#x162;" horiz-adv-x="1372" 
d="M102 1434h1168v-406h-17v219q0 84 -26.5 123t-98.5 39h-376v-1268q0 -77 22.5 -101t99.5 -24h41v-16h-458v16h39q77 0 99.5 24t22.5 101v1268h-374q-74 0 -99.5 -38.5t-25.5 -123.5v-219h-17v406zM682 -131q39 0 63.5 -25t26.5 -63q11 -161 -147 -326l-13 13
q58 53 90 127t-12 90q-100 21 -100 96q0 37 27 62.5t65 25.5z" />
    <glyph glyph-name="tcommaaccent" unicode="&#x163;" horiz-adv-x="761" 
d="M711 180l10 -10q-3 -4 -21 -26.5t-31.5 -38.5t-38.5 -40t-48.5 -39t-55 -26.5t-63.5 -11.5q-138 0 -203 72.5t-65 230.5v682h-175v18q110 0 187.5 91.5t105.5 226.5h15v-318h305v-18h-305v-717q0 -136 42 -188t115 -52q28 0 55 9.5t46 21t41 33t32.5 34.5t29 37t22.5 29z
M397 -131q39 0 63.5 -25t26.5 -63q11 -161 -147 -326l-12 13q58 53 90 127t-12 90q-101 21 -101 96q0 37 27 62.5t65 25.5z" />
    <glyph glyph-name="Tcaron" unicode="&#x164;" horiz-adv-x="1372" 
d="M102 1434h1168v-406h-17v219q0 84 -26.5 123t-98.5 39h-376v-1268q0 -77 22.5 -101t99.5 -24h41v-16h-458v16h39q77 0 99.5 24t22.5 101v1268h-374q-74 0 -99.5 -38.5t-25.5 -123.5v-219h-17v406zM977 1864l8 -13l-301 -249l-299 249l6 13l293 -160z" />
    <glyph glyph-name="tcaron" unicode="&#x165;" horiz-adv-x="761" 
d="M711 180l10 -10q-3 -4 -21 -26.5t-31.5 -38.5t-38.5 -40t-48.5 -39t-55 -26.5t-63.5 -11.5q-138 0 -203 72.5t-65 230.5v682h-175v18q110 0 187.5 91.5t105.5 226.5h15v-318h305v-18h-305v-717q0 -136 42 -188t115 -52q28 0 55 9.5t46 21t41 33t32.5 34.5t29 37t22.5 29z
M598 1587q39 0 63.5 -25t26.5 -63q11 -160 -147 -325l-13 12q58 53 90 127t-12 90q-100 21 -100 96q0 37 27 62.5t65 25.5z" />
    <glyph glyph-name="Tbar" unicode="&#x166;" horiz-adv-x="1372" 
d="M102 1434h1168v-406h-17v219q0 85 -25.5 123.5t-99.5 38.5h-376v-741h301v-23h-301v-504q0 -77 22.5 -101t99.5 -24h41v-16h-458v16h41q76 0 99.5 24t23.5 101v504h-304v23h304v741h-377q-74 0 -99.5 -38.5t-25.5 -123.5v-219h-17v406z" />
    <glyph glyph-name="tbar" unicode="&#x167;" horiz-adv-x="761" 
d="M711 180l10 -10q-3 -4 -21 -26.5t-31.5 -38.5t-38.5 -40t-48.5 -39t-55 -26.5t-63.5 -11.5q-138 0 -203 72.5t-65 230.5v414h-175v24h175v244h-175v18q110 0 187.5 91.5t105.5 226.5h15v-318h307v-18h-307v-244h229v-24h-229v-449q0 -136 42 -188t115 -52q28 0 55 9.5
t46 21t41 33t32.5 34.5t29 37t22.5 29z" />
    <glyph glyph-name="Utilde" unicode="&#x168;" horiz-adv-x="1550" 
d="M1049 1434h460v-19h-41q-87 0 -132.5 -26t-45.5 -97v-725q0 -84 -15 -162.5t-51.5 -155.5t-91.5 -134t-142 -92t-195 -35q-123 0 -227.5 35t-186.5 105t-129 187.5t-47 270.5v706q0 77 -22.5 100t-100.5 23h-41v19h461v-19h-41q-78 0 -100.5 -23t-22.5 -100v-706
q0 -148 39 -256t109 -169.5t158 -89.5t196 -26q192 5 310 147t118 375v725q0 71 -45.5 97t-132.5 26h-41v19zM1100 1858l16 -5q-21 -69 -79 -123.5t-119 -54.5q-45 0 -153 40t-144 44q-47 5 -74.5 -14.5t-52.5 -83.5l-19 6q4 10 11 26.5t29 51.5t46 51q30 22 61.5 32t90 6.5
t133.5 -30.5q120 -40 177.5 -26.5t76.5 80.5z" />
    <glyph glyph-name="utilde" unicode="&#x169;" horiz-adv-x="1255" 
d="M1194 16h41v-16h-297v227q-32 -103 -118 -171t-212 -68q-191 0 -307.5 97t-116.5 286v477q0 78 -22.5 101.5t-100.5 23.5h-41v18h295v-645q0 -158 89 -246t231 -88q59 0 110 20.5t85.5 55t59.5 79t36.5 92t11.5 95.5v494q0 78 -22.5 101.5t-98.5 23.5h-41v18h295v-850
q0 -77 23 -101t100 -24zM911 1448l17 -4q-21 -69 -79.5 -123.5t-119.5 -54.5q-45 0 -153 40t-144 44q-47 5 -74.5 -14.5t-52.5 -84.5l-18 6q4 10 11 26.5t29 51.5t46 51q30 22 61 32.5t89.5 7t133.5 -30.5q120 -40 177.5 -27t76.5 80z" />
    <glyph glyph-name="Umacron" unicode="&#x16a;" horiz-adv-x="1550" 
d="M1049 1434h460v-19h-41q-87 0 -132.5 -26t-45.5 -97v-725q0 -84 -15 -162.5t-51.5 -155.5t-91.5 -134t-142 -92t-195 -35q-123 0 -227.5 35t-186.5 105t-129 187.5t-47 270.5v706q0 77 -22.5 100t-100.5 23h-41v19h461v-19h-41q-78 0 -100.5 -23t-22.5 -100v-706
q0 -148 39 -256t109 -169.5t158 -89.5t196 -26q192 5 310 147t118 375v725q0 71 -45.5 97t-132.5 26h-41v19zM446 1765h699v-24h-699v24z" />
    <glyph glyph-name="umacron" unicode="&#x16b;" horiz-adv-x="1255" 
d="M1194 16h41v-16h-297v227q-32 -103 -118 -171t-212 -68q-191 0 -307.5 97t-116.5 286v477q0 78 -22.5 101.5t-100.5 23.5h-41v18h295v-645q0 -158 89 -246t231 -88q59 0 110 20.5t85.5 55t59.5 79t36.5 92t11.5 95.5v494q0 78 -22.5 101.5t-98.5 23.5h-41v18h295v-850
q0 -77 23 -101t100 -24zM258 1356h698v-25h-698v25z" />
    <glyph glyph-name="Ubreve" unicode="&#x16c;" horiz-adv-x="1550" 
d="M1049 1434h460v-19h-41q-87 0 -132.5 -26t-45.5 -97v-725q0 -84 -15 -162.5t-51.5 -155.5t-91.5 -134t-142 -92t-195 -35q-123 0 -227.5 35t-186.5 105t-129 187.5t-47 270.5v706q0 77 -22.5 100t-100.5 23h-41v19h461v-19h-41q-78 0 -100.5 -23t-22.5 -100v-706
q0 -148 39 -256t109 -169.5t158 -89.5t196 -26q192 5 310 147t118 375v725q0 71 -45.5 97t-132.5 26h-41v19zM1010 1860h14q-3 -85 -67 -153.5t-162 -68.5t-162.5 69t-67.5 153h15q40 -134 215 -134q172 0 215 134z" />
    <glyph glyph-name="ubreve" unicode="&#x16d;" horiz-adv-x="1255" 
d="M1194 16h41v-16h-297v227q-32 -103 -118 -171t-212 -68q-191 0 -307.5 97t-116.5 286v477q0 78 -22.5 101.5t-100.5 23.5h-41v18h295v-645q0 -158 89 -246t231 -88q59 0 110 20.5t85.5 55t59.5 79t36.5 92t11.5 95.5v494q0 78 -22.5 101.5t-98.5 23.5h-41v18h295v-850
q0 -77 23 -101t100 -24zM821 1450h15q-3 -84 -67 -152.5t-163 -68.5q-98 0 -162 68.5t-67 152.5h14q40 -133 215 -133q172 0 215 133z" />
    <glyph glyph-name="Uring" unicode="&#x16e;" horiz-adv-x="1550" 
d="M1049 1434h460v-19h-41q-87 0 -132.5 -26t-45.5 -97v-725q0 -84 -15 -162.5t-51.5 -155.5t-91.5 -134t-142 -92t-195 -35q-123 0 -227.5 35t-186.5 105t-129 187.5t-47 270.5v706q0 77 -22.5 100t-100.5 23h-41v19h461v-19h-41q-78 0 -100.5 -23t-22.5 -100v-706
q0 -148 39 -256t109 -169.5t158 -89.5t196 -26q192 5 310 147t118 375v725q0 71 -45.5 97t-132.5 26h-41v19zM776 1950q77 0 135 -51t58 -130q0 -77 -58 -127.5t-135 -50.5q-78 0 -136 50.5t-58 127.5q0 79 58 130t136 51zM776 1604q53 0 86 44.5t33 120.5t-33 122t-86 46
q-54 0 -87.5 -46t-33.5 -122t33 -120.5t88 -44.5z" />
    <glyph glyph-name="uring" unicode="&#x16f;" horiz-adv-x="1255" 
d="M1194 16h41v-16h-297v227q-32 -103 -118 -171t-212 -68q-191 0 -307.5 97t-116.5 286v477q0 78 -22.5 101.5t-100.5 23.5h-41v18h295v-645q0 -158 89 -246t231 -88q59 0 110 20.5t85.5 55t59.5 79t36.5 92t11.5 95.5v494q0 78 -22.5 101.5t-98.5 23.5h-41v18h295v-850
q0 -77 23 -101t100 -24zM608 1540q77 0 135 -50.5t58 -129.5q0 -77 -58 -127.5t-135 -50.5q-78 0 -136 50.5t-58 127.5q0 79 58 129.5t136 50.5zM608 1194q53 0 86 45t33 121t-33 122t-86 46q-54 0 -87.5 -46t-33.5 -122t33.5 -121t87.5 -45z" />
    <glyph glyph-name="Uhungarumlaut" unicode="&#x170;" horiz-adv-x="1550" 
d="M1049 1434h460v-19h-41q-87 0 -132.5 -26t-45.5 -97v-725q0 -84 -15 -162.5t-51.5 -155.5t-91.5 -134t-142 -92t-195 -35q-123 0 -227.5 35t-186.5 105t-129 187.5t-47 270.5v706q0 77 -22.5 100t-100.5 23h-41v19h461v-19h-41q-78 0 -100.5 -23t-22.5 -100v-706
q0 -148 39 -256t109 -169.5t158 -89.5t196 -26q192 5 310 147t118 375v725q0 71 -45.5 97t-132.5 26h-41v19zM846 1858q39 -30 -17 -89l-221 -219l-6 6q129 216 160 265q44 66 84 37zM1087 1858q42 -31 -16 -89q-17 -19 -72 -74t-101 -100l-46 -45l-6 6q129 216 160 265
q44 66 81 37z" />
    <glyph glyph-name="uhungarumlaut" unicode="&#x171;" horiz-adv-x="1255" 
d="M1194 16h41v-16h-297v227q-32 -103 -118 -171t-212 -68q-191 0 -307.5 97t-116.5 286v477q0 78 -22.5 101.5t-100.5 23.5h-41v18h295v-645q0 -158 89 -246t231 -88q59 0 110 20.5t85.5 55t59.5 79t36.5 92t11.5 95.5v494q0 78 -22.5 101.5t-98.5 23.5h-41v18h295v-850
q0 -77 23 -101t100 -24zM657 1448q39 -30 -16 -88l-221 -219l-6 6q128 215 159 264q44 66 84 37zM899 1448q42 -30 -16 -88q-17 -19 -72 -74t-101 -100l-46 -45l-7 6q129 215 160 264q45 66 82 37z" />
    <glyph glyph-name="Uogonek" unicode="&#x172;" horiz-adv-x="1548" 
d="M1049 1434h458v-19h-39q-87 0 -132.5 -26t-45.5 -97v-725q0 -79 -13.5 -153.5t-45.5 -148.5t-80 -130.5t-124 -95.5t-171 -49q-77 -107 -82 -176q-4 -44 14.5 -72t53.5 -31q38 -3 76.5 19.5t66.5 58.5l8 -4q-28 -40 -80 -71.5t-114 -24.5q-71 8 -103 51t-4 108
q27 64 139 142q-12 -2 -36 -2q-124 0 -228.5 35t-186.5 105t-128.5 187.5t-46.5 270.5v706q0 77 -22.5 100t-100.5 23h-41v19h459v-19h-41q-76 0 -98.5 -23t-22.5 -100v-706q0 -148 38.5 -256t108.5 -169.5t158 -89.5t197 -26q192 5 309 147t117 375v725q0 71 -44.5 97
t-131.5 26h-41v19z" />
    <glyph glyph-name="uogonek" unicode="&#x173;" horiz-adv-x="1257" 
d="M1071 0q-43 -63 -63.5 -104.5t-24.5 -81.5q-4 -44 14.5 -72t53.5 -31q76 -6 145 78l6 -4q-26 -39 -78.5 -71t-113.5 -25q-71 8 -104 51t-5 108q30 67 158 152h-119v227q-33 -103 -118.5 -171t-211.5 -68q-192 0 -309 97t-117 286v477q0 78 -22.5 101.5t-100.5 23.5h-41
v18h297v-645q0 -159 88 -246.5t232 -87.5q73 0 132.5 31t95.5 81.5t55.5 110t19.5 119.5v494q0 78 -22.5 101.5t-100.5 23.5h-41v18h297v-850q0 -77 23 -101t100 -24h41v-16h-166z" />
    <glyph glyph-name="Wcircumflex" unicode="&#x174;" horiz-adv-x="2197" 
d="M1753 1434h424v-19h-41q-80 0 -124 -26.5t-73 -96.5l-499 -1292h-25l-323 766l-297 -766h-25l-547 1292q-39 73 -72 98t-106 25h-25v19h443v-19h-41q-73 0 -81 -25.5t26 -97.5l473 -1114l239 617l-211 497q-39 74 -72.5 98.5t-107.5 24.5h-22v19h442v-19h-41
q-73 0 -81 -25.5t26 -97.5l135 -321l133 340q10 26 14.5 43.5t0 29.5t-9.5 18t-23.5 9t-32.5 3.5t-47 0.5h-2v19h352v-19h-41q-80 0 -124 -26.5t-73 -96.5l-135 -350l326 -764l432 1114q29 72 -4 97.5t-119 25.5h-41v19zM1141 1870l299 -250l-6 -12l-293 159l-293 -159
l-8 12z" />
    <glyph glyph-name="wcircumflex" unicode="&#x175;" horiz-adv-x="1650" 
d="M1341 991h289v-18h-14q-66 0 -96.5 -27.5t-57.5 -95.5l-327 -850h-25l-272 618l-263 -618h-22l-393 848q-35 76 -68.5 100.5t-109.5 24.5h-23v18h426v-18h-31q-74 0 -84 -27t25 -96l317 -711l213 504l-90 205q-33 76 -66.5 100.5t-109.5 24.5h-22v18h426v-18h-31
q-75 0 -86.5 -27t22.5 -96l301 -700l271 700q27 74 6.5 98.5t-100.5 24.5h-5v18zM774 1460l299 -250l-6 -12l-293 160l-293 -160l-8 12z" />
    <glyph glyph-name="Ycircumflex" unicode="&#x176;" horiz-adv-x="1386" 
d="M979 1434h387v-19h-41q-38 0 -62 -5t-44.5 -23t-32.5 -35t-37 -58l-375 -696v-457q0 -77 23.5 -101t99.5 -24h41v-16h-459v16h41q77 0 100 24t23 101v422l-434 729q-48 73 -64 88q-37 35 -102 35h-23v19h441v-19h-41q-77 0 -91.5 -26.5t23.5 -96.5l406 -682l368 688
q17 33 17.5 56t-16 36t-43 19t-66.5 6h-39v19zM735 1870l299 -250l-6 -12l-293 159l-293 -159l-8 12z" />
    <glyph glyph-name="ycircumflex" unicode="&#x177;" horiz-adv-x="1101" 
d="M793 991h288v-18h-16q-65 0 -97 -28.5t-61 -96.5l-358 -848q-50 -113 -102 -195t-101 -128.5t-101 -74t-101.5 -31t-102.5 0.5q-42 5 -62.5 18.5t-17.5 42.5t24.5 36.5t63.5 2.5q76 -13 138.5 -10t116.5 32t108 103t112 203l-360 848q-31 76 -64 100.5t-110 24.5h-23v18
h426v-18h-28q-76 0 -87.5 -26.5t21.5 -98.5l295 -690l291 690q30 76 11 100.5t-99 24.5h-4v18zM602 1460l299 -250l-6 -12l-293 160l-293 -160l-8 12z" />
    <glyph glyph-name="Ydieresis" unicode="&#x178;" horiz-adv-x="1386" 
d="M979 1434h387v-19h-41q-38 0 -62 -5t-44.5 -23t-32.5 -35t-37 -58l-375 -696v-457q0 -77 23.5 -101t99.5 -24h41v-16h-459v16h41q77 0 100 24t23 101v422l-434 729q-48 73 -64 88q-37 35 -102 35h-23v19h441v-19h-41q-77 0 -91.5 -26.5t23.5 -96.5l406 -682l368 688
q17 33 17.5 56t-16 36t-43 19t-66.5 6h-39v19zM575 1843q43 0 73 -29.5t30 -70.5t-30 -71t-73 -30t-73.5 30t-30.5 71t30.5 70.5t73.5 29.5zM891 1843q43 0 73.5 -29.5t30.5 -70.5t-30.5 -71t-73.5 -30t-73 30t-30 71t30 70.5t73 29.5z" />
    <glyph glyph-name="Zacute" unicode="&#x179;" horiz-adv-x="1294" 
d="M1176 446h16v-446h-1090v23l924 1386h-747q-72 0 -98.5 -45t-26.5 -131v-246h-17v447h1039v-25l-926 -1386h801q71 0 98 45.5t27 132.5v245zM813 1823q30 -38 -39 -82l-266 -156l-6 8q178 176 223 215q60 54 88 15z" />
    <glyph glyph-name="zacute" unicode="&#x17a;" horiz-adv-x="942" 
d="M862 354h19v-354h-820v23l652 944h-492q-72 0 -98.5 -45t-26.5 -131v-154h-16v354h764v-24l-651 -944h544q73 0 99 45.5t26 132.5v153zM637 1413q30 -38 -39 -82l-266 -155l-6 8q178 176 223 215q59 54 88 14z" />
    <glyph glyph-name="Zdotaccent" unicode="&#x17b;" horiz-adv-x="1294" 
d="M1176 446h16v-446h-1090v23l924 1386h-747q-72 0 -98.5 -45t-26.5 -131v-246h-17v447h1039v-25l-926 -1386h801q71 0 98 45.5t27 132.5v245zM666 1843q43 0 73.5 -29.5t30.5 -70.5t-30.5 -71t-73.5 -30t-73 30t-30 71t30 70.5t73 29.5z" />
    <glyph glyph-name="zdotaccent" unicode="&#x17c;" horiz-adv-x="942" 
d="M862 354h19v-354h-820v23l652 944h-492q-72 0 -98.5 -45t-26.5 -131v-154h-16v354h764v-24l-651 -944h544q73 0 99 45.5t26 132.5v153zM489 1434q43 0 74 -30t31 -71t-31 -70.5t-74 -29.5t-72.5 29.5t-29.5 70.5t29.5 71t72.5 30z" />
    <glyph glyph-name="Zcaron" unicode="&#x17d;" horiz-adv-x="1294" 
d="M1176 446h16v-446h-1090v23l924 1386h-747q-72 0 -98.5 -45t-26.5 -131v-246h-17v447h1039v-25l-926 -1386h801q71 0 98 45.5t27 132.5v245zM958 1864l9 -13l-301 -249l-299 249l6 13l293 -160z" />
    <glyph glyph-name="zcaron" unicode="&#x17e;" horiz-adv-x="942" 
d="M862 354h19v-354h-820v23l652 944h-492q-72 0 -98.5 -45t-26.5 -131v-154h-16v354h764v-24l-651 -944h544q73 0 99 45.5t26 132.5v153zM782 1454l9 -12l-302 -250l-299 250l7 12l292 -160z" />
    <glyph glyph-name="longs" unicode="&#x17f;" horiz-adv-x="653" 
d="M741 1407q31 -13 46.5 -33.5t5.5 -44.5q-10 -25 -44.5 -23.5t-66.5 29.5q-46 40 -105 68.5t-110 17.5q-28 -7 -47 -20t-36.5 -42.5t-26.5 -83.5t-9 -134v-1000q0 -77 23 -101t100 -24h113v-16h-533v16h41q77 0 100 24t23 101v832h-174v18h174v43q0 197 61 294t199 114
q67 7 141 -4t125 -31z" />
    <glyph glyph-name="AEacute" unicode="&#x1fc;" horiz-adv-x="2091" 
d="M1970 406h19v-406h-1086v16h41q77 0 100 24t23 101v336h-569l-222 -336q-50 -75 -40 -100t88 -25h41v-16h-345v16h33q67 0 111 29.5t86 95.5l780 1188q29 43 14 64q-20 22 -100 22h-41v19h1049v-406h-17v219q0 84 -26.5 123t-98.5 39h-610v-670h416q73 0 99 42t26 128v41
h16v-442h-16v39q0 86 -26 128t-99 42h-416v-694h645q74 0 99.5 39t25.5 124v220zM512 502h555v846zM1458 1823q30 -38 -39 -82l-266 -156l-6 8q178 176 223 215q60 54 88 15z" />
    <glyph glyph-name="aeacute" unicode="&#x1fd;" horiz-adv-x="1781" 
d="M1853 412l11 -9q-18 -32 -34.5 -59.5t-49.5 -72t-66.5 -80t-82.5 -75t-100.5 -66.5t-118.5 -44.5t-138 -17.5q-215 0 -355.5 111.5t-160.5 301.5q-5 -75 -31 -145.5t-69.5 -129.5t-111 -96.5t-149.5 -41.5q-62 -3 -122.5 10t-112 41t-84.5 78t-35 114q-2 63 20 111.5
t56.5 79.5t93 55t114 37.5t134.5 26.5q221 38 282 157q0 88 -18 147t-52.5 89.5t-75 42.5t-95.5 12q-37 0 -71 -16.5t-53 -34t-51 -52t-46 -48.5q-37 -36 -69.5 -39.5t-49.5 20.5q-15 19 -6.5 44t37.5 44q161 99 313 99q287 0 350 -228q75 104 188.5 166t239.5 62
q170 0 283.5 -103t113.5 -268h-802q-10 -80 -5 -150q21 -203 142.5 -313t296.5 -121q330 -20 540 361zM1249 983q-136 2 -237 -89.5t-129 -242.5h669q3 65 -13 123t-51.5 105t-96.5 75t-142 29zM743 420v254q-22 -26 -36.5 -40t-49 -38t-89.5 -42.5t-132 -33.5
q-284 -60 -272 -280q6 -116 89 -173.5t200 -46.5q122 12 206 135t84 265zM1139 1413q30 -38 -39 -82l-266 -155l-7 8q179 176 224 215q59 54 88 14z" />
    <glyph glyph-name="Oslashacute" unicode="&#x1fe;" horiz-adv-x="1646" 
d="M1368 1245q105 -99 161 -234t56 -294q0 -208 -94 -373.5t-268.5 -260.5t-399.5 -95q-318 0 -528 184l-141 -141l-17 16l142 141q-105 99 -161.5 234.5t-56.5 294.5q0 156 55 290.5t153 232t241 153t313 55.5q315 0 527 -186l143 141l16 -17zM201 717q0 -281 137 -469
l956 956q-83 105 -203 162t-268 57q-283 0 -452.5 -195t-169.5 -511zM823 10q188 0 330 89.5t217.5 249.5t75.5 368q0 281 -137 469l-957 -957q83 -105 203 -162t268 -57zM969 1823q30 -38 -39 -82l-266 -156l-7 8q179 176 224 215q60 54 88 15z" />
    <glyph glyph-name="oslashacute" unicode="&#x1ff;" horiz-adv-x="1171" 
d="M979 862q151 -142 151 -366q0 -223 -149 -365.5t-385 -142.5q-223 0 -367 125l-151 -152l-17 16l150 150q-150 144 -150 369q0 224 149 367t386 143q214 0 367 -127l151 151l16 -16zM193 496q0 -186 75 -312l641 641q-109 160 -313 160q-188 0 -295.5 -133t-107.5 -356z
M596 6q188 0 295.5 133.5t107.5 356.5q0 185 -75 311l-643 -643q111 -158 315 -158zM741 1413q30 -38 -39 -82l-266 -155l-6 8q178 176 223 215q59 54 88 14z" />
    <glyph glyph-name="Scommaaccent" unicode="&#x218;" horiz-adv-x="1241" 
d="M672 831q121 -49 188 -80t141.5 -77t107.5 -90t50 -106.5t4 -139.5q-25 -154 -161.5 -252t-333.5 -98q-102 0 -199 25t-155 54.5t-105 51.5t-64 18q-17 -3 -20.5 -25.5t-3.5 -89.5v-26v-29h-19v258v226h19v-76q0 -95 70.5 -176.5t188.5 -131.5t257 -59q188 -10 301 67
t125 224q4 45 -6 84t-26.5 69t-49.5 59t-61.5 48t-77.5 43t-82.5 37.5t-90.5 36.5t-89 37q-226 97 -311 198.5t-56 253.5q13 70 61.5 127t113.5 90t134 49.5t131 14.5q69 -3 130.5 -18t100.5 -34t69.5 -36.5t51 -26.5t31.5 -4q10 3 12 15t1 59v51v29h18v-258v-226h-18v76
q0 153 -100 248t-296 104q-139 6 -232 -55.5t-102 -193.5q-6 -103 75.5 -183.5t277.5 -161.5zM684 -131q39 0 63.5 -25t26.5 -63q11 -161 -147 -326l-13 13q58 53 90 127t-12 90q-100 21 -100 96q0 37 27 62.5t65 25.5z" />
    <glyph glyph-name="scommaaccent" unicode="&#x219;" horiz-adv-x="905" 
d="M471 584q23 -10 72 -29t80 -32.5t74.5 -35t71 -44t53 -51.5t35.5 -65.5t5 -78.5q-10 -87 -66.5 -148t-139 -88t-181.5 -24q-74 2 -141 21.5t-104 41t-69.5 37.5t-49.5 14q-35 -7 -35 -90v-30h-15v411h15v-78q0 -73 37.5 -132.5t95.5 -95t120.5 -55.5t121.5 -22
q126 -6 219.5 42.5t99.5 142.5q2 31 -6 57t-31 49.5t-45.5 40.5t-67.5 38t-77.5 34t-93.5 37q-90 35 -149.5 66.5t-106 72.5t-64 92t-6.5 115q11 63 55 108t100.5 65.5t101.5 28.5t77 7q71 -2 128 -16.5t84.5 -30.5t50.5 -29.5t34 -14.5q28 0 28 58v39h13v-412h-13v78
q0 147 -75 223t-252 82q-92 3 -170.5 -46.5t-77.5 -137.5q0 -19 4 -35.5t14.5 -31.5t19 -26.5t28 -24.5l31.5 -21t38.5 -20t39.5 -18t44.5 -19t44.5 -19zM459 -131q39 0 63.5 -25t26.5 -63q11 -160 -148 -326l-12 13q58 53 90 127t-12 90q-100 21 -100 96q0 37 27 62.5
t65 25.5z" />
    <glyph glyph-name="circumflex" unicode="&#x2c6;" horiz-adv-x="681" 
d="M342 1460l299 -250l-6 -12l-293 160l-293 -160l-8 12z" />
    <glyph glyph-name="caron" unicode="&#x2c7;" horiz-adv-x="681" 
d="M633 1454l8 -12l-301 -250l-299 250l6 12l293 -160z" />
    <glyph glyph-name="breve" unicode="&#x2d8;" horiz-adv-x="540" 
d="M485 1450h15q-3 -84 -67 -152.5t-163 -68.5q-98 0 -162 68.5t-67 152.5h14q40 -133 215 -133q172 0 215 133z" />
    <glyph glyph-name="dotaccent" unicode="&#x2d9;" horiz-adv-x="288" 
d="M143 1434q43 0 74 -30t31 -71t-31 -70.5t-74 -29.5t-72.5 29.5t-29.5 70.5t29.5 71t72.5 30z" />
    <glyph glyph-name="ring" unicode="&#x2da;" horiz-adv-x="468" 
d="M236 1540q77 0 134.5 -50.5t57.5 -129.5q0 -77 -58 -127.5t-134 -50.5q-78 0 -136.5 50.5t-58.5 127.5q0 79 58.5 129.5t136.5 50.5zM236 1194q53 0 85.5 45t32.5 121t-32.5 122t-85.5 46q-54 0 -87.5 -46t-33.5 -122t33.5 -121t87.5 -45z" />
    <glyph glyph-name="ogonek" unicode="&#x2db;" horiz-adv-x="397" 
d="M348 -211l8 -4q-26 -39 -79 -71t-115 -25q-70 8 -102.5 51t-4.5 108q29 65 156 152h14q-80 -112 -88 -186q-4 -44 14.5 -72t53.5 -31q38 -3 76.5 19.5t66.5 58.5z" />
    <glyph glyph-name="tilde" unicode="&#x2dc;" horiz-adv-x="722" 
d="M666 1448l16 -4q-21 -69 -79.5 -123.5t-119.5 -54.5q-45 0 -153 40t-144 44q-47 5 -74.5 -14.5t-52.5 -84.5l-18 6q4 10 11 26.5t29 51.5t46 51q30 22 61 32.5t90 7t134 -30.5q120 -40 177.5 -27t76.5 80z" />
    <glyph glyph-name="hungarumlaut" unicode="&#x2dd;" horiz-adv-x="585" 
d="M285 1448q38 -30 -17 -88l-221 -219l-6 6q129 215 160 264q44 66 84 37zM526 1448q42 -30 -16 -88q-17 -19 -72 -74t-101 -100l-46 -45l-6 6q128 215 159 264q45 66 82 37z" />
    <glyph glyph-name="Wgrave" unicode="&#x1e80;" horiz-adv-x="2197" 
d="M1753 1434h424v-19h-41q-80 0 -124 -26.5t-73 -96.5l-499 -1292h-25l-323 766l-297 -766h-25l-547 1292q-39 73 -72 98t-106 25h-25v19h443v-19h-41q-73 0 -81 -25.5t26 -97.5l473 -1114l239 617l-211 497q-39 74 -72.5 98.5t-107.5 24.5h-22v19h442v-19h-41
q-73 0 -81 -25.5t26 -97.5l135 -321l133 340q10 26 14.5 43.5t0 29.5t-9.5 18t-23.5 9t-32.5 3.5t-47 0.5h-2v19h352v-19h-41q-80 0 -124 -26.5t-73 -96.5l-135 -350l326 -764l432 1114q29 72 -4 97.5t-119 25.5h-41v19zM1081 1808l224 -215l-7 -8q-217 125 -266 156
q-69 44 -39 82q28 39 88 -15z" />
    <glyph glyph-name="wgrave" unicode="&#x1e81;" horiz-adv-x="1650" 
d="M1341 991h289v-18h-14q-66 0 -96.5 -27.5t-57.5 -95.5l-327 -850h-25l-272 618l-263 -618h-22l-393 848q-35 76 -68.5 100.5t-109.5 24.5h-23v18h426v-18h-31q-74 0 -84 -27t25 -96l317 -711l213 504l-90 205q-33 76 -66.5 100.5t-109.5 24.5h-22v18h426v-18h-31
q-75 0 -86.5 -27t22.5 -96l301 -700l271 700q27 74 6.5 98.5t-100.5 24.5h-5v18zM776 1399l223 -215l-6 -8q-217 124 -266 155q-69 44 -39 82q29 40 88 -14z" />
    <glyph glyph-name="Wacute" unicode="&#x1e82;" horiz-adv-x="2197" 
d="M1753 1434h424v-19h-41q-80 0 -124 -26.5t-73 -96.5l-499 -1292h-25l-323 766l-297 -766h-25l-547 1292q-39 73 -72 98t-106 25h-25v19h443v-19h-41q-73 0 -81 -25.5t26 -97.5l473 -1114l239 617l-211 497q-39 74 -72.5 98.5t-107.5 24.5h-22v19h442v-19h-41
q-73 0 -81 -25.5t26 -97.5l135 -321l133 340q10 26 14.5 43.5t0 29.5t-9.5 18t-23.5 9t-32.5 3.5t-47 0.5h-2v19h352v-19h-41q-80 0 -124 -26.5t-73 -96.5l-135 -350l326 -764l432 1114q29 72 -4 97.5t-119 25.5h-41v19zM1286 1823q30 -38 -39 -82l-266 -156l-6 8
q178 176 223 215q60 54 88 15z" />
    <glyph glyph-name="wacute" unicode="&#x1e83;" horiz-adv-x="1650" 
d="M1341 991h289v-18h-14q-66 0 -96.5 -27.5t-57.5 -95.5l-327 -850h-25l-272 618l-263 -618h-22l-393 848q-35 76 -68.5 100.5t-109.5 24.5h-23v18h426v-18h-31q-74 0 -84 -27t25 -96l317 -711l213 504l-90 205q-33 76 -66.5 100.5t-109.5 24.5h-22v18h426v-18h-31
q-75 0 -86.5 -27t22.5 -96l301 -700l271 700q27 74 6.5 98.5t-100.5 24.5h-5v18zM879 1413q30 -38 -39 -82l-267 -155l-6 8q179 176 224 215q59 54 88 14z" />
    <glyph glyph-name="Wdieresis" unicode="&#x1e84;" horiz-adv-x="2197" 
d="M1753 1434h424v-19h-41q-80 0 -124 -26.5t-73 -96.5l-499 -1292h-25l-323 766l-297 -766h-25l-547 1292q-39 73 -72 98t-106 25h-25v19h443v-19h-41q-73 0 -81 -25.5t26 -97.5l473 -1114l239 617l-211 497q-39 74 -72.5 98.5t-107.5 24.5h-22v19h442v-19h-41
q-73 0 -81 -25.5t26 -97.5l135 -321l133 340q10 26 14.5 43.5t0 29.5t-9.5 18t-23.5 9t-32.5 3.5t-47 0.5h-2v19h352v-19h-41q-80 0 -124 -26.5t-73 -96.5l-135 -350l326 -764l432 1114q29 72 -4 97.5t-119 25.5h-41v19zM981 1843q43 0 72.5 -29.5t29.5 -70.5t-29.5 -71
t-72.5 -30t-73.5 30t-30.5 71t30.5 70.5t73.5 29.5zM1296 1843q43 0 74 -29.5t31 -70.5t-31 -71t-74 -30q-42 0 -72 30t-30 71t29.5 70.5t72.5 29.5z" />
    <glyph glyph-name="wdieresis" unicode="&#x1e85;" horiz-adv-x="1650" 
d="M1341 991h289v-18h-14q-66 0 -96.5 -27.5t-57.5 -95.5l-327 -850h-25l-272 618l-263 -618h-22l-393 848q-35 76 -68.5 100.5t-109.5 24.5h-23v18h426v-18h-31q-74 0 -84 -27t25 -96l317 -711l213 504l-90 205q-33 76 -66.5 100.5t-109.5 24.5h-22v18h426v-18h-31
q-75 0 -86.5 -27t22.5 -96l301 -700l271 700q27 74 6.5 98.5t-100.5 24.5h-5v18zM616 1434q43 0 73 -30t30 -71t-30 -70.5t-73 -29.5t-73.5 29.5t-30.5 70.5t30.5 71t73.5 30zM932 1434q43 0 73.5 -30t30.5 -71t-30.5 -70.5t-73.5 -29.5t-73 29.5t-30 70.5t30 71t73 30z" />
    <glyph glyph-name="Ygrave" unicode="&#x1ef2;" horiz-adv-x="1386" 
d="M979 1434h387v-19h-41q-38 0 -62 -5t-44.5 -23t-32.5 -35t-37 -58l-375 -696v-457q0 -77 23.5 -101t99.5 -24h41v-16h-459v16h41q77 0 100 24t23 101v422l-434 729q-48 73 -64 88q-37 35 -102 35h-23v19h441v-19h-41q-77 0 -91.5 -26.5t23.5 -96.5l406 -682l368 688
q17 33 17.5 56t-16 36t-43 19t-66.5 6h-39v19zM635 1808l223 -215l-6 -8q-217 125 -266 156q-69 44 -39 82q28 39 88 -15z" />
    <glyph glyph-name="ygrave" unicode="&#x1ef3;" horiz-adv-x="1101" 
d="M793 991h288v-18h-16q-65 0 -97 -28.5t-61 -96.5l-358 -848q-50 -113 -102 -195t-101 -128.5t-101 -74t-101.5 -31t-102.5 0.5q-42 5 -62.5 18.5t-17.5 42.5t24.5 36.5t63.5 2.5q76 -13 138.5 -10t116.5 32t108 103t112 203l-360 848q-31 76 -64 100.5t-110 24.5h-23v18
h426v-18h-28q-76 0 -87.5 -26.5t21.5 -98.5l295 -690l291 690q30 76 11 100.5t-99 24.5h-4v18zM522 1399l223 -215l-6 -8q-217 124 -266 155q-69 44 -39 82q29 40 88 -14z" />
    <glyph glyph-name="endash" unicode="&#x2013;" horiz-adv-x="1087" 
d="M123 668h842v-23h-842v23z" />
    <glyph glyph-name="emdash" unicode="&#x2014;" horiz-adv-x="1193" 
d="M123 668h948v-23h-948v23z" />
    <glyph glyph-name="quoteleft" unicode="&#x2018;" horiz-adv-x="456" 
d="M219 1329q115 -24 115 -108q0 -43 -31 -73t-74 -30q-44 0 -72.5 29.5t-31.5 73.5q-6 95 40.5 190t129.5 178l14 -12q-67 -62 -103.5 -145.5t13.5 -102.5z" />
    <glyph glyph-name="quoteright" unicode="&#x2019;" horiz-adv-x="454" 
d="M225 1446q45 0 73.5 -28.5t31.5 -71.5q14 -184 -170 -371l-13 14q66 61 102.5 145t-11.5 103q-115 21 -115 109q0 41 29.5 70.5t72.5 29.5z" />
    <glyph glyph-name="quotesinglbase" unicode="&#x201a;" horiz-adv-x="454" 
d="M227 188q44 0 72 -28.5t31 -71.5q14 -182 -168 -371l-15 13q64 59 101 140q42 90 -4 105l-6 2q-115 24 -115 111q0 41 30.5 70.5t73.5 29.5z" />
    <glyph glyph-name="quotedblleft" unicode="&#x201c;" horiz-adv-x="798" 
d="M559 1329q117 -25 117 -108q0 -43 -31 -73t-74 -30q-44 0 -72.5 29.5t-31.5 73.5q-7 95 39.5 189.5t130.5 178.5l12 -12q-66 -63 -102 -146t12 -102zM217 1329q115 -24 115 -108q0 -43 -30 -73t-73 -30q-44 0 -72.5 29.5t-31.5 73.5q-7 95 39.5 189.5t130.5 178.5l12 -12
q-66 -63 -102 -146t12 -102z" />
    <glyph glyph-name="quotedblright" unicode="&#x201d;" horiz-adv-x="798" 
d="M227 1446q45 0 73 -29t30 -71q14 -182 -168 -371l-15 14q67 60 104 145t-13 103q-115 21 -115 109q0 41 30.5 70.5t73.5 29.5zM569 1446q45 0 73.5 -28.5t31.5 -71.5q11 -186 -170 -371l-15 14q67 60 104 145t-13 103q-115 21 -115 109q0 41 30.5 70.5t73.5 29.5z" />
    <glyph glyph-name="quotedblbase" unicode="&#x201e;" horiz-adv-x="798" 
d="M227 188q45 0 73.5 -28.5t31.5 -71.5q14 -184 -170 -371l-12 13q66 63 101.5 146t-13.5 101q-115 26 -115 111q0 41 30.5 70.5t73.5 29.5zM569 188q45 0 73.5 -28.5t31.5 -71.5q14 -184 -170 -371l-12 13q66 63 101.5 146t-13.5 101q-115 26 -115 111q0 41 30.5 70.5
t73.5 29.5z" />
    <glyph glyph-name="dagger" unicode="&#x2020;" horiz-adv-x="722" 
d="M565 987q40 3 58 -12.5t18 -40.5q0 -58 -76 -53q-54 4 -198 47q26 -229 53 -301q-21 -67 -37 -320t-16 -348h-11q0 95 -16 348t-37 320q27 72 53 301q-144 -43 -198 -47q-76 -5 -76 53t76 53q36 -3 196 -47q-41 149 -45 197q-4 41 11 59t40 18q59 0 54 -77
q-4 -48 -45 -197q160 44 196 47z" />
    <glyph glyph-name="daggerdbl" unicode="&#x2021;" horiz-adv-x="724" 
d="M565 373q78 5 78 -54q0 -25 -18.5 -40t-59.5 -11q-47 4 -196 45q44 -160 47 -196q3 -41 -13 -59.5t-41 -18.5q-58 0 -53 78q3 36 47 196q-164 -42 -198 -45q-39 -4 -57.5 11t-18.5 40q0 59 76 54q54 -4 198 -47q-24 223 -53 301q27 72 53 301q-144 -43 -198 -47
q-76 -5 -76 53q0 25 18 40.5t58 12.5q18 -1 49 -8t56.5 -14t56 -15.5t36.5 -9.5q-44 159 -47 197q-5 77 53 77q25 0 41 -18t13 -59q-3 -38 -47 -197q160 44 196 47q41 3 59.5 -12.5t18.5 -40.5q0 -58 -78 -53q-54 4 -198 47q26 -229 53 -301q-29 -78 -53 -301q144 43 198 47
z" />
    <glyph glyph-name="bullet" unicode="&#x2022;" horiz-adv-x="581" 
d="M291 950q69 0 118.5 -47.5t49.5 -114.5t-49.5 -114t-118.5 -47t-118.5 47t-49.5 114t49.5 114.5t118.5 47.5z" />
    <glyph glyph-name="ellipsis" unicode="&#x2026;" horiz-adv-x="1249" 
d="M227 188q43 0 74 -29.5t31 -70.5t-31 -70.5t-74 -29.5t-73.5 29.5t-30.5 70.5t30.5 70.5t73.5 29.5zM625 188q43 0 73.5 -29.5t30.5 -70.5t-30.5 -70.5t-73.5 -29.5t-74 29.5t-31 70.5t31 70.5t74 29.5zM1022 188q43 0 73.5 -29.5t30.5 -70.5t-30.5 -70.5t-73.5 -29.5
t-72.5 29.5t-29.5 70.5t29.5 70.5t72.5 29.5z" />
    <glyph glyph-name="perthousand" unicode="&#x2030;" horiz-adv-x="2596" 
d="M776 1075q0 -161 -102.5 -267t-245.5 -106t-244.5 106t-101.5 267q0 160 102 266.5t244 106.5t245 -106.5t103 -266.5zM428 723q105 0 165 95.5t60 256.5t-60 256.5t-165 95.5t-165 -95.5t-60 -256.5t60 -256.5t165 -95.5zM1317 729q143 0 245.5 -105t102.5 -266
t-102.5 -265.5t-245.5 -104.5q-142 0 -244 105t-102 265q0 161 102 266t244 105zM1317 6q105 0 166 95.5t61 256.5t-61 257t-166 96q-104 0 -164.5 -96t-60.5 -257t60.5 -256.5t164.5 -95.5zM2167 729q143 0 245.5 -105t102.5 -266t-102.5 -265.5t-245.5 -104.5
q-142 0 -244 105t-102 265q0 161 102 266t244 105zM2167 6q105 0 166 95.5t61 256.5t-61 257t-166 96q-104 0 -164.5 -96t-60.5 -257t60.5 -256.5t164.5 -95.5zM1307 1434h22l-860 -1434h-23z" />
    <glyph glyph-name="guilsinglleft" unicode="&#x2039;" horiz-adv-x="444" 
d="M322 934l-132 -383l132 -383l-11 -6l-209 389l209 389z" />
    <glyph glyph-name="guilsinglright" unicode="&#x203a;" horiz-adv-x="444" 
d="M135 940l207 -389l-207 -389l-12 6l131 383l-131 383z" />
    <glyph glyph-name="fraction" unicode="&#x2044;" horiz-adv-x="571" 
d="M508 1434h22l-464 -1434h-25z" />
    <glyph glyph-name="Euro" unicode="&#x20ac;" horiz-adv-x="1669" 
d="M1593 371l15 -9q-47 -83 -111 -150.5t-147 -121.5t-190 -81.5t-226 -20.5q-173 10 -323.5 80t-258.5 200t-141 299h-170v25h166q-8 54 -8 84q-3 70 6 137h-164v25h168q30 172 134 313t264 221.5t343 75.5q86 -2 162.5 -20.5t126.5 -43t89 -48.5t66.5 -39t43.5 -13
q17 1 20.5 24t3.5 91v8.5v8.5v9v27h17v-483h-17v78q0 157 -151.5 270.5t-390.5 109.5q-156 -3 -281.5 -79t-201.5 -208.5t-91 -301.5h744v-25h-746q0 -8 -0.5 -22t-0.5 -26.5t1 -23.5q0 -67 14 -149h588v-25h-581q28 -124 91.5 -224.5t149.5 -165.5t186.5 -101.5
t208.5 -42.5q197 -10 351 85t241 253z" />
    <glyph glyph-name="ruble" unicode="&#x20bd;" horiz-adv-x="1210" 
d="M571 573h-233v-157h536v-25h-536v-250q0 -77 23 -101t100 -24h112v-16h-532v16h41q77 0 100 24t23 101v250h-164v25h164v157h-164v25h164v694q0 77 -22.5 100t-100.5 23h-41v19h530q280 0 429 -108t149 -322t-149 -322.5t-429 -108.5zM338 1409v-811h197q113 0 197.5 22
t136.5 58t84 90t43.5 110t11.5 126q0 69 -11.5 125t-43.5 110t-84 90t-136.5 58t-197.5 22h-197z" />
    <glyph glyph-name="bitcoin" unicode="&#x20bf;" horiz-adv-x="1298" 
d="M1237 403q0 -193 -134.5 -292.5t-379.5 -108.5v-244h-25v242h-36h-205v-242h-23v242h-393v16h41q77 0 100 24t23 101v1151q0 77 -22.5 100t-100.5 23h-41v19h393v241h23v-241h61q98 0 180 -9v250h25v-254q184 -23 277.5 -97t93.5 -216q0 -244 -330 -303
q230 -19 351.5 -119t121.5 -283zM338 1409v-602h143q113 0 196.5 15t135.5 40.5t83.5 65t43.5 82t12 98.5t-12 98.5t-43.5 82t-83.5 65t-135.5 40.5t-196.5 15h-143zM625 25q471 0 471 378q0 64 -12 117t-44 103t-84 84t-136.5 54.5t-196.5 20.5h-285v-757h287z" />
    <glyph glyph-name="afii61352" unicode="&#x2116;" horiz-adv-x="2443" 
d="M1647 561h735v-24h-735v24zM1143 1415v19h461v-19h-41q-87 0 -133 -26t-46 -97v-1292h-22l-1079 1341v-1200q0 -71 45.5 -98t132.5 -27h41v-16h-461v16h41q87 0 132.5 27t45.5 98v1151q0 71 -45.5 97t-132.5 26h-41v19h354l967 -1201v1059q0 71 -45.5 97t-132.5 26h-41z
M2013 854q-128 0 -223.5 83t-95.5 212q0 131 95.5 215t223.5 84t225 -84.5t97 -214.5q0 -129 -97 -212t-225 -83zM2013 1427q-88 0 -143 -76t-55 -202t54.5 -201.5t143.5 -75.5t144 75.5t55 201.5t-55 202t-144 76z" />
    <glyph glyph-name="minus" unicode="&#x2212;" horiz-adv-x="980" 
d="M123 668h735v-23h-735v23z" />
    <glyph glyph-name="approxequal" unicode="&#x2248;" horiz-adv-x="980" 
d="M289 801q-56 5 -86.5 -16.5t-59.5 -96.5l-20 6q4 12 12 31.5t33 60t51 58.5q36 25 72 37.5t103 8t153 -35.5q138 -48 204.5 -32.5t88.5 93.5l18 -6q-24 -78 -90.5 -140t-136.5 -62q-53 0 -177.5 45t-164.5 49zM547 582q138 -46 204.5 -31.5t88.5 92.5l18 -6
q-24 -78 -91 -140.5t-136 -62.5q-52 0 -176.5 45t-165.5 49q-56 5 -86.5 -16.5t-59.5 -95.5l-20 8q4 12 12 30.5t33 59t51 59.5q36 24 72 36t103.5 8t152.5 -35z" />
    <glyph glyph-name="notequal" unicode="&#x2260;" horiz-adv-x="980" 
d="M858 788h-233l-238 -264h471v-22h-491l-138 -154l-18 17l123 137h-211v22h233l236 264h-469v23h491l138 154l16 -17l-123 -137h213v-23z" />
    <glyph glyph-name="commaaccent" unicode="&#xf6c3;" horiz-adv-x="266" 
d="M133 -131q39 0 63.5 -25t26.5 -63q11 -161 -147 -326l-13 13q58 53 90 127t-12 90q-100 21 -100 96q0 37 27 62.5t65 25.5z" />
    </font>
</defs>
</svg>
