<svg fill="none" xmlns="http://www.w3.org/2000/svg" viewBox="0 0 20 20"><path fill-rule="evenodd" clip-rule="evenodd" d="M12.571 4.5a1.312 1.312 0 00.912-.366 1.242 1.242 0 00.28-1.366 1.23 1.23 0 00-.276-.406A1.3 1.3 0 0012.58 2a1.317 1.317 0 00-.91.363 1.221 1.221 0 00-.006 1.768 1.288 1.288 0 00.908.369zM4.696 17c-.73 0-1.445-.21-2.053-.606a3.617 3.617 0 01-1.362-1.612 3.5 3.5 0 01-.21-2.077 3.564 3.564 0 011.012-1.84 3.73 3.73 0 011.892-.983 3.794 3.794 0 012.136.204A3.676 3.676 0 017.77 11.41c.406.59.623 1.285.623 1.996a3.548 3.548 0 01-1.084 2.54A3.755 3.755 0 014.696 17zm8.554-.606a3.772 3.772 0 002.054.606c.98-.001 1.92-.38 2.612-1.054A3.548 3.548 0 0019 13.406c0-.71-.217-1.405-.623-1.996a3.675 3.675 0 00-1.659-1.324 3.794 3.794 0 00-2.136-.204 3.73 3.73 0 00-1.892.983 3.564 3.564 0 00-1.012 1.84 3.5 3.5 0 00.21 2.076c.28.657.754 1.218 1.362 1.613zm.714-4.936a2.46 2.46 0 013.043.292c.452.44.706 1.035.707 1.656 0 .464-.141.917-.406 1.302a2.398 2.398 0 01-1.082.864c-.44.177-.925.223-1.393.133a2.433 2.433 0 01-1.234-.642 2.324 2.324 0 01-.66-1.2 2.283 2.283 0 01.137-1.354 2.36 2.36 0 01.888-1.052zm-10.607 0a2.46 2.46 0 013.043.292c.452.44.706 1.035.707 1.656 0 .464-.141.917-.406 1.302a2.397 2.397 0 01-1.082.864c-.44.177-.925.223-1.393.133a2.433 2.433 0 01-1.234-.642 2.324 2.324 0 01-.66-1.2 2.284 2.284 0 01.137-1.354 2.36 2.36 0 01.888-1.052zM12.724 7h1.758c.346 0 .644.259.66.595a.611.611 0 01-.176.461.644.644 0 01-.466.194h-2.25a.657.657 0 01-.326-.086.634.634 0 01-.236-.235L10.81 6.39a.163.163 0 00-.258-.03L8.865 8.108a.155.155 0 00-.043.122.154.154 0 00.067.112l1.486 1.04a.63.63 0 01.268.508v3.359a.612.612 0 01-.2.452.646.646 0 01-.474.171.645.645 0 01-.612-.641v-2.7a.158.158 0 00-.077-.133c-.442-.261-1.249-.73-2.394-1.372l-.046-.026c-.25-.141-.697-.394-.697-1.032.004-.328.138-.641.374-.875l2.806-2.75a1.28 1.28 0 011.606-.123c.16.11.289.257.378.426l1.276 2.272a.158.158 0 00.059.06.164.164 0 00.082.021z" fill="#929BA0"/></svg>