<svg fill="none" xmlns="http://www.w3.org/2000/svg" viewBox="0 0 14 18"><path d="M10.533 11.94l.656.363-.656-.364zm-2.681 4.125l-.603-.446-.002.003.605.443zm-.377.32l.339.67-.34-.67zm-.963 0l-.339.67.34-.67zm-.377-.32l.605-.443-.002-.004-.603.447zM3.454 11.94l-.656.364.656-.364zM6.993 9v.75V9zM5.8 8.64l.416-.625-.416.624zm2.708-.268l-.53-.53.53.53zm.629-1.515l.75.001h-.75zm-.362-1.19l-.623.417.623-.417zm-.963-.79l.287-.692-.287.693zm-1.239-.121l.146.735-.146-.735zm-1.098.586l-.53-.53.53.53zM4.889 6.44l.735.147-.735-.147zm.122 1.238l-.693.288.693-.288zM6.993.75C3.654.75.88 3.353.88 6.623h1.5c0-2.378 2.037-4.373 4.613-4.373V.75zm6.112 5.873c0-3.27-2.774-5.873-6.112-5.873v1.5c2.575 0 4.612 1.995 4.612 4.373h1.5zm-1.916 5.68c1.226-2.213 1.916-4.14 1.916-5.68h-1.5c0 1.15-.537 2.802-1.728 4.953l1.312.727zm-2.734 4.209c.592-.8 1.74-2.415 2.734-4.209l-1.312-.727c-.949 1.711-2.053 3.266-2.628 4.043l1.206.893zm-.641.542c.254-.129.474-.315.643-.545l-1.21-.887a.315.315 0 01-.111.094l.678 1.338zm-.82.196c.284 0 .565-.067.82-.196l-.678-1.338a.315.315 0 01-.142.034v1.5zm-.82-.196c.254.129.535.196.82.196v-1.5a.315.315 0 01-.143-.034l-.677 1.338zm-.644-.545c.169.23.39.416.643.545l.678-1.338a.315.315 0 01-.111-.094l-1.21.887zm-2.732-4.206c.995 1.794 2.14 3.408 2.735 4.21l1.205-.895c-.576-.776-1.679-2.33-2.628-4.042l-1.312.727zM.88 6.623c0 1.54.69 3.466 1.918 5.68l1.312-.727C2.917 9.424 2.38 7.773 2.38 6.623H.88zM6.993 8.25c-.276 0-.546-.082-.776-.235l-.833 1.248a2.897 2.897 0 001.609.487v-1.5zm.986-.409a1.398 1.398 0 01-.987.41l.001 1.5c.767-.002 1.503-.306 2.046-.848L7.979 7.84zm.409-.984c0 .369-.148.723-.41.984l1.06 1.062a2.894 2.894 0 00.85-2.045l-1.5-.001zm-.235-.773c.153.229.235.498.235.773h1.5c0-.572-.17-1.131-.488-1.607l-1.247.834zm-.626-.513c.255.105.473.284.626.513L9.4 5.25a2.895 2.895 0 00-1.3-1.065L7.527 5.57zm-.807-.08c.271-.054.552-.026.807.08L8.1 4.185a2.897 2.897 0 00-1.672-.165l.292 1.471zm-.714.382c.195-.195.444-.328.714-.382L6.428 4.02a2.896 2.896 0 00-1.482.791l1.06 1.062zm-.382.713c.054-.27.187-.518.382-.713L4.946 4.81c-.405.405-.681.92-.793 1.482l1.471.293zm.08.804a1.39 1.39 0 01-.08-.804l-1.47-.293a2.89 2.89 0 00.164 1.672l1.386-.575zm.513.625a1.393 1.393 0 01-.513-.625l-1.386.575c.22.528.59.98 1.066 1.298l.833-1.248z" fill="#929BA0"/></svg>