<svg fill="none" xmlns="http://www.w3.org/2000/svg" viewBox="0 0 20 20"><path fill-rule="evenodd" clip-rule="evenodd" d="M1.129.5C.505.5 0 1 0 1.618c0 .617.505 1.117 1.129 1.117h2.3l2.54 10.291a1.5 1.5 0 001.456 1.14h9.28a1.5 1.5 0 001.467-1.184l1.307-6.07a2 2 0 00-1.956-2.42H6.087l-.625-3.094A1.126 1.126 0 004.355.5H1.129zm6.452 15.168a1.926 1.926 0 00-1.936 1.916c0 1.058.867 1.916 1.936 1.916a1.926 1.926 0 001.935-1.916 1.926 1.926 0 00-1.935-1.916zm6.935 1.916c0-1.058.867-1.916 1.935-1.916 1.07 0 1.936.858 1.936 1.916a1.926 1.926 0 01-1.936 1.916 1.926 1.926 0 01-1.935-1.916z" fill="#DEE1E3"/></svg>