<svg width="18" height="24" viewBox="0 0 18 24" fill="none" xmlns="http://www.w3.org/2000/svg">
<path fill-rule="evenodd" clip-rule="evenodd" d="M0.836914 8.40024C0.836914 4.10727 4.4938 0.613342 8.98822 0.613342C13.4827 0.613342 17.1395 4.10727 17.1395 8.40024C17.1395 10.4457 16.2067 13.1645 14.3701 16.4813C12.8927 19.1452 11.1819 21.554 10.2945 22.7526C10.1442 22.9574 9.94784 23.1239 9.72118 23.2387C9.49447 23.3535 9.24392 23.4133 8.98975 23.4133C8.73559 23.4133 8.48503 23.3535 8.25833 23.2387C8.03167 23.1239 7.83527 22.9574 7.68503 22.7526C6.79603 21.554 5.0868 19.1452 3.60938 16.4813C1.76973 13.1635 0.836914 10.4447 0.836914 8.40024ZM7.17677 11.4648C7.71292 11.8227 8.34333 12.0138 8.9882 12.0138C9.85264 12.0128 10.6814 11.6694 11.2927 11.0587C11.904 10.448 12.2478 9.62009 12.2487 8.7565C12.2487 8.11228 12.0575 7.4825 11.6992 6.94689C11.341 6.41122 10.8317 5.99373 10.236 5.7472C9.64015 5.50066 8.98458 5.43613 8.35209 5.56184C7.7196 5.6875 7.13867 5.99775 6.68265 6.45326C6.22669 6.90882 5.91612 7.48917 5.79034 8.12103C5.6645 8.75289 5.7291 9.4078 5.97588 10.003C6.22266 10.5982 6.64057 11.1069 7.17677 11.4648Z" fill="white"/>
</svg>
