<svg fill="none" xmlns="http://www.w3.org/2000/svg" viewBox="0 0 36 36"><path d="M28.425 1.925a1.093 1.093 0 011.6.969l-.005 3.967L5.976 6.3l-.003-.003.003-3.384a1.093 1.093 0 011.582-.997l1.697 1.686 1.7-1.686a1.096 1.096 0 01.978 0l1.695 1.687 1.721-1.688a1.093 1.093 0 01.98.004L18 3.6l1.684-1.683a1.094 1.094 0 01.981 0l1.693 1.686 1.716-1.686a1.093 1.093 0 01.977 0l1.695 1.685 1.68-1.677zM7.563 33.736a1.093 1.093 0 01-1.6-.969l.004-3.967 24.044.561.004.003-.004 3.384a1.093 1.093 0 01-1.582.997l-1.697-1.686-1.7 1.686a1.097 1.097 0 01-.978 0l-1.694-1.687-1.722 1.689a1.094 1.094 0 01-.98-.005l-1.67-1.68-1.684 1.683a1.094 1.094 0 01-.981 0l-1.693-1.687-1.716 1.687a1.093 1.093 0 01-.977 0l-1.694-1.686-1.68 1.677z" fill="#fff"/><path d="M25.647 4.412h-15.3a4.376 4.376 0 00-3.09 1.281c-.82.82-1.28-1.67-1.281-.51v24.039c0 1.159.014-.43.834.39.82.819 1.93 1.28 3.09 1.281h15.3c1.159-.001 2.78.82 3.6 0 .82-.82 1.217-.512 1.218-1.671V5.182c0-1.158-.462 1.33-1.281.511a4.376 4.376 0 00-3.09-1.281zM18.257 24.3h-5.465a1.093 1.093 0 110-2.186h5.465a1.093 1.093 0 010 2.186zm5.464-5.464H12.792a1.093 1.093 0 010-2.186h10.929a1.093 1.093 0 010 2.186zm0-5.465H12.792a1.093 1.093 0 010-2.185h10.929a1.093 1.093 0 010 2.185z" fill="#fff"/></svg>