<svg fill="none" xmlns="http://www.w3.org/2000/svg" viewBox="0 0 32 32"><g clip-path="url(#clip0)"><circle cx="16" cy="16" r="16" fill="#fff"/><path fill-rule="evenodd" clip-rule="evenodd" d="M21.867 12.316c.272-3.714-2.427-6.566-6.117-6.566-3.707 0-6.387 2.81-6.116 6.564.255 3.552 2.968 6.418 6.116 6.418 3.146 0 5.857-2.864 6.117-6.416zm5.75 17.168c-1.235-5.054-6.056-8.026-11.867-8.026-5.763 0-10.622 3.02-11.865 8.023-.315 1.264.546 2.529 1.88 2.529h19.971l.206-.012.195-.036c1.138-.264 1.75-1.381 1.48-2.478z" fill="#FDBF2D"/></g><defs><clipPath id="clip0"><path d="M0 16C0 7.163 7.163 0 16 0s16 7.163 16 16-7.163 16-16 16S0 24.837 0 16z" fill="#fff"/></clipPath></defs></svg>