<svg fill="none" xmlns="http://www.w3.org/2000/svg" viewBox="0 0 18 17"><path fill-rule="evenodd" clip-rule="evenodd" d="M0 1c0-.552.455-1 1.016-1H3.92c.485 0 .902.336.997.804l.563 2.767h11.505c.303 0 .59.133.783.363.193.23.272.532.215.825l-1.163 6a2.422 2.422 0 01-.873 1.419 2.493 2.493 0 01-1.583.536H7.325a2.493 2.493 0 01-1.584-.536 2.422 2.422 0 01-.873-1.418L3.657 4.806a.98.98 0 01-.015-.074L3.086 2h-2.07A1.008 1.008 0 010 1zm6.822 12.571c-.962 0-1.741.768-1.741 1.715 0 .946.78 1.714 1.741 1.714.963 0 1.742-.768 1.742-1.714 0-.947-.78-1.715-1.742-1.715zm6.242 1.715c0-.947.78-1.715 1.742-1.715s1.742.768 1.742 1.715c0 .946-.78 1.714-1.742 1.714s-1.742-.768-1.742-1.714z" fill="#02020B"/></svg>