<svg fill="none" xmlns="http://www.w3.org/2000/svg" viewBox="0 0 20 20"><path d="M13.646 2.708a3.657 3.657 0 013.646 3.646v7.292a3.657 3.657 0 01-3.646 3.646H6.354a3.657 3.657 0 01-3.646-3.646V6.354a3.657 3.657 0 013.646-3.646h7.292zm0-1.458H6.354c-2.807 0-5.104 2.297-5.104 5.104v7.292c0 2.807 2.297 5.104 5.104 5.104h7.292c2.807 0 5.104-2.297 5.104-5.104V6.354c0-2.807-2.297-5.104-5.104-5.104z" fill="#02020B"/><path d="M14.74 6.354a1.094 1.094 0 110-2.187 1.094 1.094 0 010 2.187zm-4.74.73a2.917 2.917 0 110 5.833 2.917 2.917 0 010-5.834zm0-1.459a4.375 4.375 0 100 8.75 4.375 4.375 0 000-8.75z" fill="#02020B"/></svg>