<svg id="img" fill="none" xmlns="http://www.w3.org/2000/svg" viewBox="0 0 24 24"><path fill-rule="evenodd" clip-rule="evenodd" d="M1.355.6C.607.6 0 1.2 0 1.941s.607 1.341 1.355 1.341h2.76L7.22 15.86A1.5 1.5 0 008.675 17h11.614a1.5 1.5 0 001.466-1.184l1.724-8.005a2 2 0 00-1.956-2.42H7.305l-.75-3.713A1.351 1.351 0 005.224.6h-3.87zm7.742 18.202c-1.283 0-2.323 1.029-2.323 2.299s1.04 2.3 2.323 2.3c1.282 0 2.322-1.03 2.322-2.3 0-1.27-1.04-2.3-2.322-2.3zm8.322 2.299c0-1.27 1.04-2.3 2.323-2.3s2.322 1.03 2.322 2.3c0 1.27-1.04 2.3-2.322 2.3-1.283 0-2.323-1.03-2.323-2.3z" fill="currentColor"/></svg>