<svg fill="none" xmlns="http://www.w3.org/2000/svg" viewBox="0 0 20 20"><path d="M16.599 17.188a.596.596 0 01-.425-.176L2.976 3.813a.6.6 0 01.848-.848l13.199 13.199a.6.6 0 01-.424 1.024zm-6.9-4.955L7.757 10.29a.075.075 0 00-.119.018.075.075 0 00-.008.045 2.404 2.404 0 002.006 2.006.075.075 0 00.077-.041.075.075 0 00-.014-.086zm.6-4.489l1.945 1.944a.075.075 0 00.128-.063 2.405 2.405 0 00-2.008-2.008.075.075 0 00-.086.086c.003.016.01.03.021.041z" fill="#929BA0"/><path d="M18.81 10.64a1.207 1.207 0 00-.003-1.304c-.992-1.534-2.28-2.838-3.722-3.77-1.599-1.031-3.361-1.577-5.098-1.577a8.495 8.495 0 00-2.693.442.15.15 0 00-.058.249L9.007 6.45a.15.15 0 00.143.04 3.6 3.6 0 014.35 4.349.15.15 0 00.04.143l2.547 2.55a.15.15 0 00.203.009c.98-.836 1.83-1.815 2.52-2.903zM10 13.587A3.598 3.598 0 016.5 9.14a.15.15 0 00-.039-.143L3.955 6.49a.15.15 0 00-.203-.009c-.914.78-1.762 1.73-2.537 2.84a1.197 1.197 0 00-.024 1.332c.99 1.55 2.264 2.855 3.685 3.774 1.6 1.036 3.32 1.56 5.111 1.56a8.933 8.933 0 002.724-.432.15.15 0 00.06-.25l-1.78-1.779a.149.149 0 00-.143-.04 3.595 3.595 0 01-.849.102z" fill="#929BA0"/></svg>