<svg fill="none" xmlns="http://www.w3.org/2000/svg" viewBox="0 0 20 20"><path d="M10 12.4a2.4 2.4 0 100-4.8 2.4 2.4 0 000 4.8z" fill="#929BA0"/><path d="M18.807 9.347c-.992-1.534-2.28-2.838-3.722-3.77C13.488 4.547 11.725 4 9.988 4c-1.595 0-3.162.456-4.66 1.354C3.8 6.27 2.417 7.61 1.215 9.332a1.197 1.197 0 00-.024 1.332c.99 1.55 2.265 2.856 3.685 3.775 1.6 1.036 3.32 1.56 5.112 1.56 1.752 0 3.518-.54 5.107-1.564 1.443-.928 2.727-2.237 3.716-3.784a1.208 1.208 0 00-.004-1.304zM10.001 13.6a3.6 3.6 0 110-7.2 3.6 3.6 0 010 7.2z" fill="#929BA0"/></svg>