<svg fill="none" xmlns="http://www.w3.org/2000/svg" viewBox="0 0 16 15"><path d="M8.117 2.091L8 2.197l-.1-.095C7.024 1.314 6.284.595 4.62.6 2.22.607.427 2.799.4 5.181c-.018 1.77.718 3.165 2.38 4.893.207.216.44.445.7.687l.407.372.218.194.465.4c.162.138.33.278.504.421l.542.44.581.46.62.48.658.499c.308.23.742.23 1.05 0l.692-.526c.112-.086.223-.17.33-.255l.63-.492.588-.47c.19-.154.371-.304.546-.45l.504-.427.463-.405c.367-.329.692-.635.973-.92 1.632-1.647 2.368-3.095 2.349-4.9C15.574 2.798 13.777.6 11.375.6c-1.598 0-2.421.76-3.258 1.491z" fill="#DEE1E3"/></svg>