<svg fill="none" xmlns="http://www.w3.org/2000/svg" viewBox="0 0 100 32"><path fill-rule="evenodd" clip-rule="evenodd" d="M70.457 20.99c.604 0 1.045.443 1.049 1.053l.031 1.197c0 .6-.408 1.048-.991 1.095-.495.047-.932.07-1.334.07-.849 0-2.087-.084-3.043-.806-1.003-.757-1.511-2.074-1.511-3.915V1.75c0-.535.329-.95.858-1.082l.033-.008L68.73 0V19.388c-.006.712.115 1.15.303 1.338.18.182.592.267 1.296.267h.065c.022-.002.043-.002.064-.002zM18.101 9.687c1.31-1.456 3.136-2.258 5.14-2.258 2.047 0 3.802.713 5.074 2.063 1.47 1.56 2.194 3.884 2.04 6.547-.014.587-.474 1.03-1.073 1.03h-9.121c.34 2.451 1.614 3.846 3.537 3.846 1.15 0 2.418-.341 3.479-.935.184-.113.377-.17.574-.17.38 0 .716.213.904.57l.679 1.188c.157.257.205.547.135.818-.07.273-.254.505-.517.653-1.657.992-3.59 1.538-5.443 1.538-2.163 0-4.007-.725-5.332-2.095-1.466-1.515-2.21-3.692-2.21-6.472 0-2.586.739-4.773 2.134-6.323zm2.235 4.035h5.77c-.358-1.932-1.708-2.632-2.818-2.632-1.427 0-2.484.952-2.952 2.632zM0 16.855V9.997c0-.535.321-.985.858-1.082.7-.128 1.313-.26 2.717-.651.286-.08.558-.163.824-.245.947-.29 1.824-.56 3-.56 1.893 0 3.612.75 4.84 2.112 1.354 1.502 2.07 3.696 2.07 6.344 0 2.49-.635 4.616-1.836 6.147-1.289 1.644-3.153 2.514-5.39 2.514h-.036c-1.167-.012-2.107-.198-2.96-.594v6.287c0 .535-.328.95-.858 1.082a.482.482 0 01-.028.007L0 32V16.855zm9.271-4.663c-.535-.7-1.308-1.056-2.298-1.056-1.14 0-2.886.799-2.886 1.782v6.49c.487 1 1.357 1.506 2.586 1.506 1.32 0 3.533-.65 3.533-5 0-1.655-.315-2.908-.935-3.722zm70.035-4.764c-2.004 0-3.83.802-5.14 2.258-1.395 1.55-2.132 3.737-2.132 6.323 0 2.78.742 4.957 2.208 6.472 1.325 1.37 3.169 2.095 5.333 2.095 1.853 0 3.786-.546 5.443-1.538.263-.148.446-.38.516-.654.07-.271.022-.56-.134-.816l-.68-1.189c-.188-.357-.524-.57-.903-.57-.198 0-.39.057-.575.17-1.061.594-2.329.935-3.479.935-1.923 0-3.196-1.395-3.537-3.847h9.121c.6 0 1.06-.442 1.074-1.03.154-2.662-.57-4.986-2.04-6.546-1.272-1.35-3.027-2.063-5.075-2.063zm2.857 6.293h-5.76c.467-1.68 1.524-2.632 2.95-2.632.85 0 1.571.346 2.087 1 .345.437.595 1.006.723 1.632zm15.422-5.727c-.76-.27-1.59-.436-2.249-.452l.002-.002h-.04l-.067-.001c-.132 0-.261.006-.39.016-.95.054-1.648.262-2.46.504-.224.066-.457.136-.706.205-1.404.39-2.018.523-2.718.651-.536.097-.857.547-.857 1.082v13.238c0 .62.451 1.073 1.073 1.073h1.94c.622 0 1.074-.452 1.074-1.074V14.56c.554-2.528 1.89-3.06 2.918-3.06.426 0 .88.085 1.347.253.13.05.27.076.406.076.484 0 .872-.323.987-.817l.424-1.728a1.061 1.061 0 00-.684-1.29zM46.059 15.18v6.858c0 .535-.321.985-.858 1.082-.7.128-1.313.26-2.717.651-.286.08-.559.163-.825.245-.947.29-1.823.56-3 .56-1.892 0-3.611-.75-4.839-2.112-1.354-1.503-2.07-3.696-2.07-6.344 0-2.49.635-4.616 1.836-6.148 1.288-1.644 3.153-2.512 5.39-2.512h.036c1.167.011 2.107.197 2.96.593V1.766c0-.535.328-.95.858-1.082l.023-.006h.005l3.2-.643V15.18zm-9.271 4.662c.535.701 1.307 1.056 2.298 1.056 1.14 0 2.885-.798 2.885-1.781v-6.49c-.486-1-1.356-1.507-2.586-1.507-1.319 0-3.532.65-3.532 5 0 1.656.315 2.909.935 3.722zm25.167 2.196V.035l-3.2.642-.009.002-.02.005c-.529.132-.858.547-.858 1.082v6.287c-.852-.396-1.793-.582-2.96-.593h-.034c-2.24 0-4.103.868-5.392 2.512-1.2 1.532-1.835 3.658-1.835 6.148 0 2.648.715 4.841 2.07 6.344 1.227 1.362 2.946 2.112 4.84 2.112 1.175 0 2.052-.27 2.998-.56.267-.081.539-.165.825-.245 1.404-.39 2.018-.523 2.718-.65.537-.098.857-.548.857-1.083zm-6.972-1.14c-.99 0-1.764-.355-2.298-1.056-.621-.813-.935-2.066-.935-3.722 0-4.35 2.212-5 3.532-5 1.23 0 2.1.507 2.586 1.506v6.49c0 .984-1.746 1.782-2.885 1.782z" fill="#fff"/><path fill-rule="evenodd" clip-rule="evenodd" d="M97.633 19.973a2.301 2.301 0 100 4.602 2.301 2.301 0 000-4.602z" fill="#FDBF2D"/></svg>