<svg width="22" height="20" viewBox="0 0 22 20" fill="none" xmlns="http://www.w3.org/2000/svg">
<path d="M10.3075 0.564971C10.5637 -0.0509988 11.4363 -0.0509983 11.6925 0.564971L13.9981 6.10836C14.1061 6.36804 14.3503 6.54547 14.6307 6.56794L20.6152 7.04772C21.2802 7.10103 21.5499 7.93091 21.0432 8.36491L16.4836 12.2707C16.27 12.4537 16.1767 12.7407 16.242 13.0143L17.635 18.8542C17.7898 19.5031 17.0839 20.016 16.5146 19.6683L11.3909 16.5388C11.1509 16.3922 10.8491 16.3922 10.6091 16.5388L5.48544 19.6683C4.91612 20.016 4.21018 19.5031 4.36497 18.8542L5.758 13.0143C5.82326 12.7407 5.72998 12.4537 5.51639 12.2707L0.956788 8.36491C0.450135 7.93091 0.719781 7.10103 1.38477 7.04772L7.36933 6.56794C7.64967 6.54547 7.89388 6.36804 8.00188 6.10836L10.3075 0.564971Z" fill="#FDBF2D"/>
</svg>
