<svg fill="none" xmlns="http://www.w3.org/2000/svg" viewBox="0 0 20 20"><path d="M14.248 2.5h-8.5A2.431 2.431 0 003.32 4.929V17.07A2.431 2.431 0 005.748 19.5h8.5a2.431 2.431 0 002.429-2.429V4.93A2.431 2.431 0 0014.248 2.5zm-4.25 10.321H6.963a.607.607 0 110-1.214h3.035a.607.607 0 010 1.214zm3.036-3.035H6.963a.607.607 0 110-1.215h6.071a.607.607 0 110 1.215zm0-3.036H6.963a.607.607 0 010-1.214h6.071a.607.607 0 110 1.214z" fill="#6C41D9"/><path d="M6.5 2a1 1 0 011-1h5a1 1 0 011 1v1h-7V2z" fill="#6C41D9"/></svg>