<svg fill="none" xmlns="http://www.w3.org/2000/svg" viewBox="0 0 20 20"><path fill-rule="evenodd" clip-rule="evenodd" d="M19 10a9 9 0 11-18 0 9 9 0 0118 0zm-7.643-4.293c.471-.174.975-.241 1.475-.196l-.002.001a3.295 3.295 0 012.164 1.058c.558.602.87 1.392.87 2.213v4.03h-1.829v-4.08c-.004-.803-.684-1.458-1.512-1.458-.05.001-.1.004-.15.008-.74.073-1.36.755-1.36 1.49v4.04H9.183v-4.07c-.004-.805-.68-1.464-1.507-1.464-.039 0-.08.003-.12.005l-.03.002c-.738.074-1.362.756-1.362 1.497v4.03h-1.79v-4.08c0-1.784 1.492-3.233 3.32-3.233a3.368 3.368 0 012.416 1.02c.35-.361.776-.638 1.246-.813z" fill="#6C41D9"/></svg>